<svg width="32" height="33" viewBox="0 0 32 33" fill="none" xmlns="http://www.w3.org/2000/svg">
<g clip-path="url(#clip0_5779_2861)">
<path d="M20.8526 10.162C20.332 9.20871 19.587 8.47172 18.6177 7.96705C17.6484 7.46238 16.5109 7.20603 15.1971 7.20603C12.9301 7.20603 11.1116 7.95103 9.74983 9.44102C8.38801 10.931 7.69909 12.9177 7.69909 15.401C7.69909 17.8843 8.41205 20.1193 9.84596 21.6093C11.2799 23.0992 13.2505 23.8442 15.7659 23.8442C18.2812 23.8442 18.9381 23.4036 20.1317 22.5305C21.3173 21.6573 22.1904 20.3996 22.7352 18.7574H13.8433V13.5986H29.0876V20.1113C28.5669 21.8576 27.6858 23.4838 26.4441 24.9898C25.2024 26.4958 23.6243 27.7054 21.7098 28.6346C19.7952 29.5639 17.6404 30.0285 15.2372 30.0285C12.8339 30.0285 9.86198 29.4037 7.63501 28.162C5.40804 26.9203 3.67773 25.19 2.42806 22.9791C1.1864 20.7681 0.56958 18.2448 0.56958 15.401C0.56958 12.5572 1.1864 10.0258 2.43607 7.79883C3.67773 5.57185 5.40804 3.84155 7.61899 2.59188C9.82994 1.35823 12.3533 0.733398 15.1971 0.733398C18.0409 0.733398 21.5416 1.56651 23.9047 3.23273C26.2679 4.89896 27.83 7.20603 28.599 10.162H20.8526Z" fill="#727597"/>
<path d="M20.9087 10.2101C20.388 9.25685 19.643 8.51987 18.6737 8.01519C17.7044 7.51052 16.5669 7.25418 15.2531 7.25418C12.9861 7.25418 11.1677 7.99917 9.80586 9.48916C8.44404 10.9791 7.75512 12.9658 7.75512 15.4491C7.75512 17.9324 8.46808 20.1674 9.90199 21.6574C11.3359 23.1474 13.3065 23.8924 15.8219 23.8924C18.3372 23.8924 18.9941 23.4518 20.1877 22.5786C21.3733 21.7055 22.2465 20.4478 22.7912 18.8056H13.8993V13.6467H29.1437V20.1594C28.623 21.9057 27.7418 23.5319 26.5001 25.0379C25.2585 26.5439 23.6804 27.7535 21.7658 28.6828C19.8513 29.612 17.6964 30.0766 15.2932 30.0766C12.89 30.0766 9.91801 29.4518 7.69104 28.2101C5.46407 26.9685 3.73376 25.2382 2.48409 23.0272C1.25044 20.8243 0.62561 18.2929 0.62561 15.4571C0.62561 12.6213 1.24243 10.0819 2.4921 7.85498C3.73376 5.62801 5.46407 3.8977 7.67502 2.64803C9.88597 1.40637 12.4173 0.789551 15.2531 0.789551C18.0889 0.789551 21.5976 1.62266 23.9607 3.28889C26.3239 4.95511 27.886 7.26219 28.655 10.2181H20.9087V10.2101Z" fill="#727597"/>
<path d="M20.9728 10.266C20.4521 9.31271 19.7071 8.57573 18.7378 8.07105C17.7685 7.56638 16.631 7.31004 15.3172 7.31004C13.0502 7.31004 11.2318 8.05503 9.86995 9.54502C8.50813 11.035 7.81921 13.0217 7.81921 15.505C7.81921 17.9883 8.53216 20.2233 9.96608 21.7133C11.4 23.2032 13.3706 23.9482 15.886 23.9482C18.4013 23.9482 19.0582 23.5077 20.2518 22.6345C21.4374 21.7613 22.3105 20.5036 22.8553 18.8615H13.9634V13.7026H29.2078V20.2153C28.6871 21.9616 27.8059 23.5878 26.5642 25.0938C25.3226 26.5998 23.7445 27.8094 21.8299 28.7386C19.9154 29.6679 17.7605 30.1325 15.3573 30.1325C12.9541 30.1325 9.9821 29.5077 7.75512 28.266C5.52815 27.0243 3.79784 25.294 2.54818 23.0831C1.30652 20.8801 0.689697 18.3488 0.689697 15.505C0.689697 12.6612 1.30652 10.1298 2.55619 7.90283C3.79784 5.67586 5.52815 3.94555 7.7391 2.69588C9.95005 1.46224 12.4734 0.837402 15.3172 0.837402C18.161 0.837402 21.6617 1.67051 24.0248 3.33674C26.388 5.00296 27.9501 7.31004 28.7191 10.266H20.9728Z" fill="#727597"/>
<path d="M21.0289 10.3221C20.5082 9.36886 19.7632 8.63188 18.7939 8.12721C17.8246 7.62253 16.6871 7.36619 15.3733 7.36619C13.1063 7.36619 11.2879 8.11118 9.92605 9.60117C8.56424 11.0912 7.87532 13.0778 7.87532 15.5611C7.87532 18.0444 8.58827 20.2794 10.0222 21.7694C11.4561 23.2594 13.4267 24.0044 15.9421 24.0044C18.4574 24.0044 19.1143 23.5638 20.3079 22.6906C21.4935 21.8175 22.3667 20.5598 22.9114 18.9176H14.0195V13.7587H29.2639V20.2714C28.7432 22.0177 27.862 23.6439 26.6203 25.1499C25.3787 26.6559 23.8006 27.8655 21.886 28.7948C19.9715 29.724 17.8166 30.1886 15.4134 30.1886C13.0102 30.1886 10.0382 29.5638 7.81123 28.3222C5.58426 27.0805 3.85395 25.3502 2.60428 23.1392C1.36263 20.9283 0.737793 18.3969 0.737793 15.5611C0.737793 12.7253 1.35462 10.186 2.60428 7.95898C3.84594 5.73201 5.57625 4.0017 7.7872 2.75203C10.0062 1.51839 12.5295 0.893555 15.3733 0.893555C18.2171 0.893555 21.7178 1.72667 24.0809 3.39289C26.4441 5.05911 28.0062 7.36619 28.7752 10.3221H21.0289Z" fill="#727597"/>
<path d="M21.0849 10.3703C20.5642 9.41701 19.8192 8.68002 18.8499 8.17535C17.8806 7.67067 16.7431 7.41433 15.4294 7.41433C13.1623 7.41433 11.3439 8.15933 9.98208 9.64932C8.62027 11.1393 7.93135 13.126 7.93135 15.6093C7.93135 18.0926 8.6443 20.3276 10.0782 21.8176C11.5121 23.3075 13.4828 24.0525 15.9981 24.0525C18.5135 24.0525 19.1703 23.6119 20.3639 22.7388C21.5495 21.8656 22.4227 20.6079 22.9674 18.9657H14.0755V13.8069H29.3199V20.3196C28.7992 22.0659 27.918 23.6921 26.6764 25.1981C25.4347 26.7041 23.8566 27.9137 21.942 28.8429C20.0275 29.7722 17.8726 30.2368 15.4694 30.2368C13.0662 30.2368 10.0942 29.6119 7.86726 28.3703C5.64029 27.1286 3.90998 25.3983 2.66031 23.1874C1.41866 20.9764 0.793823 18.4451 0.793823 15.6093C0.793823 12.7735 1.41065 10.2341 2.66031 8.00712C3.90197 5.78015 5.63228 4.04984 7.84323 2.80018C10.0622 1.56653 12.5936 0.949707 15.4374 0.949707C18.2812 0.949707 21.7818 1.78282 24.145 3.44904C26.5081 5.11527 28.0702 7.42234 28.8392 10.3783H21.0929L21.0849 10.3703Z" fill="#727597"/>
<path d="M21.149 10.4261C20.6283 9.47287 19.8833 8.73588 18.914 8.23121C17.9448 7.72654 16.8072 7.47019 15.4935 7.47019C13.2265 7.47019 11.408 8.21519 10.0462 9.70518C8.6844 11.1952 7.99548 13.1818 7.99548 15.6651C7.99548 18.1484 8.70843 20.3834 10.1423 21.8734C11.5763 23.3634 13.5469 24.1084 16.0622 24.1084C18.5776 24.1084 19.2345 23.6678 20.4281 22.7946C21.6137 21.9215 22.4868 20.6638 23.0315 19.0216H14.1397V13.8627H29.384V20.3754C28.8633 22.1217 27.9821 23.7479 26.7405 25.2539C25.4988 26.7599 23.9207 27.9695 22.0062 28.8988C20.0916 29.828 17.9367 30.2926 15.5335 30.2926C13.1303 30.2926 10.1584 29.6678 7.9314 28.4262C5.70442 27.1845 3.97411 25.4542 2.72445 23.2432C1.47478 21.0323 0.865967 18.5089 0.865967 15.6651C0.865967 12.8213 1.48279 10.29 2.73246 8.06299C3.97411 5.83601 5.70442 4.10571 7.91537 2.85604C10.1263 1.62239 12.6497 0.997559 15.4935 0.997559C18.3373 0.997559 21.838 1.83067 24.2011 3.49689C26.5643 5.16312 28.1263 7.47019 28.8954 10.4261H21.149Z" fill="#727597"/>
<path d="M21.2051 10.4825C20.6844 9.52922 19.9394 8.79224 18.9702 8.28756C18.0009 7.78289 16.8633 7.52655 15.5496 7.52655C13.2826 7.52655 11.4641 8.27154 10.1023 9.76153C8.74051 11.2515 8.05159 13.2382 8.05159 15.7215C8.05159 18.2048 8.76454 20.4398 10.1985 21.9298C11.6324 23.4198 13.603 24.1647 16.1184 24.1647C18.6337 24.1647 19.2906 23.7242 20.4842 22.851C21.6698 21.9778 22.5429 20.7202 23.0877 19.078H14.1958V13.9191H29.4401V20.4318C28.9194 22.1781 28.0383 23.8043 26.7966 25.3103C25.5549 26.8163 23.9768 28.0259 22.0623 28.9551C20.1477 29.8844 17.9929 30.349 15.5896 30.349C13.1864 30.349 10.2145 29.7242 7.9875 28.4825C5.76053 27.2409 4.03022 25.5105 2.78055 23.2996C1.5389 21.0886 0.914062 18.5573 0.914062 15.7215C0.914062 12.8857 1.53089 10.3463 2.78055 8.11934C4.02221 5.89237 5.75252 4.16206 7.96347 2.91239C10.1744 1.67073 12.6978 1.0459 15.5416 1.0459C18.3854 1.0459 21.886 1.87901 24.2492 3.54523C26.6124 5.21146 28.1744 7.51853 28.9435 10.4745H21.1971L21.2051 10.4825Z" fill="#727597"/>
<path d="M21.2692 10.5303C20.7485 9.57707 20.0035 8.84009 19.0342 8.33541C18.0649 7.83074 16.9274 7.5744 15.6137 7.5744C13.3467 7.5744 11.5282 8.31939 10.1664 9.80938C8.80459 11.2994 8.11567 13.286 8.11567 15.7693C8.11567 18.2526 8.82862 20.4876 10.2625 21.9776C11.6965 23.4676 13.6671 24.2126 16.1824 24.2126C18.6978 24.2126 19.3547 23.772 20.5483 22.8988C21.7338 22.0257 22.607 20.768 23.1517 19.1258H14.2599V13.9669H29.5042V20.4796C28.9835 22.2259 28.1023 23.8521 26.8607 25.3581C25.619 26.8641 24.0409 28.0738 22.1264 29.003C20.2118 29.9322 18.0569 30.3969 15.6537 30.3969C13.2505 30.3969 10.2786 29.772 8.05159 28.5304C5.82462 27.2887 4.09431 25.5584 2.84464 23.3474C1.60298 21.1365 0.978149 18.6051 0.978149 15.7693C0.978149 12.9335 1.59497 10.3942 2.84464 8.16719C4.0863 5.94022 5.81661 4.20991 8.02756 2.96024C10.2385 1.71858 12.7619 1.09375 15.6057 1.09375C18.4495 1.09375 21.9501 1.92686 24.3133 3.59309C26.6764 5.25931 28.2385 7.56639 29.0076 10.5223H21.2612L21.2692 10.5303Z" fill="#727597"/>
<path d="M21.3253 10.5865C20.8046 9.63322 20.0596 8.89624 19.0903 8.39157C18.121 7.88689 16.9835 7.63055 15.6698 7.63055C13.4027 7.63055 11.5843 8.37554 10.2225 9.86553C8.86067 11.3555 8.17175 13.3422 8.17175 15.8255C8.17175 18.3088 8.8847 20.5438 10.3186 22.0338C11.7525 23.5238 13.7232 24.2687 16.2385 24.2687C18.7539 24.2687 19.4107 23.8282 20.6043 22.955C21.7899 22.0818 22.6631 20.8242 23.2078 19.182H14.3159V14.0231H29.5603V20.5358C29.0396 22.2821 28.1584 23.9083 26.9168 25.4143C25.6751 26.9203 24.097 28.1299 22.1824 29.0591C20.2679 29.9884 18.113 30.453 15.7098 30.453C13.3066 30.453 10.3346 29.8282 8.10766 28.5865C5.88069 27.3449 4.15038 25.6145 2.90072 23.4036C1.65105 21.1926 1.04224 18.6693 1.04224 15.8255C1.04224 12.9817 1.65906 10.4503 2.90873 8.22334C4.15038 5.99637 5.88069 4.26606 8.09164 3.01639C10.3026 1.77474 12.826 1.1499 15.6698 1.1499C18.5135 1.1499 22.0142 1.98301 24.3774 3.64924C26.7405 5.31546 28.3026 7.62254 29.0716 10.5785H21.3253V10.5865Z" fill="#727597"/>
<path d="M21.3814 10.6426C20.8607 9.68937 20.1157 8.95239 19.1464 8.44772C18.1771 7.94304 17.0396 7.6867 15.7259 7.6867C13.4588 7.6867 11.6404 8.4317 10.2786 9.92168C8.91678 11.4117 8.22786 13.3983 8.22786 15.8816C8.22786 18.365 8.94081 20.5999 10.3747 22.0899C11.8086 23.5799 13.7793 24.3249 16.2946 24.3249C18.81 24.3249 19.4669 23.8843 20.6604 23.0112C21.846 22.138 22.7192 20.8803 23.2639 19.2381H14.3721V14.0792H29.6164V20.5919C29.0957 22.3383 28.2145 23.9644 26.9729 25.4704C25.7312 26.9764 24.1531 28.1861 22.2386 29.1153C20.324 30.0445 18.1691 30.5092 15.7659 30.5092C13.3627 30.5092 10.3907 29.8843 8.16377 28.6427C5.9368 27.401 4.20649 25.6707 2.95682 23.4598C1.71517 21.2488 1.09033 18.7174 1.09033 15.8816C1.09033 13.0459 1.70716 10.5065 2.95682 8.27949C4.19848 6.05252 5.92879 4.32221 8.13974 3.07255C10.3507 1.83089 12.8741 1.20605 15.7179 1.20605C18.5616 1.20605 22.0623 2.03917 24.4255 3.70539C26.7886 5.37161 28.3507 7.67869 29.1197 10.6346H21.3734L21.3814 10.6426Z" fill="#727597"/>
<path d="M21.4454 10.6905C20.9247 9.73723 20.1797 9.00024 19.2104 8.49557C18.2411 7.9909 17.1036 7.73455 15.7898 7.73455C13.5228 7.73455 11.7044 8.47955 10.3426 9.96954C8.98074 11.4595 8.29182 13.4462 8.29182 15.9295C8.29182 18.4128 9.00477 20.6478 10.4387 22.1378C11.8726 23.6278 13.8432 24.3728 16.3586 24.3728C18.8739 24.3728 19.5308 23.9322 20.7244 23.059C21.91 22.1858 22.7832 20.9282 23.3279 19.286H14.436V14.1271H29.6804V20.6398C29.1597 22.3861 28.2785 24.0123 27.0368 25.5183C25.7952 27.0243 24.2171 28.2339 22.3025 29.1631C20.388 30.0924 18.2331 30.557 15.8299 30.557C13.4267 30.557 10.4547 29.9322 8.22774 28.6905C6.00076 27.4489 4.27045 25.7186 3.02079 23.5076C1.77913 21.2966 1.1543 18.7653 1.1543 15.9295C1.1543 13.0937 1.77112 10.5543 3.02079 8.32735C4.26244 6.10037 5.99275 4.37006 8.2037 3.1204C10.4147 1.87874 12.938 1.25391 15.7818 1.25391C18.6256 1.25391 22.1263 2.08702 24.4894 3.75324C26.8526 5.41946 28.4147 7.72654 29.1837 10.6825H21.4374L21.4454 10.6905Z" fill="#727597"/>
<path d="M21.5015 10.7467C20.9808 9.79338 20.2358 9.0564 19.2665 8.55172C18.2972 8.04705 17.1597 7.79071 15.846 7.79071C13.579 7.79071 11.7605 8.5357 10.3987 10.0257C9.03689 11.5157 8.34797 13.5023 8.34797 15.9856C8.34797 18.469 9.06092 20.7039 10.4948 22.1939C11.9288 23.6839 13.8994 24.4289 16.4147 24.4289C18.9301 24.4289 19.587 23.9883 20.7806 23.1152C21.9661 22.242 22.8393 20.9843 23.384 19.3421H14.4922V14.1832H29.7365V20.6959C29.2158 22.4423 28.3346 24.0684 27.093 25.5744C25.8513 27.0804 24.2732 28.2901 22.3587 29.2193C20.4441 30.1485 18.2892 30.6132 15.886 30.6132C13.4828 30.6132 10.5109 29.9883 8.28389 28.7467C6.05692 27.505 4.32661 25.7747 3.07694 23.5638C1.83528 21.3528 1.21045 18.8214 1.21045 15.9856C1.21045 13.1499 1.82727 10.6105 3.07694 8.3835C4.3186 6.15653 6.04891 4.42622 8.25986 3.17655C10.4708 1.93489 12.9942 1.31006 15.838 1.31006C18.6818 1.31006 22.1824 2.14317 24.5456 3.80939C26.9087 5.47562 28.4708 7.7827 29.2399 10.7386H21.4935L21.5015 10.7467Z" fill="#727597"/>
<path d="M21.5576 10.8028C21.0369 9.84953 20.2919 9.11255 19.3226 8.60787C18.3533 8.1032 17.2158 7.84686 15.902 7.84686C13.635 7.84686 11.8166 8.59185 10.4547 10.0818C9.09292 11.5718 8.404 13.5585 8.404 16.0418C8.404 18.5251 9.11696 20.7601 10.5509 22.2501C11.9848 23.7401 13.9554 24.4851 16.4708 24.4851C18.9861 24.4851 19.643 24.0445 20.8366 23.1713C22.0222 22.2981 22.8953 21.0405 23.4401 19.3983H14.5482V14.2394H29.7925V20.7521C29.2718 22.4984 28.3907 24.1246 27.149 25.6306C25.9074 27.1366 24.3293 28.3462 22.4147 29.2755C20.5001 30.2047 18.3453 30.6693 15.9421 30.6693C13.5389 30.6693 10.5669 30.0445 8.33992 28.8028C6.11295 27.5612 4.38264 25.8309 3.13297 23.6199C1.8833 21.409 1.26648 18.8776 1.26648 16.0418C1.26648 13.206 1.8833 10.6666 3.13297 8.43965C4.37463 6.21268 6.10494 4.48237 8.31589 3.2327C10.5268 1.99104 13.0502 1.36621 15.894 1.36621C18.7378 1.36621 22.2385 2.19932 24.6016 3.86555C26.9648 5.53177 28.5269 7.83885 29.2959 10.7948H21.5495L21.5576 10.8028Z" fill="#727597"/>
<path d="M21.6216 10.8511C21.1009 9.89787 20.356 9.16089 19.3867 8.65621C18.4174 8.15154 17.2798 7.8952 15.9661 7.8952C13.6991 7.8952 11.8806 8.64019 10.5188 10.1302C9.15701 11.6202 8.46809 13.6068 8.46809 16.0901C8.46809 18.5734 9.18104 20.8084 10.615 22.2984C12.0489 23.7884 14.0195 24.5334 16.5349 24.5334C19.0502 24.5334 19.7071 24.0928 20.9007 23.2196C22.0863 22.3465 22.9594 21.0888 23.5042 19.4466H14.6123V14.2877H29.8566V20.8004C29.3359 22.5467 28.4548 24.1729 27.2131 25.6789C25.9714 27.1849 24.3933 28.3946 22.4788 29.3238C20.5642 30.253 18.4094 30.7177 16.0061 30.7177C13.6029 30.7177 10.631 30.0928 8.40401 28.8512C6.17703 27.6095 4.44672 25.8792 3.19706 23.6682C1.9554 21.4573 1.33057 18.9259 1.33057 16.0901C1.33057 13.2543 1.94739 10.715 3.19706 8.48799C4.43871 6.26102 6.16902 4.53071 8.37997 3.28104C10.5909 2.03938 13.1143 1.41455 15.9581 1.41455C18.8019 1.41455 22.3025 2.24766 24.6657 3.91389C27.0289 5.58011 28.5909 7.88719 29.36 10.8431H21.6136L21.6216 10.8511Z" fill="#727597"/>
<path d="M21.6778 10.9068C21.1571 9.95353 20.4121 9.21655 19.4428 8.71188C18.4735 8.2072 17.336 7.95086 16.0222 7.95086C13.7552 7.95086 11.9368 8.69586 10.575 10.1858C9.21316 11.6758 8.52424 13.6625 8.52424 16.1458C8.52424 18.6291 9.23719 20.8641 10.6711 22.3541C12.105 23.8441 14.0757 24.5891 16.591 24.5891C19.1064 24.5891 19.7632 24.1485 20.9568 23.2753C22.1424 22.4021 23.0156 21.1445 23.5603 19.5023H14.6684V14.3434H29.9128V20.8561C29.3921 22.6024 28.5109 24.2286 27.2693 25.7346C26.0276 27.2406 24.4495 28.4502 22.5349 29.3795C20.6204 30.3087 18.4655 30.7733 16.0623 30.7733C13.6591 30.7733 10.6871 30.1485 8.46016 28.9068C6.23319 27.6652 4.50288 25.9349 3.25321 23.7239C2.01155 21.513 1.38672 18.9816 1.38672 16.1458C1.38672 13.31 2.00354 10.7706 3.25321 8.54365C4.49487 6.31668 6.22517 4.58637 8.43613 3.33671C10.6471 2.09505 13.1704 1.47021 16.0142 1.47021C18.858 1.47021 22.3587 2.30333 24.7219 3.96955C27.085 5.63577 28.6471 7.94285 29.4161 10.8988H21.6698L21.6778 10.9068Z" fill="#727597"/>
<path d="M21.7419 10.963C21.2212 10.0097 20.4762 9.2727 19.5069 8.76803C18.5376 8.26336 17.4001 8.00701 16.0863 8.00701C13.8193 8.00701 12.0009 8.75201 10.6391 10.242C9.27725 11.732 8.58833 13.7186 8.58833 16.202C8.58833 18.6853 9.30128 20.9202 10.7352 22.4102C12.1691 23.9002 14.1397 24.6452 16.6551 24.6452C19.1705 24.6452 19.8273 24.2046 21.0209 23.3315C22.2065 22.4583 23.0797 21.2006 23.6244 19.5584H14.7325V14.3995H29.9769V20.9122C29.4562 22.6586 28.575 24.2847 27.3333 25.7907C26.0917 27.2968 24.5136 28.5064 22.599 29.4356C20.6845 30.3648 18.5296 30.8295 16.1264 30.8295C13.7232 30.8295 10.7512 30.2046 8.52424 28.963C6.29727 27.7213 4.56696 25.991 3.3173 23.7801C2.06763 21.5691 1.45081 19.0377 1.45081 16.202C1.45081 13.3662 2.06763 10.8268 3.3173 8.59981C4.55895 6.37283 6.28926 4.64253 8.50021 3.39286C10.7112 2.1512 13.2345 1.52637 16.0783 1.52637C18.9221 1.52637 22.4228 2.35948 24.7859 4.0257C27.1491 5.69193 28.7112 7.999 29.4802 10.9549H21.7339L21.7419 10.963Z" fill="#727597"/>
<path d="M21.7979 11.0113C21.2772 10.058 20.5322 9.32104 19.5629 8.81637C18.5936 8.3117 17.4561 8.05535 16.1424 8.05535C13.8753 8.05535 12.0569 8.80035 10.6951 10.2903C9.33328 11.7803 8.64436 13.767 8.64436 16.2503C8.64436 18.7336 9.35731 20.9686 10.7912 22.4586C12.2251 23.9486 14.1958 24.6936 16.7111 24.6936C19.2265 24.6936 19.8834 24.253 21.0769 23.3798C22.2625 22.5066 23.1357 21.249 23.6804 19.6068H14.7886V14.4479H30.0329V20.9606C29.5122 22.7069 28.631 24.3331 27.3894 25.8391C26.1477 27.3451 24.5696 28.5547 22.6551 29.4839C20.7405 30.4132 18.5856 30.8778 16.1824 30.8778C13.7792 30.8778 10.8072 30.253 8.58027 29.0113C6.3533 27.7697 4.62299 26.0394 3.37333 23.8284C2.12366 21.6175 1.50684 19.0861 1.50684 16.2503C1.50684 13.4145 2.12366 10.8751 3.37333 8.64815C4.61498 6.42117 6.34529 4.69087 8.55624 3.4412C10.7672 2.19954 13.2906 1.57471 16.1344 1.57471C18.9781 1.57471 22.4788 2.40782 24.842 4.07404C27.2051 5.74027 28.7672 8.04734 29.5362 11.0033H21.7899L21.7979 11.0113Z" fill="#727597"/>
<path d="M21.8539 11.067C21.3332 10.1137 20.5883 9.37671 19.619 8.87203C18.6497 8.36736 17.5121 8.11102 16.1984 8.11102C13.9314 8.11102 12.1129 8.85601 10.7511 10.346C9.38931 11.836 8.70039 13.8226 8.70039 16.306C8.70039 18.7893 9.41334 21.0242 10.8473 22.5142C12.2812 24.0042 14.2518 24.7492 16.7672 24.7492C19.2825 24.7492 19.9394 24.3086 21.133 23.4355C22.3186 22.5623 23.1917 21.3046 23.7365 19.6624H14.8446V14.5035H30.0889V21.0162C29.5682 22.7626 28.6871 24.3887 27.4454 25.8947C26.2037 27.4008 24.6256 28.6104 22.7111 29.5396C20.7965 30.4689 18.6417 30.9335 16.2384 30.9335C13.8352 30.9335 10.8633 30.3086 8.6363 29.067C6.40933 27.8253 4.67902 26.095 3.42936 23.8841C2.1877 21.6731 1.56287 19.1417 1.56287 16.306C1.56287 13.4702 2.17969 10.9308 3.42936 8.70381C4.67101 6.47684 6.40132 4.74653 8.61227 3.49686C10.8232 2.2552 13.3466 1.63037 16.1904 1.63037C19.0342 1.63037 22.5349 2.46348 24.898 4.12971C27.2612 5.79593 28.8232 8.10301 29.5923 11.059H21.8459L21.8539 11.067Z" fill="#727597"/>
<path d="M21.918 11.1231C21.3973 10.1698 20.6523 9.43286 19.683 8.92819C18.7138 8.42351 17.5762 8.16717 16.2625 8.16717C13.9955 8.16717 12.177 8.91216 10.8152 10.4022C9.4534 11.8921 8.76448 13.8788 8.76448 16.3621C8.76448 18.8454 9.47743 21.0804 10.9113 22.5704C12.3453 24.0604 14.3159 24.8054 16.8312 24.8054C19.3466 24.8054 20.0035 24.3648 21.1971 23.4916C22.3826 22.6185 23.2558 21.3608 23.8005 19.7186H14.9087V14.5597H30.153V21.0724C29.6323 22.8187 28.7511 24.4449 27.5095 25.9509C26.2678 27.4569 24.6897 28.6665 22.7752 29.5958C20.8606 30.525 18.7057 30.9896 16.3025 30.9896C13.8993 30.9896 10.9274 30.3648 8.70039 29.1231C6.47342 27.8815 4.74311 26.1512 3.49344 23.9402C2.24378 21.7293 1.62695 19.1979 1.62695 16.3621C1.62695 13.5263 2.24378 10.9869 3.49344 8.75996C4.7351 6.53299 6.46541 4.80268 8.67636 3.55301C10.8873 2.31136 13.4107 1.68652 16.2545 1.68652C19.0983 1.68652 22.5989 2.51964 24.9621 4.18586C27.3252 5.85208 28.8873 8.15916 29.6564 11.1151H21.91L21.918 11.1231Z" fill="#727597"/>
<path d="M21.9742 11.1715C21.4535 10.2182 20.7085 9.4812 19.7392 8.97653C18.7699 8.47185 17.6324 8.21551 16.3186 8.21551C14.0516 8.21551 12.2332 8.96051 10.8714 10.4505C9.50955 11.9405 8.82063 13.9271 8.82063 16.4104C8.82063 18.8938 9.53358 21.1287 10.9675 22.6187C12.4014 24.1087 14.372 24.8537 16.8874 24.8537C19.4028 24.8537 20.0596 24.4131 21.2532 23.54C22.4388 22.6668 23.312 21.4091 23.8567 19.7669H14.9648V14.608H30.2092V21.1207C29.6885 22.8671 28.8073 24.4932 27.5656 25.9992C26.324 27.5052 24.7459 28.7149 22.8313 29.6441C20.9168 30.5733 18.7619 31.038 16.3587 31.038C13.9555 31.038 10.9835 30.4131 8.75654 29.1715C6.52957 27.9298 4.79926 26.1995 3.5496 23.9886C2.29993 21.7776 1.68311 19.2462 1.68311 16.4104C1.68311 13.5747 2.29993 11.0353 3.5496 8.8083C4.79125 6.58133 6.52156 4.85102 8.73251 3.60135C10.9435 2.3597 13.4668 1.73486 16.3106 1.73486C19.1544 1.73486 22.6551 2.56798 25.0182 4.2342C27.3814 5.90042 28.9435 8.2075 29.7125 11.1634H21.9662L21.9742 11.1715Z" fill="#727597"/>
<path d="M22.0302 11.2276C21.5095 10.2743 20.7645 9.53735 19.7952 9.03268C18.8259 8.52801 17.6884 8.27166 16.3747 8.27166C14.1076 8.27166 12.2892 9.01666 10.9274 10.5066C9.56558 11.9966 8.87666 13.9833 8.87666 16.4666C8.87666 18.9499 9.58961 21.1849 11.0235 22.6749C12.4574 24.1649 14.4281 24.9099 16.9434 24.9099C19.4588 24.9099 20.1157 24.4693 21.3092 23.5961C22.4948 22.7229 23.368 21.4653 23.9127 19.8231H15.0209V14.6642H30.2652V21.1769C29.7445 22.9232 28.8633 24.5494 27.6217 26.0554C26.38 27.5614 24.8019 28.771 22.8874 29.7003C20.9728 30.6295 18.8179 31.0941 16.4147 31.0941C14.0115 31.0941 11.0395 30.4693 8.81257 29.2276C6.5856 27.986 4.85529 26.2557 3.60563 24.0447C2.35596 21.8338 1.73914 19.3024 1.73914 16.4666C1.73914 13.6308 2.35596 11.0914 3.60563 8.86445C4.84728 6.63748 6.57759 4.90717 8.78854 3.65751C10.9995 2.41585 13.5229 1.79102 16.3667 1.79102C19.2104 1.79102 22.7111 2.62413 25.0743 4.29035C27.4374 5.95657 28.9995 8.26365 29.7685 11.2196H22.0222L22.0302 11.2276Z" fill="#727597"/>
<path d="M22.0943 11.2833C21.5736 10.33 20.8286 9.59302 19.8593 9.08834C18.89 8.58367 17.7525 8.32733 16.4388 8.32733C14.1717 8.32733 12.3533 9.07232 10.9915 10.5623C9.62967 12.0523 8.94075 14.0389 8.94075 16.5223C8.94075 19.0056 9.6537 21.2406 11.0876 22.7305C12.5215 24.2205 14.4922 24.9655 17.0075 24.9655C19.5229 24.9655 20.1797 24.5249 21.3733 23.6518C22.5589 22.7786 23.4321 21.5209 23.9768 19.8787H15.0849V14.7199H30.3293V21.2325C29.8086 22.9789 28.9274 24.605 27.6858 26.1111C26.4441 27.6171 24.866 28.8267 22.9514 29.7559C21.0369 30.6852 18.882 31.1498 16.4788 31.1498C14.0756 31.1498 11.1036 30.5249 8.87666 29.2833C6.64969 28.0416 4.91938 26.3113 3.66971 24.1004C2.42005 21.8894 1.80322 19.358 1.80322 16.5223C1.80322 13.6865 2.42005 11.1471 3.66971 8.92012C4.91137 6.69315 6.64168 4.96284 8.85263 3.71317C11.0636 2.47151 13.5869 1.84668 16.4307 1.84668C19.2745 1.84668 22.7752 2.67979 25.1384 4.34601C27.5015 6.01224 29.0636 8.31932 29.8326 11.2753H22.0863L22.0943 11.2833Z" fill="#727597"/>
<path d="M22.1503 11.3316C21.6296 10.3783 20.8846 9.64136 19.9153 9.13668C18.9461 8.63201 17.8085 8.37567 16.4948 8.37567C14.2278 8.37567 12.4093 9.12066 11.0475 10.6106C9.6857 12.1006 8.99678 14.0873 8.99678 16.5706C8.99678 19.0539 9.70973 21.2889 11.1436 22.7789C12.5776 24.2689 14.5482 25.0139 17.0635 25.0139C19.5789 25.0139 20.2358 24.5733 21.4294 23.7001C22.6149 22.827 23.4881 21.5693 24.0328 19.9271H15.141V14.7682H30.3853V21.2809C29.8646 23.0272 28.9834 24.6534 27.7418 26.1594C26.5001 27.6654 24.922 28.875 23.0075 29.8043C21.0929 30.7335 18.938 31.1981 16.5348 31.1981C14.1316 31.1981 11.1597 30.5733 8.93269 29.3316C6.70572 28.09 4.97541 26.3597 3.72574 24.1487C2.47608 21.9378 1.85925 19.4064 1.85925 16.5706C1.85925 13.7348 2.47608 11.1954 3.72574 8.96846C4.9674 6.74149 6.69771 5.01118 8.90866 3.76151C11.1196 2.51985 13.643 1.89502 16.4868 1.89502C19.3306 1.89502 22.8312 2.72813 25.1944 4.39435C27.5575 6.06058 29.1196 8.36766 29.8887 11.3236H22.1423L22.1503 11.3316Z" fill="#727597"/>
<path d="M22.2144 11.3878C21.6937 10.4345 20.9487 9.69751 19.9794 9.19284C19.0101 8.68816 17.8726 8.43182 16.5589 8.43182C14.2918 8.43182 12.4734 9.17681 11.1116 10.6668C9.74978 12.1568 9.06086 14.1434 9.06086 16.6268C9.06086 19.1101 9.77382 21.345 11.2077 22.835C12.6416 24.325 14.6123 25.07 17.1276 25.07C19.643 25.07 20.2999 24.6294 21.4935 23.7563C22.679 22.8831 23.5522 21.6254 24.0969 19.9832H15.2051V14.8243H30.4494V21.337C29.9287 23.0834 29.0475 24.7095 27.8059 26.2155C26.5642 27.7216 24.9861 28.9312 23.0716 29.8604C21.157 30.7897 19.0021 31.2543 16.5989 31.2543C14.1957 31.2543 11.2237 30.6294 8.99678 29.3878C6.76981 28.1461 5.0395 26.4158 3.78983 24.2049C2.54817 21.9939 1.92334 19.4625 1.92334 16.6268C1.92334 13.791 2.54016 11.2516 3.78983 9.02461C5.03149 6.79764 6.7618 5.06733 8.97275 3.81766C11.1837 2.57601 13.7071 1.95117 16.5509 1.95117C19.3947 1.95117 22.8953 2.78428 25.2585 4.45051C27.6216 6.11673 29.1837 8.42381 29.9527 11.3798H22.2064L22.2144 11.3878Z" fill="#727597"/>
<path d="M22.2706 11.4439C21.7499 10.4906 21.0049 9.75366 20.0356 9.24899C19.0663 8.74431 17.9288 8.48797 16.615 8.48797C14.348 8.48797 12.5296 9.23297 11.1678 10.723C9.80594 12.2129 9.11702 14.1996 9.11702 16.6829C9.11702 19.1662 9.82997 21.4012 11.2639 22.8912C12.6978 24.3812 14.6684 25.1262 17.1838 25.1262C19.6991 25.1262 20.356 24.6856 21.5496 23.8124C22.7352 22.9393 23.6084 21.6816 24.1531 20.0394H15.2612V14.8805H30.5056V21.3932C29.9849 23.1395 29.1037 24.7657 27.862 26.2717C26.6204 27.7777 25.0423 28.9873 23.1277 29.9166C21.2132 30.8458 19.0583 31.3104 16.6551 31.3104C14.2519 31.3104 11.2799 30.6856 9.05293 29.4439C6.82596 28.2023 5.09565 26.472 3.84598 24.261C2.59632 22.0501 1.97949 19.5187 1.97949 16.6829C1.97949 13.8471 2.59632 11.3077 3.84598 9.08076C5.08764 6.85379 6.81795 5.12348 9.0289 3.87381C11.2398 2.63216 13.7632 2.00732 16.607 2.00732C19.4508 2.00732 22.9515 2.84044 25.3146 4.50666C27.6778 6.17288 29.2399 8.47996 30.0089 11.4359H22.2626L22.2706 11.4439Z" fill="#727597"/>
<path d="M22.3266 11.4918C21.8059 10.5385 21.0609 9.80151 20.0916 9.29684C19.1223 8.79217 17.9848 8.53582 16.6711 8.53582C14.404 8.53582 12.5856 9.28082 11.2238 10.7708C9.86197 12.2608 9.17305 14.2474 9.17305 16.7308C9.17305 19.2141 9.886 21.4491 11.3199 22.939C12.7538 24.429 14.7245 25.174 17.2398 25.174C19.7552 25.174 20.412 24.7334 21.6056 23.8603C22.7912 22.9871 23.6644 21.7294 24.2091 20.0872H15.3172V14.9284H30.5616V21.441C30.0409 23.1874 29.1597 24.8135 27.9181 26.3196C26.6764 27.8256 25.0983 29.0352 23.1837 29.9644C21.2692 30.8937 19.1143 31.3583 16.7111 31.3583C14.3079 31.3583 11.3359 30.7334 9.10896 29.4918C6.88199 28.2501 5.15168 26.5198 3.90201 24.3089C2.65235 22.0979 2.03552 19.5665 2.03552 16.7308C2.03552 13.895 2.65235 11.3556 3.90201 9.12861C5.14367 6.90164 6.87398 5.17133 9.08493 3.92167C11.2959 2.68001 13.8192 2.05518 16.663 2.05518C19.5068 2.05518 23.0075 2.88829 25.3707 4.55451C27.7338 6.22073 29.2959 8.52781 30.0649 11.4838H22.3186L22.3266 11.4918Z" fill="#727597"/>
<path d="M22.3907 11.5479C21.87 10.5946 21.125 9.85766 20.1557 9.35299C19.1864 8.84832 18.0489 8.59198 16.7351 8.59198C14.4681 8.59198 12.6497 9.33697 11.2879 10.827C9.92605 12.3169 9.23713 14.3036 9.23713 16.7869C9.23713 19.2702 9.95008 21.5052 11.384 22.9952C12.8179 24.4852 14.7885 25.2302 17.3039 25.2302C19.8193 25.2302 20.4761 24.7896 21.6697 23.9164C22.8553 23.0433 23.7285 21.7856 24.2732 20.1434H15.3813V14.9845H30.6257V21.4972C30.105 23.2435 29.2238 24.8697 27.9821 26.3757C26.7405 27.8817 25.1624 29.0913 23.2478 30.0206C21.3333 30.9498 19.1784 31.4144 16.7752 31.4144C14.372 31.4144 11.4 30.7896 9.17305 29.5479C6.94608 28.3063 5.21577 26.576 3.9661 24.365C2.71643 22.1541 2.09961 19.6227 2.09961 16.7869C2.09961 13.9511 2.71643 11.4117 3.9661 9.18477C5.20776 6.9578 6.93807 5.22749 9.14902 3.97782C11.36 2.73616 13.8833 2.11133 16.7271 2.11133C19.5709 2.11133 23.0716 2.94444 25.4347 4.61066C27.7979 6.27689 29.36 8.58396 30.129 11.5399H22.3827L22.3907 11.5479Z" fill="#727597"/>
<path d="M22.4468 11.6041C21.9261 10.6508 21.1811 9.91382 20.2119 9.40914C19.2426 8.90447 18.105 8.64813 16.7913 8.64813C14.5243 8.64813 12.7058 9.39312 11.344 10.8831C9.9822 12.3731 9.29329 14.3598 9.29329 16.8431C9.29329 19.3264 10.0062 21.5614 11.4401 23.0513C12.8741 24.5413 14.8447 25.2863 17.3601 25.2863C19.8754 25.2863 20.5323 24.8457 21.7259 23.9726C22.9115 23.0994 23.7846 21.8417 24.3294 20.1995H15.4375V15.0407H30.6818V21.5533C30.1611 23.2997 29.28 24.9258 28.0383 26.4319C26.7966 27.9379 25.2185 29.1475 23.304 30.0767C21.3894 31.006 19.2346 31.4706 16.8313 31.4706C14.4281 31.4706 11.4562 30.8457 9.2292 29.6041C7.00223 28.3624 5.27192 26.6321 4.02225 24.4212C2.77258 22.2102 2.15576 19.6788 2.15576 16.8431C2.15576 14.0073 2.77258 11.4679 4.02225 9.24092C5.26391 7.01395 6.99422 5.28364 9.20517 4.03397C11.4161 2.79231 13.9395 2.16748 16.7833 2.16748C19.6271 2.16748 23.1277 3.00059 25.4909 4.66682C27.8541 6.33304 29.4161 8.64012 30.1852 11.5961H22.4388L22.4468 11.6041Z" fill="#727597"/>
<path d="M22.5108 11.6519C21.9901 10.6987 21.2451 9.96167 20.2758 9.457C19.3065 8.95232 18.169 8.69598 16.8553 8.69598C14.5882 8.69598 12.7698 9.44097 11.408 10.931C10.0462 12.421 9.35725 14.4076 9.35725 16.8909C9.35725 19.3742 10.0702 21.6092 11.5041 23.0992C12.938 24.5892 14.9087 25.3342 17.424 25.3342C19.9394 25.3342 20.5962 24.8936 21.7898 24.0204C22.9754 23.1473 23.8486 21.8896 24.3933 20.2474H15.5014V15.0885H30.7458V21.6012C30.2251 23.3475 29.3439 24.9737 28.1023 26.4797C26.8606 27.9857 25.2825 29.1953 23.3679 30.1246C21.4534 31.0538 19.2985 31.5184 16.8953 31.5184C14.4921 31.5184 11.5201 30.8936 9.29317 29.6519C7.06619 28.4103 5.33588 26.68 4.08622 24.469C2.83655 22.2581 2.21973 19.7267 2.21973 16.8909C2.21973 14.0551 2.83655 11.5157 4.08622 9.28877C5.32787 7.0618 7.05818 5.33149 9.26913 4.08182C11.4801 2.84017 14.0034 2.21533 16.8472 2.21533C19.691 2.21533 23.1917 3.04844 25.5549 4.71467C27.918 6.38089 29.4801 8.68797 30.2491 11.6439H22.5028L22.5108 11.6519Z" fill="#727597"/>
<path d="M22.567 11.7081C22.0463 10.7548 21.3013 10.0178 20.332 9.51315C19.3627 9.00847 18.2252 8.75213 16.9114 8.75213C14.6444 8.75213 12.826 9.49713 11.4641 10.9871C10.1023 12.4771 9.4134 14.4638 9.4134 16.9471C9.4134 19.4304 10.1264 21.6654 11.5603 23.1553C12.9942 24.6453 14.9648 25.3903 17.4802 25.3903C19.9955 25.3903 20.6524 24.9497 21.846 24.0766C23.0316 23.2034 23.9047 21.9457 24.4495 20.3035H15.5576V15.1447H30.8019V21.6574C30.2812 23.4037 29.4001 25.0299 28.1584 26.5359C26.9168 28.0419 25.3387 29.2515 23.4241 30.1807C21.5095 31.11 19.3547 31.5746 16.9515 31.5746C14.5483 31.5746 11.5763 30.9498 9.34932 29.7081C7.12235 28.4664 5.39204 26.7361 4.14237 24.5252C2.8927 22.3142 2.27588 19.7829 2.27588 16.9471C2.27588 14.1113 2.8927 11.5719 4.14237 9.34492C5.38403 7.11795 7.11434 5.38764 9.32529 4.13797C11.5362 2.89632 14.0596 2.27148 16.9034 2.27148C19.7472 2.27148 23.2479 3.1046 25.611 4.77082C27.9742 6.43704 29.5363 8.74412 30.3053 11.7001H22.5589L22.567 11.7081Z" fill="#727597"/>
<path d="M22.623 11.7642C22.1023 10.811 21.3573 10.074 20.388 9.5693C19.4187 9.06463 18.2812 8.80828 16.9674 8.80828C14.7004 8.80828 12.882 9.55328 11.5202 11.0433C10.1584 12.5333 9.46943 14.5199 9.46943 17.0032C9.46943 19.4865 10.1824 21.7215 11.6163 23.2115C13.0502 24.7015 15.0208 25.4465 17.5362 25.4465C20.0516 25.4465 20.7084 25.0059 21.902 24.1327C23.0876 23.2596 23.9608 22.0019 24.5055 20.3597H15.6136V15.2008H30.858V21.7135C30.3373 23.4598 29.4561 25.086 28.2144 26.592C26.9728 28.098 25.3947 29.3076 23.4801 30.2369C21.5656 31.1661 19.4107 31.6307 17.0075 31.6307C14.6043 31.6307 11.6323 31.0059 9.40535 29.7642C7.17838 28.5226 5.44807 26.7923 4.1984 24.5813C2.95674 22.3704 2.33191 19.839 2.33191 17.0032C2.33191 14.1674 2.94873 11.628 4.1984 9.40107C5.44006 7.1741 7.17037 5.44379 9.38132 4.19413C11.5923 2.95247 14.1156 2.32764 16.9594 2.32764C19.8032 2.32764 23.3039 3.16075 25.667 4.82697C28.0302 6.49319 29.5923 8.80027 30.3613 11.7562H22.615L22.623 11.7642Z" fill="#727597"/>
<path d="M22.6871 11.8121C22.1664 10.8588 21.4214 10.1218 20.4521 9.61715C19.4828 9.11248 18.3453 8.85614 17.0315 8.85614C14.7645 8.85614 12.9461 9.60113 11.5843 11.0911C10.2224 12.5811 9.53352 14.5678 9.53352 17.0511C9.53352 19.5344 10.2465 21.7694 11.6804 23.2594C13.1143 24.7493 15.0849 25.4943 17.6003 25.4943C20.1156 25.4943 20.7725 25.0538 21.9661 24.1806C23.1517 23.3074 24.0249 22.0497 24.5696 20.4076H15.6777V15.2487H30.9221V21.7614C30.4014 23.5077 29.5202 25.1339 28.2785 26.6399C27.0369 28.1459 25.4588 29.3555 23.5442 30.2847C21.6297 31.214 19.4748 31.6786 17.0716 31.6786C14.6684 31.6786 11.6964 31.0538 9.46943 29.8121C7.24246 28.5704 5.51215 26.8401 4.26249 24.6292C3.01282 22.4182 2.396 19.8869 2.396 17.0511C2.396 14.2153 3.01282 11.6759 4.26249 9.44893C5.50414 7.22196 7.23445 5.49165 9.4454 4.24198C11.6564 3.00032 14.1797 2.37549 17.0235 2.37549C19.8673 2.37549 23.368 3.2086 25.7311 4.87482C28.0943 6.54105 29.6564 8.84812 30.4254 11.8041H22.6791L22.6871 11.8121Z" fill="#727597"/>
<path d="M22.7432 11.8682C22.2225 10.915 21.4775 10.178 20.5082 9.6733C19.5389 9.16863 18.4014 8.91229 17.0877 8.91229C14.8207 8.91229 13.0022 9.65728 11.6404 11.1473C10.2786 12.6373 9.58967 14.6239 9.58967 17.1072C9.58967 19.5905 10.3026 21.8255 11.7365 23.3155C13.1705 24.8055 15.1411 25.5505 17.6564 25.5505C20.1718 25.5505 20.8287 25.1099 22.0223 24.2367C23.2078 23.3636 24.081 22.1059 24.6257 20.4637H15.7339V15.3048H30.9782V21.8175C30.4575 23.5638 29.5763 25.19 28.3347 26.696C27.093 28.202 25.5149 29.4116 23.6004 30.3409C21.6858 31.2701 19.5309 31.7347 17.1277 31.7347C14.7245 31.7347 11.7526 31.1099 9.52559 29.8683C7.29862 28.6266 5.56831 26.8963 4.31864 24.6853C3.06897 22.4744 2.45215 19.943 2.45215 17.1072C2.45215 14.2714 3.06897 11.7321 4.31864 9.50508C5.5603 7.27811 7.2906 5.5478 9.50155 4.29813C11.7125 3.05647 14.2359 2.43164 17.0797 2.43164C19.9235 2.43164 23.4241 3.26475 25.7873 4.93098C28.1504 6.5972 29.7125 8.90428 30.4815 11.8602H22.7352L22.7432 11.8682Z" fill="#727597"/>
<path d="M22.7993 11.9244C22.2786 10.9711 21.5336 10.2341 20.5643 9.72946C19.595 9.22478 18.4575 8.96844 17.1437 8.96844C14.8767 8.96844 13.0583 9.71343 11.6964 11.2034C10.3346 12.6934 9.6457 14.6801 9.6457 17.1634C9.6457 19.6467 10.3587 21.8817 11.7926 23.3717C13.2265 24.8616 15.1971 25.6066 17.7125 25.6066C20.2278 25.6066 20.8847 25.1661 22.0783 24.2929C23.2639 23.4197 24.137 22.162 24.6818 20.5199H15.7899V15.361H31.0342V21.8737C30.5135 23.62 29.6324 25.2462 28.3907 26.7522C27.1491 28.2582 25.571 29.4678 23.6564 30.397C21.7418 31.3263 19.587 31.7909 17.1838 31.7909C14.7806 31.7909 11.8086 31.1661 9.58162 29.9244C7.35465 28.6827 5.62434 26.9524 4.37467 24.7415C3.125 22.5305 2.50818 19.9992 2.50818 17.1634C2.50818 14.3276 3.125 11.7882 4.37467 9.56123C5.61633 7.33426 7.34663 5.60395 9.55759 4.35428C11.7685 3.11263 14.2919 2.48779 17.1357 2.48779C19.9795 2.48779 23.4802 3.3209 25.8433 4.98713C28.2065 6.65335 29.7686 8.96043 30.5376 11.9164H22.7912L22.7993 11.9244Z" fill="#727597"/>
<path d="M22.8633 11.9722C22.3426 11.019 21.5977 10.282 20.6284 9.77731C19.6591 9.27263 18.5215 9.01629 17.2078 9.01629C14.9408 9.01629 13.1223 9.76129 11.7605 11.2513C10.3987 12.7413 9.70979 14.7279 9.70979 17.2112C9.70979 19.6945 10.4227 21.9295 11.8567 23.4195C13.2906 24.9095 15.2612 25.6545 17.7766 25.6545C20.2919 25.6545 20.9488 25.2139 22.1424 24.3407C23.328 23.4676 24.2011 22.2099 24.7459 20.5677H15.854V15.4088H31.0983V21.9215C30.5776 23.6678 29.6965 25.294 28.4548 26.8C27.2131 28.306 25.635 29.5156 23.7205 30.4449C21.8059 31.3741 19.6511 31.8387 17.2478 31.8387C14.8446 31.8387 11.8727 31.2139 9.6457 29.9723C7.41873 28.7306 5.68842 27.0003 4.43876 24.7893C3.18909 22.5784 2.57227 20.047 2.57227 17.2112C2.57227 14.3754 3.18909 11.8361 4.43876 9.60908C5.68041 7.38211 7.41072 5.6518 9.62167 4.40214C11.8326 3.16048 14.356 2.53564 17.1998 2.53564C20.0436 2.53564 23.5442 3.36876 25.9074 5.03498C28.2706 6.7012 29.8326 9.00828 30.6017 11.9642H22.8553L22.8633 11.9722Z" fill="#727597"/>
<path d="M22.9194 12.0284C22.3987 11.0751 21.6537 10.3381 20.6844 9.83346C19.7151 9.32879 18.5776 9.07244 17.2638 9.07244C14.9968 9.07244 13.1784 9.81744 11.8166 11.3074C10.4547 12.7974 9.76582 14.7841 9.76582 17.2674C9.76582 19.7507 10.4788 21.9857 11.9127 23.4757C13.3466 24.9657 15.3172 25.7106 17.8326 25.7106C20.3479 25.7106 21.0048 25.2701 22.1984 24.3969C23.384 23.5237 24.2572 22.266 24.8019 20.6239H15.91V15.465H31.1544V21.9777C30.6337 23.724 29.7525 25.3502 28.5108 26.8562C27.2692 28.3622 25.6911 29.5718 23.7765 30.501C21.862 31.4303 19.7071 31.8949 17.3039 31.8949C14.9007 31.8949 11.9287 31.2701 9.70173 30.0284C7.47476 28.7868 5.74445 27.0564 4.49479 24.8455C3.24512 22.6345 2.6283 20.1032 2.6283 17.2674C2.6283 14.4316 3.24512 11.8922 4.49479 9.66524C5.73644 7.43826 7.46675 5.70795 9.6777 4.45829C11.8887 3.21663 14.412 2.5918 17.2558 2.5918C20.0996 2.5918 23.6003 3.42491 25.9634 5.09113C28.3266 6.75736 29.8887 9.06443 30.6577 12.0204H22.9114L22.9194 12.0284Z" fill="#727597"/>
<path d="M22.9835 12.0845C22.4628 11.1313 21.7178 10.3943 20.7485 9.88961C19.7792 9.38494 18.6417 9.1286 17.3279 9.1286C15.0609 9.1286 13.2425 9.87359 11.8806 11.3636C10.5188 12.8536 9.82991 14.8402 9.82991 17.3235C9.82991 19.8068 10.5429 22.0418 11.9768 23.5318C13.4107 25.0218 15.3813 25.7668 17.8967 25.7668C20.412 25.7668 21.0689 25.3262 22.2625 24.453C23.4481 23.5799 24.3212 22.3222 24.866 20.68H15.9741V15.5211H31.2184V22.0338C30.6978 23.7801 29.8166 25.4063 28.5749 26.9123C27.3333 28.4183 25.7552 29.6279 23.8406 30.5572C21.926 31.4864 19.7712 31.9511 17.368 31.9511C14.9648 31.9511 11.9928 31.3262 9.76582 30.0846C7.53885 28.8429 5.80854 27.1126 4.55887 24.9016C3.30921 22.6907 2.69238 20.1593 2.69238 17.3235C2.69238 14.4877 3.30921 11.9484 4.55887 9.72139C5.80053 7.49442 7.53084 5.76411 9.74179 4.51444C11.9527 3.27278 14.4761 2.64795 17.3199 2.64795C20.1637 2.64795 23.6644 3.48106 26.0275 5.14728C28.3907 6.81351 29.9528 9.12059 30.7218 12.0765H22.9754L22.9835 12.0845Z" fill="#727597"/>
<path d="M23.0396 12.1324C22.5189 11.1791 21.7739 10.4421 20.8046 9.93746C19.8353 9.43279 18.6978 9.17645 17.3841 9.17645C15.117 9.17645 13.2986 9.92144 11.9368 11.4114C10.575 12.9014 9.88606 14.8881 9.88606 17.3714C9.88606 19.8547 10.599 22.0897 12.0329 23.5797C13.4668 25.0697 15.4375 25.8147 17.9528 25.8147C20.4682 25.8147 21.1251 25.3741 22.3186 24.5009C23.5042 23.6277 24.3774 22.3701 24.9221 20.7279H16.0303V15.569H31.2746V22.0817C30.7539 23.828 29.8727 25.4542 28.6311 26.9602C27.3894 28.4662 25.8113 29.6758 23.8968 30.605C21.9822 31.5343 19.8273 31.9989 17.4241 31.9989C15.0209 31.9989 12.0489 31.3741 9.82197 30.1324C7.595 28.8908 5.86469 27.1604 4.61503 24.9495C3.36536 22.7385 2.74854 20.2072 2.74854 17.3714C2.74854 14.5356 3.36536 11.9962 4.61503 9.76924C5.85668 7.54227 7.58699 5.81196 9.79794 4.56229C12.0089 3.32063 14.5323 2.6958 17.3761 2.6958C20.2198 2.6958 23.7205 3.52891 26.0837 5.19514C28.4468 6.86136 30.0089 9.16844 30.7779 12.1244H23.0316L23.0396 12.1324Z" fill="#727597"/>
<path d="M23.0956 12.1885C22.5749 11.2353 21.83 10.4983 20.8607 9.99362C19.8914 9.48894 18.7538 9.2326 17.4401 9.2326C15.1731 9.2326 13.3546 9.97759 11.9928 11.4676C10.631 12.9576 9.94209 14.9442 9.94209 17.4275C9.94209 19.9108 10.655 22.1458 12.089 23.6358C13.5229 25.1258 15.4935 25.8708 18.0089 25.8708C20.5242 25.8708 21.1811 25.4302 22.3747 24.557C23.5603 23.6839 24.4334 22.4262 24.9782 20.784H16.0863V15.6251H31.3306V22.1378C30.8099 23.8842 29.9288 25.5103 28.6871 27.0163C27.4454 28.5223 25.8673 29.732 23.9528 30.6612C22.0382 31.5904 19.8834 32.0551 17.4801 32.0551C15.0769 32.0551 12.105 31.4302 9.878 30.1886C7.65103 28.9469 5.92072 27.2166 4.67106 25.0056C3.42139 22.7947 2.80457 20.2633 2.80457 17.4275C2.80457 14.5918 3.42139 12.0524 4.67106 9.82539C5.91271 7.59842 7.64302 5.86811 9.85397 4.61844C12.0649 3.37679 14.5883 2.75195 17.4321 2.75195C20.2759 2.75195 23.7766 3.58506 26.1397 5.25129C28.5029 6.91751 30.0649 9.22459 30.834 12.1805H23.0876L23.0956 12.1885Z" fill="#727597"/>
<path d="M23.1597 12.2447C22.639 11.2914 21.894 10.5544 20.9247 10.0498C19.9555 9.5451 18.8179 9.28875 17.5042 9.28875C15.2372 9.28875 13.4187 10.0337 12.0569 11.5237C10.6951 13.0137 10.0062 15.0004 10.0062 17.4837C10.0062 19.967 10.7191 22.202 12.153 23.692C13.587 25.182 15.5576 25.927 18.0729 25.927C20.5883 25.927 21.2452 25.4864 22.4388 24.6132C23.6243 23.74 24.4975 22.4824 25.0422 20.8402H16.1504V15.6813H31.3947V22.194C30.874 23.9403 29.9928 25.5665 28.7512 27.0725C27.5095 28.5785 25.9314 29.7881 24.0169 30.7173C22.1023 31.6466 19.9474 32.1112 17.5442 32.1112C15.141 32.1112 12.1691 31.4864 9.94209 30.2447C7.71512 29.0031 5.98481 27.2728 4.73514 25.0618C3.48548 22.8509 2.86865 20.3195 2.86865 17.4837C2.86865 14.6479 3.48548 12.1085 4.73514 9.88154C5.9768 7.65457 7.70711 5.92426 9.91806 4.6746C12.129 3.43294 14.6524 2.80811 17.4962 2.80811C20.34 2.80811 23.8406 3.64122 26.2038 5.30744C28.5669 6.97366 30.129 9.28074 30.8981 12.2367H23.1517L23.1597 12.2447Z" fill="#727597"/>
<path d="M23.2158 12.293C22.6951 11.3398 21.9501 10.6028 20.9808 10.0981C20.0115 9.59344 18.874 9.33709 17.5602 9.33709C15.2932 9.33709 13.4748 10.0821 12.1129 11.5721C10.7511 13.0621 10.0622 15.0487 10.0622 17.532C10.0622 20.0153 10.7752 22.2503 12.2091 23.7403C13.643 25.2303 15.6136 25.9753 18.129 25.9753C20.6443 25.9753 21.3012 25.5347 22.4948 24.6615C23.6804 23.7884 24.5535 22.5307 25.0983 20.8885H16.2064V15.7296H31.4507V22.2423C30.9301 23.9886 30.0489 25.6148 28.8072 27.1208C27.5656 28.6268 25.9875 29.8364 24.0729 30.7657C22.1583 31.6949 20.0035 32.1595 17.6003 32.1595C15.1971 32.1595 12.2251 31.5347 9.99812 30.2931C7.77115 29.0514 6.04084 27.3211 4.79117 25.1101C3.54151 22.8992 2.92468 20.3678 2.92468 17.532C2.92468 14.6962 3.54151 12.1569 4.79117 9.92988C6.03283 7.70291 7.76314 5.9726 9.97409 4.72294C12.185 3.48128 14.7084 2.85645 17.5522 2.85645C20.396 2.85645 23.8967 3.68956 26.2598 5.35578C28.623 7.022 30.1851 9.32908 30.9541 12.285H23.2077L23.2158 12.293Z" fill="#727597"/>
<path d="M23.2719 12.3487C22.7512 11.3954 22.0062 10.6584 21.0369 10.1538C20.0676 9.6491 18.9301 9.39276 17.6164 9.39276C15.3493 9.39276 13.5309 10.1378 12.1691 11.6277C10.8073 13.1177 10.1184 15.1044 10.1184 17.5877C10.1184 20.071 10.8313 22.306 12.2652 23.796C13.6991 25.286 15.6698 26.031 18.1851 26.031C20.7005 26.031 21.3574 25.5904 22.5509 24.7172C23.7365 23.844 24.6097 22.5864 25.1544 20.9442H16.2626V15.7853H31.5069V22.298C30.9862 24.0443 30.105 25.6705 28.8634 27.1765C27.6217 28.6825 26.0436 29.8921 24.1291 30.8213C22.2145 31.7506 20.0596 32.2152 17.6564 32.2152C15.2532 32.2152 12.2812 31.5904 10.0543 30.3487C7.8273 29.1071 6.09699 27.3768 4.84733 25.1658C3.59766 22.9549 2.98083 20.4235 2.98083 17.5877C2.98083 14.7519 3.59766 12.2125 4.84733 9.98555C6.08898 7.75858 7.81929 6.02827 10.0302 4.7786C12.2412 3.53694 14.7646 2.91211 17.6084 2.91211C20.4521 2.91211 23.9528 3.74522 26.316 5.41144C28.6791 7.07767 30.2412 9.38475 31.0102 12.3407H23.2639L23.2719 12.3487Z" fill="#727597"/>
<path d="M23.336 12.4049C22.8153 11.4516 22.0703 10.7146 21.101 10.2099C20.1317 9.70525 18.9942 9.44891 17.6805 9.44891C15.4134 9.44891 13.595 10.1939 12.2332 11.6839C10.8714 13.1739 10.1824 15.1605 10.1824 17.6438C10.1824 20.1272 10.8954 22.3621 12.3293 23.8521C13.7632 25.3421 15.7339 26.0871 18.2492 26.0871C20.7646 26.0871 21.4214 25.6465 22.615 24.7734C23.8006 23.9002 24.6738 22.6425 25.2185 21.0003H16.3266V15.8414H31.571V22.3541C31.0503 24.1005 30.1691 25.7266 28.9275 27.2326C27.6858 28.7386 26.1077 29.9483 24.1931 30.8775C22.2786 31.8067 20.1237 32.2714 17.7205 32.2714C15.3173 32.2714 12.3453 31.6465 10.1184 30.4049C7.89139 29.1632 6.16108 27.4329 4.91141 25.222C3.66175 23.011 3.04492 20.4796 3.04492 17.6438C3.04492 14.8081 3.66175 12.2687 4.91141 10.0417C6.15307 7.81473 7.88338 6.08442 10.0943 4.83475C12.3053 3.5931 14.8286 2.96826 17.6724 2.96826C20.5162 2.96826 24.0169 3.80137 26.3801 5.4676C28.7432 7.13382 30.3053 9.4409 31.0743 12.3968H23.328L23.336 12.4049Z" fill="#727597"/>
<path d="M20.9328 10.162C20.4122 9.20871 19.6672 8.47172 18.6979 7.96705C17.7286 7.46238 16.5911 7.20603 15.2773 7.20603C13.0103 7.20603 11.1918 7.95103 9.83003 9.44102C8.46821 10.931 7.77929 12.9177 7.77929 15.401C7.77929 17.8843 8.49225 20.1193 9.92616 21.6093C11.3601 23.0992 13.3307 23.8442 15.8461 23.8442C18.3614 23.8442 19.0183 23.4036 20.2119 22.5305C21.3975 21.6573 22.2706 20.3996 22.8154 18.7574H13.9235V13.5986H29.1678V20.1113C28.6471 21.8576 27.766 23.4838 26.5243 24.9898C25.2826 26.4958 23.7045 27.7054 21.79 28.6346C19.8754 29.5639 17.7206 30.0285 15.3174 30.0285C12.9141 30.0285 9.94218 29.4037 7.71521 28.162C5.48824 26.9203 3.75793 25.19 2.50826 22.9791C1.2666 20.7681 0.64978 18.2448 0.64978 15.401C0.64978 12.5572 1.2666 10.0258 2.51627 7.79883C3.75793 5.57185 5.48824 3.84155 7.69919 2.59188C9.91014 1.35823 12.4335 0.733398 15.2773 0.733398C18.1211 0.733398 21.6218 1.56651 23.9849 3.23273C26.3481 4.89896 27.9102 7.20603 28.6792 10.162H20.9328Z" fill="#FA8A5B"/>
</g>
<defs>
<clipPath id="clip0_5779_2861">
<rect width="31" height="31.5371" fill="white" transform="translate(0.579224 0.731445)"/>
</clipPath>
</defs>
</svg>
