<svg aria-hidden="true" style="position:absolute;width:0;height:0;overflow:hidden" xmlns="http://www.w3.org/2000/svg">
  <defs>
    <symbol id="icon-star" viewBox="0 0 32 32">
      <path d="M14.584 1.75a1.509 1.509 0 0 1 2.832 0l3.091 7.775c.221.555.72.935 1.293.983l8.024.673c1.36.114 1.911 1.889.875 2.817l-6.114 5.478a1.646 1.646 0 0 0-.494 1.59l1.868 8.191c.317 1.388-1.127 2.485-2.291 1.741l-6.87-4.389a1.475 1.475 0 0 0-1.599 0l-6.87 4.389c-1.164.744-2.607-.353-2.291-1.741l1.868-8.191a1.648 1.648 0 0 0-.494-1.59l-6.114-5.478c-1.036-.928-.485-2.703.875-2.817l8.024-.673a1.542 1.542 0 0 0 1.293-.983l3.092-7.775z"/>
    </symbol>
    <symbol id="icon-github" viewBox="0 0 32 32">
      <path d="M15.967 2.921C8.915 2.921 3.2 8.636 3.2 15.688c0 5.64 3.657 10.426 8.731 12.115.639.115.869-.278.869-.616 0-.303-.01-1.107-.014-2.171-3.552.771-4.302-1.713-4.302-1.713-.579-1.475-1.417-1.868-1.417-1.868-1.158-.792.088-.774.088-.774 1.283.09 1.955 1.316 1.955 1.316 1.139 1.951 2.99 1.388 3.715 1.061.116-.826.449-1.389.813-1.708-2.834-.321-5.814-1.417-5.814-6.31 0-1.391.498-2.533 1.311-3.424-.129-.324-.571-1.623.127-3.379 0 0 1.071-.344 3.51 1.307a12.27 12.27 0 0 1 3.195-.43c1.079.002 2.154.146 3.195.43 2.44-1.652 3.51-1.307 3.51-1.307.698 1.756.26 3.055.127 3.379.819.891 1.311 2.031 1.311 3.424 0 4.906-2.982 5.984-5.827 6.3.454.394.864 1.172.864 2.363 0 1.708-.015 3.085-.015 3.503 0 .342.228.739.879.613 5.071-1.692 8.724-6.474 8.724-12.113 0-7.051-5.715-12.767-12.767-12.767z"/>
    </symbol>
    <symbol id="icon-linkedin" viewBox="0 0 32 32">
      <path d="M29 0H3C1.35 0 0 1.35 0 3v26c0 1.65 1.35 3 3 3h26c1.65 0 3-1.35 3-3V3c0-1.65-1.35-3-3-3zM12 26H8V12h4v14zm-2-16c-1.106 0-2-.894-2-2s.894-2 2-2c1.106 0 2 .894 2 2s-.894 2-2 2zm16 16h-4v-8c0-1.106-.894-2-2-2s-2 .894-2 2v8h-4V12h4v2.481C18.825 13.35 20.087 12 21.5 12c2.488 0 4.5 2.238 4.5 5v9z"/>
    </symbol>
    <symbol id="icon-twitter" viewBox="0 0 32 32">
      <path d="M22.625 5.481h3.533l-7.719 8.675 9.08 11.805h-7.11l-5.569-7.16-6.372 7.16H4.933l8.256-9.279L4.478 5.481h7.29l5.034 6.544 5.822-6.544zm-1.24 18.4h1.958L10.706 7.451H8.605l12.78 16.43z"/>
    </symbol>
    <symbol id="icon-arrow-next" viewBox="0 0 33 32">
      <path d="M4.333 16.667c0 .368.298.667.667.667h17.172c.594 0 .891.718.471 1.138l-5.448 5.448a.668.668 0 0 0 0 .943l.943.943c.26.26.682.26.943 0l9.333-9.333a.668.668 0 0 0 0-.943l-9.333-9.333a.668.668 0 0 0-.943 0l-.943.943a.668.668 0 0 0 0 .943l5.448 5.448a.666.666 0 0 1-.471 1.138H5a.667.667 0 0 0-.667.667v1.333z"/>
    </symbol>
    <symbol id="icon-arrow-back" viewBox="0 0 33 32">
      <path d="M28.333 15.333a.667.667 0 0 0-.667-.667H10.494a.666.666 0 0 1-.471-1.138l5.448-5.448a.668.668 0 0 0 0-.943l-.943-.942a.668.668 0 0 0-.943 0l-9.333 9.333a.668.668 0 0 0 0 .943l9.333 9.333c.26.26.682.26.943 0l.943-.943a.668.668 0 0 0 0-.943l-5.448-5.448a.666.666 0 0 1 .471-1.138h17.172a.667.667 0 0 0 .667-.667v-1.333z"/>
    </symbol>
    <symbol id="icon-support" viewBox="0 0 32 32">
      <path d="M16 2.667C8.648 2.667 2.667 8.648 2.667 16v5.524C2.667 22.889 3.863 24 5.334 24h1.333a1.335 1.335 0 0 0 1.334-1.334v-6.857a1.335 1.335 0 0 0-1.334-1.334H5.456C6.197 9.315 10.637 5.332 16 5.332s9.803 3.983 10.544 9.143h-1.211a1.335 1.335 0 0 0-1.334 1.334V24a2.67 2.67 0 0 1-2.667 2.667h-2.667v-1.333h-5.333v4h8a5.339 5.339 0 0 0 5.333-5.333c1.471 0 2.667-1.111 2.667-2.476v-5.524c0-7.352-5.981-13.333-13.333-13.333z"/>
    </symbol>
    <symbol id="icon-rocket" viewBox="0 0 32 32">
      <path d="M27.893 3.173a21.006 21.006 0 0 0-4.56-.507 11 11 0 0 0-8 2.747 947.454 947.454 0 0 0-4.253 4.28c-1.613-.173-5.44-.267-8 2.32a1.336 1.336 0 0 0 0 1.88l15.067 15.093a1.336 1.336 0 0 0 1.88 0c2.6-2.667 2.52-6.427 2.36-8l4.28-4.267c4.253-4.253 2.32-12.24 2.24-12.573a1.34 1.34 0 0 0-1.013-.973zM24.747 14.84 20 19.56a1.333 1.333 0 0 0-.36 1.2 9.081 9.081 0 0 1-.72 5.253L6.027 13.093a8.893 8.893 0 0 1 5.333-.667 1.333 1.333 0 0 0 1.16-.427s1.867-1.933 4.68-4.747a8.813 8.813 0 0 1 6.133-1.92 19.26 19.26 0 0 1 3.107.267c.32 1.907.827 6.72-1.693 9.24z"/>
      <path d="M20.973 13.733a2.667 2.667 0 1 0 0-5.334 2.667 2.667 0 0 0 0 5.334zM6.667 21.333C4 22.666 4 28 4 28a10.414 10.414 0 0 0 6.667-2.667l-4-4z"/>
    </symbol>
    <symbol id="icon-extension" viewBox="0 0 32 32">
      <path d="M25.333 13.333v-4a2.67 2.67 0 0 0-2.667-2.667h-4c0-2.205-1.795-4-4-4s-4 1.795-4 4h-4a2.67 2.67 0 0 0-2.667 2.667v5.175l.879.319c1.069.387 1.788 1.395 1.788 2.507s-.719 2.12-1.788 2.507l-.879.319v5.175a2.67 2.67 0 0 0 2.667 2.667h5.175l.319-.879c.387-1.069 1.395-1.788 2.507-1.788s2.12.719 2.507 1.788l.319.879h5.175a2.67 2.67 0 0 0 2.667-2.667v-4c2.205 0 4-1.795 4-4s-1.795-4-4-4zm0 5.334h-2.667l-.004 6.667h-3.393c-.948-1.627-2.696-2.667-4.603-2.667s-3.655 1.04-4.603 2.667H6.666v-3.397c1.627-.948 2.667-2.696 2.667-4.603s-1.04-3.655-2.667-4.603V9.334h6.667V6.667a1.335 1.335 0 0 1 2.277-.943c.25.251.391.589.391.943v2.667h6.667v6.667h2.667a1.335 1.335 0 0 1 .943 2.277c-.251.25-.589.391-.943.391z"/>
    </symbol>
    <symbol id="icon-pencil" viewBox="0 0 32 32">
      <path d="M5.333 28c.106.013.214.013.32 0l5.333-1.333a1.33 1.33 0 0 0 .627-.347L28 9.88a2.666 2.666 0 0 0 0-3.76L25.893 4a2.672 2.672 0 0 0-1.886-.782A2.672 2.672 0 0 0 22.12 4L5.733 20.387c-.172.174-.296.39-.36.627L4.04 26.347a1.345 1.345 0 0 0 .492 1.428c.144.106.308.183.482.225.106.013.214.013.32 0zM24 5.88 26.12 8 24 10.12 21.893 8 24 5.88zM7.88 22.013 20 9.88 22.12 12 9.987 24.133l-2.813.693.707-2.813z"/>
    </symbol>
    <symbol id="icon-list-check" viewBox="0 0 32 32">
      <path d="M5.333 9.333H20V12H5.333V9.333zm0 5.334H20v2.667H5.333v-2.667zm0 5.333h9.333v2.667H5.333V20zm20.399-3.611-5.733 5.721-1.723-1.721-1.885 1.887 3.608 3.605 7.616-7.604-1.883-1.888z"/>
    </symbol>
    <symbol id="icon-chat" viewBox="0 0 32 32">
      <path d="M6.667 24v5.021L15.036 24h6.297A2.67 2.67 0 0 0 24 21.333V10.666a2.67 2.67 0 0 0-2.667-2.667h-16a2.67 2.67 0 0 0-2.667 2.667v10.667A2.67 2.67 0 0 0 5.333 24h1.333zM5.333 10.667h16v10.667h-7.036l-4.964 2.979v-2.979h-4V10.667z"/>
      <path d="M26.667 2.667h-16A2.67 2.67 0 0 0 8 5.334h16a2.67 2.67 0 0 1 2.667 2.667v10.667a2.67 2.67 0 0 0 2.667-2.667V5.334a2.67 2.67 0 0 0-2.667-2.667z"/>
    </symbol>
    <symbol id="icon-search" viewBox="0 0 32 32">
      <path d="M13.333 24c2.367 0 4.665-.793 6.529-2.251l5.861 5.861 1.885-1.885-5.861-5.861a10.602 10.602 0 0 0 2.252-6.531c0-5.881-4.785-10.667-10.667-10.667S2.665 7.451 2.665 13.333C2.665 19.214 7.45 24 13.332 24zm0-18.667c4.412 0 8 3.588 8 8s-3.588 8-8 8-8-3.588-8-8 3.588-8 8-8z"/>
      <path d="M15.216 11.448c.505.507.784 1.176.784 1.885h2.667a5.317 5.317 0 0 0-1.565-3.771c-2.019-2.016-5.519-2.016-7.536 0l1.883 1.888c1.013-1.011 2.76-1.008 3.768-.003z"/>
    </symbol>
    <symbol id="icon-data" viewBox="0 0 32 32">
      <path d="M26.667 22.667V9.334c0-2.891-4.884-5.333-10.667-5.333S5.333 6.444 5.333 9.334v13.333C5.333 25.558 10.217 28 16 28s10.667-2.443 10.667-5.333zM16 6.667c4.921 0 7.908 2.009 8 2.659-.092.665-3.079 2.675-8 2.675S8.092 9.992 8 9.342c.092-.665 3.079-2.675 8-2.675zm-8 6.142c1.972 1.129 4.849 1.857 8 1.857s6.028-.728 8-1.857v3.183c-.092.665-3.079 2.675-8 2.675S8.092 16.658 8 16v-3.191zm0 9.858v-3.191c1.972 1.129 4.849 1.857 8 1.857s6.028-.728 8-1.857v3.183c-.092.665-3.079 2.675-8 2.675s-7.908-2.009-8-2.667z"/>
    </symbol>
    <symbol id="icon-code-block" viewBox="0 0 32 32">
      <path d="M26.667 4H5.334a2.67 2.67 0 0 0-2.667 2.667v18.667a2.67 2.67 0 0 0 2.667 2.667h21.333a2.67 2.67 0 0 0 2.667-2.667V6.667A2.67 2.67 0 0 0 26.667 4zM5.333 25.333v-16h21.333l.003 16H5.333z"/>
      <path d="m12.391 12.391-4.943 4.943 4.943 4.943 1.885-1.885-3.057-3.057 3.057-3.057-1.885-1.885zm7.218 0-1.885 1.885 3.057 3.057-3.057 3.057 1.885 1.885 4.943-4.943-4.943-4.943z"/>
    </symbol>
    <symbol id="icon-calendar" viewBox="0 0 32 32">
      <path d="M25.333 5.333h-2.667V2.666h-2.667v2.667h-8V2.666H9.332v2.667H6.665A2.67 2.67 0 0 0 3.998 8v18.667a2.67 2.67 0 0 0 2.667 2.667h18.667a2.67 2.67 0 0 0 2.667-2.667V8a2.67 2.67 0 0 0-2.667-2.667zm.003 21.334H6.667v-16h18.667l.003 16z"/>
      <path d="m14.667 23.219 7.609-7.609-1.885-1.885-5.724 5.724-3.057-3.057-1.885 1.885 4.943 4.943z"/>
    </symbol>
  </defs>
</svg>


