<svg width="93" height="24" viewBox="0 0 93 24" fill="none" xmlns="http://www.w3.org/2000/svg">
<g clip-path="url(#clip0_5780_359)">
<path d="M15.4491 7.1962C15.0538 6.47251 14.4883 5.91302 13.7524 5.5299C13.0166 5.14677 12.153 4.95216 11.1557 4.95216C9.43462 4.95216 8.05414 5.51773 7.02031 6.64887C5.98647 7.78001 5.46347 9.2882 5.46347 11.1734C5.46347 13.0587 6.00471 14.7554 7.09328 15.8865C8.18185 17.0177 9.67788 17.5832 11.5874 17.5832C13.497 17.5832 13.9957 17.2488 14.9018 16.5859C15.8018 15.923 16.4647 14.9682 16.8783 13.7215H10.1279V9.80512H21.7008V14.7493C21.3055 16.075 20.6366 17.3096 19.6939 18.4529C18.7513 19.5962 17.5533 20.5145 16.0998 21.2199C14.6464 21.9253 13.0105 22.2781 11.1861 22.2781C9.36165 22.2781 7.10545 21.8037 5.41482 20.8611C3.72419 19.9185 2.41061 18.6049 1.46191 16.9264C0.519293 15.248 0.0510254 13.3323 0.0510254 11.1734C0.0510254 9.01454 0.519293 7.09281 1.46799 5.40219C2.41061 3.71156 3.72419 2.39797 5.40266 1.44928C7.08112 0.51274 8.99676 0.0383911 11.1557 0.0383911C13.3146 0.0383911 15.9721 0.670857 17.7661 1.93579C19.5601 3.20072 20.746 4.95216 21.3298 7.1962H15.4491Z" fill="#727597"/>
<path d="M15.4916 7.23272C15.0963 6.50903 14.5307 5.94954 13.7949 5.56642C13.059 5.18329 12.1955 4.98868 11.1981 4.98868C9.4771 4.98868 8.09663 5.55425 7.06279 6.68539C6.02895 7.81653 5.50595 9.32472 5.50595 11.21C5.50595 13.0952 6.04719 14.7919 7.13576 15.923C8.22433 17.0542 9.72036 17.6197 11.6299 17.6197C13.5395 17.6197 14.0382 17.2853 14.9443 16.6224C15.8443 15.9595 16.5072 15.0047 16.9207 13.7581H10.1704V9.84164H21.7433V14.7858C21.348 16.1116 20.679 17.3461 19.7364 18.4894C18.7938 19.6327 17.5958 20.551 16.1423 21.2564C14.6889 21.9619 13.053 22.3146 11.2285 22.3146C9.40413 22.3146 7.14793 21.8402 5.4573 20.8976C3.76667 19.955 2.45309 18.6414 1.50439 16.963C0.567855 15.2906 0.0935059 13.3689 0.0935059 11.216C0.0935059 9.06322 0.561773 7.13542 1.51047 5.44479C2.45309 3.75416 3.76667 2.44058 5.44514 1.49188C7.1236 0.549261 9.04532 0.0809937 11.1981 0.0809937C13.351 0.0809937 16.0146 0.713459 17.8086 1.97839C19.6026 3.24332 20.7885 4.99476 21.3723 7.2388H15.4916V7.23272Z" fill="#727597"/>
<path d="M15.5403 7.27524C15.145 6.55155 14.5795 5.99206 13.8436 5.60894C13.1078 5.22581 12.2442 5.0312 11.2468 5.0312C9.52581 5.0312 8.14533 5.59677 7.11149 6.72791C6.07766 7.85905 5.55466 9.36724 5.55466 11.2525C5.55466 13.1377 6.0959 14.8344 7.18447 15.9656C8.27304 17.0967 9.76906 17.6623 11.6786 17.6623C13.5882 17.6623 14.0869 17.3278 14.993 16.6649C15.893 16.002 16.5559 15.0473 16.9694 13.8006H10.2191V9.88416H21.792V14.8283C21.3967 16.1541 20.7277 17.3886 19.7851 18.5319C18.8425 19.6752 17.6445 20.5935 16.191 21.2989C14.7376 22.0044 13.1017 22.3571 11.2773 22.3571C9.45283 22.3571 7.19663 21.8828 5.506 20.9401C3.81538 19.9975 2.50179 18.6839 1.5531 17.0055C0.61048 15.3331 0.142212 13.4114 0.142212 11.2525C0.142212 9.09358 0.610479 7.17185 1.55918 5.48123C2.50179 3.7906 3.81538 2.47701 5.49384 1.52832C7.17231 0.591781 9.08795 0.117432 11.2468 0.117432C13.4057 0.117432 16.0633 0.749897 17.8573 2.01483C19.6513 3.27976 20.8372 5.0312 21.421 7.27524H15.5403Z" fill="#727597"/>
<path d="M15.5829 7.31784C15.1876 6.59415 14.622 6.03467 13.8862 5.65154C13.1503 5.26841 12.2868 5.07381 11.2894 5.07381C9.56839 5.07381 8.18791 5.63938 7.15407 6.77052C6.12024 7.90166 5.59724 9.40984 5.59724 11.2951C5.59724 13.1803 6.13848 14.877 7.22705 16.0082C8.31562 17.1393 9.81164 17.7049 11.7212 17.7049C13.6308 17.7049 14.1294 17.3704 15.0356 16.7075C15.9356 16.0447 16.5985 15.0899 17.012 13.8432H10.2617V9.92676H21.8346V14.8709C21.4393 16.1967 20.7703 17.4312 19.8277 18.5745C18.8851 19.7178 17.6871 20.6361 16.2336 21.3415C14.7801 22.047 13.1442 22.3997 11.3198 22.3997C9.49541 22.3997 7.23921 21.9254 5.54858 20.9827C3.85796 20.0401 2.54437 18.7265 1.59568 17.0481C0.65306 15.3696 0.178711 13.4479 0.178711 11.2951C0.178711 9.14226 0.646978 7.21446 1.59568 5.52383C2.53829 3.8332 3.85188 2.51962 5.53034 1.57092C7.21489 0.634383 9.13053 0.160034 11.2894 0.160034C13.4483 0.160034 16.1059 0.7925 17.8999 2.05743C19.6939 3.32236 20.8798 5.0738 21.4636 7.31784H15.5829Z" fill="#727597"/>
<path d="M15.6255 7.3543C15.2302 6.63062 14.6646 6.07113 13.9288 5.688C13.1929 5.30487 12.3294 5.11027 11.332 5.11027C9.61099 5.11027 8.23051 5.67584 7.19668 6.80698C6.16284 7.93812 5.63984 9.4463 5.63984 11.3315C5.63984 13.2168 6.18108 14.9135 7.26965 16.0446C8.35822 17.1758 9.85425 17.7413 11.7638 17.7413C13.6734 17.7413 14.172 17.4069 15.0782 16.744C15.9782 16.0811 16.6411 15.1263 17.0546 13.8796H10.3043V9.96322H21.8772V14.9074C21.4819 16.2331 20.8129 17.4677 19.8703 18.611C18.9277 19.7543 17.7297 20.6726 16.2762 21.378C14.8227 22.0834 13.1869 22.4362 11.3624 22.4362C9.53801 22.4362 7.28182 21.9618 5.59119 21.0192C3.90056 20.0766 2.58698 18.763 1.63828 17.0845C0.695663 15.4061 0.221313 13.4844 0.221313 11.3315C0.221313 9.17872 0.689581 7.25092 1.63828 5.56029C2.5809 3.86966 3.89448 2.55608 5.57294 1.60738C7.25749 0.670843 9.17921 0.202576 11.3381 0.202576C13.497 0.202576 16.1546 0.835041 17.9486 2.09997C19.7426 3.3649 20.9285 5.11635 21.5123 7.36038H15.6316L15.6255 7.3543Z" fill="#727597"/>
<path d="M15.6741 7.39688C15.2788 6.6732 14.7132 6.11371 13.9774 5.73058C13.2415 5.34745 12.378 5.15285 11.3806 5.15285C9.6596 5.15285 8.27912 5.71842 7.24528 6.84956C6.21145 7.9807 5.68845 9.48888 5.68845 11.3741C5.68845 13.2594 6.22969 14.9561 7.31826 16.0872C8.40683 17.2183 9.90285 17.7839 11.8124 17.7839C13.722 17.7839 14.2206 17.4494 15.1268 16.7866C16.0268 16.1237 16.6897 15.1689 17.1032 13.9222H10.3529V10.0058H21.9258V14.95C21.5305 16.2757 20.8615 17.5103 19.9189 18.6536C18.9763 19.7969 17.7783 20.7151 16.3248 21.4206C14.8714 22.126 13.2355 22.4788 11.411 22.4788C9.58662 22.4788 7.33042 22.0044 5.63979 21.0618C3.94917 20.1192 2.63558 18.8056 1.68689 17.1271C0.738187 15.4487 0.276001 13.533 0.276001 11.3741C0.276001 9.21522 0.744269 7.2935 1.69297 5.60287C2.63558 3.91224 3.94917 2.59866 5.62763 1.64996C7.3061 0.713424 9.22174 0.239075 11.3806 0.239075C13.5395 0.239075 16.1971 0.87154 17.9911 2.13647C19.7851 3.4014 20.971 5.15285 21.5548 7.39688H15.6741Z" fill="#727597"/>
<path d="M15.7167 7.43946C15.3214 6.71578 14.7558 6.15629 14.02 5.77316C13.2841 5.39003 12.4206 5.19543 11.4232 5.19543C9.70218 5.19543 8.3217 5.761 7.28786 6.89214C6.25402 8.02328 5.73103 9.53146 5.73103 11.4167C5.73103 13.3019 6.27227 14.9986 7.36084 16.1298C8.44941 17.2609 9.94543 17.8265 11.855 17.8265C13.7646 17.8265 14.2632 17.492 15.1694 16.8291C16.0694 16.1663 16.7323 15.2115 17.1458 13.9648H10.3955V10.0484H21.9684V14.9926C21.5731 16.3183 20.9041 17.5528 19.9615 18.6961C19.0189 19.8394 17.8208 20.7577 16.3674 21.4632C14.9139 22.1686 13.278 22.5213 11.4536 22.5213C9.6292 22.5213 7.373 22.047 5.68237 21.1044C3.99175 20.1618 2.67816 18.8482 1.72947 17.1697C0.786849 15.4912 0.3125 13.5695 0.3125 11.4167C0.3125 9.26388 0.780768 7.33608 1.72947 5.64545C2.67208 3.95482 3.98566 2.64124 5.66413 1.69254C7.3426 0.749923 9.25823 0.275574 11.4171 0.275574C13.576 0.275574 16.2336 0.908039 18.0276 2.17297C19.8216 3.4379 21.0075 5.18934 21.5913 7.43338H15.7106L15.7167 7.43946Z" fill="#727597"/>
<path d="M15.7654 7.47593C15.3701 6.75224 14.8045 6.19276 14.0687 5.80963C13.3328 5.4265 12.4693 5.23189 11.4719 5.23189C9.75088 5.23189 8.37041 5.79746 7.33657 6.9286C6.30273 8.05974 5.77973 9.56793 5.77973 11.4532C5.77973 13.3384 6.32098 15.0351 7.40955 16.1663C8.49812 17.2974 9.99414 17.863 11.9037 17.863C13.8133 17.863 14.3119 17.5285 15.2181 16.8656C16.1181 16.2027 16.781 15.248 17.1945 14.0013H10.4442V10.0849H22.0171V15.029C21.6218 16.3548 20.9528 17.5893 20.0102 18.7326C19.0676 19.8759 17.8695 20.7942 16.4161 21.4996C14.9626 22.2051 13.3267 22.5578 11.5023 22.5578C9.67791 22.5578 7.42171 22.0835 5.73108 21.1408C4.04045 20.1982 2.72687 18.8846 1.77817 17.2062C0.835555 15.5277 0.361206 13.606 0.361206 11.4532C0.361206 9.30035 0.829474 7.37255 1.77817 5.68192C2.72079 3.99129 4.03437 2.67771 5.71284 1.72901C7.3913 0.786391 9.30694 0.312042 11.4658 0.312042C13.6247 0.312042 16.2823 0.944508 18.0763 2.20944C19.8703 3.47437 21.0562 5.22581 21.64 7.46985H15.7593L15.7654 7.47593Z" fill="#727597"/>
<path d="M15.8079 7.51853C15.4126 6.79485 14.847 6.23536 14.1112 5.85223C13.3753 5.4691 12.5118 5.2745 11.5144 5.2745C9.79339 5.2745 8.41291 5.84007 7.37907 6.97121C6.34523 8.10235 5.82223 9.61053 5.82223 11.4958C5.82223 13.381 6.36348 15.0777 7.45205 16.2089C8.54062 17.34 10.0366 17.9056 11.9462 17.9056C13.8558 17.9056 14.3544 17.5711 15.2606 16.9082C16.1606 16.2453 16.8235 15.2906 17.237 14.0439H10.4867V10.1275H22.0596V15.0716C21.6643 16.3974 20.9953 17.6319 20.0527 18.7752C19.1101 19.9185 17.9121 20.8368 16.4586 21.5422C15.0051 22.2477 13.3692 22.6004 11.5448 22.6004C9.72041 22.6004 7.46421 22.1261 5.77358 21.1834C4.08295 20.2408 2.76937 18.9272 1.82067 17.2488C0.871976 15.5703 0.40979 13.6547 0.40979 11.4958C0.40979 9.33687 0.878058 7.41515 1.82676 5.72452C2.76937 4.03389 4.08295 2.72031 5.76142 1.77161C7.43989 0.828994 9.35553 0.354645 11.5144 0.354645C13.6733 0.354645 16.3309 0.98711 18.1249 2.25204C19.9189 3.51697 21.1048 5.26842 21.6886 7.51245H15.8079V7.51853Z" fill="#727597"/>
<path d="M15.8505 7.56107C15.4552 6.83739 14.8896 6.2779 14.1538 5.89477C13.4179 5.51164 12.5544 5.31704 11.557 5.31704C9.83597 5.31704 8.45549 5.88261 7.42165 7.01375C6.38781 8.14489 5.86481 9.65308 5.86481 11.5383C5.86481 13.4235 6.40606 15.1203 7.49463 16.2514C8.5832 17.3825 10.0792 17.9481 11.9888 17.9481C13.8983 17.9481 14.397 17.6136 15.3031 16.9508C16.2032 16.2879 16.8661 15.3331 17.2796 14.0864H10.5292V10.17H22.1021V15.1142C21.7069 16.4399 21.0379 17.6744 20.0953 18.8177C19.1527 19.961 17.9546 20.8793 16.5012 21.5848C15.0477 22.2902 13.4118 22.6429 11.5874 22.6429C9.76299 22.6429 7.50679 22.1686 5.81616 21.226C4.12553 20.2834 2.81195 18.9698 1.86325 17.2913C0.920638 15.6128 0.446289 13.6911 0.446289 11.5383C0.446289 9.3855 0.914557 7.45769 1.86325 5.76706C2.80587 4.07643 4.11945 2.76285 5.79792 1.81415C7.47638 0.871536 9.39202 0.397186 11.5509 0.397186C13.7098 0.397186 16.3674 1.02965 18.1614 2.29458C19.9554 3.55951 21.1413 5.31096 21.7251 7.55499H15.8444L15.8505 7.56107Z" fill="#727597"/>
<path d="M15.8991 7.59757C15.5038 6.87389 14.9382 6.3144 14.2023 5.93127C13.4665 5.54814 12.6029 5.35354 11.6056 5.35354C9.88455 5.35354 8.50407 5.91911 7.47024 7.05025C6.4364 8.18139 5.9134 9.68957 5.9134 11.5748C5.9134 13.46 6.45464 15.1568 7.54321 16.2879C8.63178 17.419 10.1278 17.9846 12.0374 17.9846C13.9469 17.9846 14.4456 17.6501 15.3517 16.9873C16.2518 16.3244 16.9146 15.3696 17.3282 14.1229H10.5778V10.2065H22.1507V15.1507C21.7554 16.4764 21.0865 17.7109 20.1439 18.8542C19.2013 19.9975 18.0032 20.9158 16.5498 21.6213C15.0963 22.3267 13.4604 22.6794 11.636 22.6794C9.81157 22.6794 7.55538 22.2051 5.86475 21.2625C4.17412 20.3199 2.86054 19.0063 1.91184 17.3278C0.969222 15.6493 0.494873 13.7276 0.494873 11.5748C0.494873 9.42199 0.963141 7.49419 1.91184 5.80356C2.85446 4.11293 4.16804 2.79935 5.8465 1.85065C7.52497 0.908034 9.44061 0.433685 11.5995 0.433685C13.7584 0.433685 16.416 1.06615 18.21 2.33108C20.004 3.59601 21.1899 5.34746 21.7737 7.59149H15.893L15.8991 7.59757Z" fill="#727597"/>
<path d="M15.9417 7.64018C15.5464 6.91649 14.9808 6.357 14.2449 5.97387C13.5091 5.59074 12.6455 5.39614 11.6482 5.39614C9.92715 5.39614 8.54668 5.96171 7.51284 7.09285C6.479 8.22399 5.956 9.73218 5.956 11.6174C5.956 13.5026 6.49725 15.1994 7.58582 16.3305C8.67439 17.4616 10.1704 18.0272 12.08 18.0272C13.9895 18.0272 14.4882 17.6927 15.3943 17.0299C16.2944 16.367 16.9572 15.4122 17.3708 14.1655H10.6204V10.2491H22.1933V15.1933C21.798 16.519 21.1291 17.7535 20.1865 18.8968C19.2439 20.0401 18.0458 20.9584 16.5924 21.6639C15.1389 22.3693 13.503 22.722 11.6786 22.722C9.85418 22.722 7.59798 22.2477 5.90735 21.3051C4.21672 20.3625 2.90314 19.0489 1.95444 17.3704C1.01182 15.6919 0.537476 13.7702 0.537476 11.6174C0.537476 9.46459 1.00574 7.53679 1.95444 5.84616C2.89706 4.15553 4.21064 2.84195 5.88911 1.89325C7.56757 0.950637 9.48321 0.476288 11.6421 0.476288C13.801 0.476288 16.4586 1.10875 18.2526 2.37368C20.0466 3.63862 21.2325 5.39006 21.8163 7.63409H15.9356L15.9417 7.64018Z" fill="#727597"/>
<path d="M15.9843 7.68272C15.589 6.95903 15.0234 6.39954 14.2875 6.01641C13.5517 5.63329 12.6881 5.43868 11.6908 5.43868C9.96976 5.43868 8.58928 6.00425 7.55544 7.13539C6.5216 8.26653 5.9986 9.77472 5.9986 11.66C5.9986 13.5452 6.53985 15.2419 7.62842 16.373C8.71699 17.5042 10.213 18.0697 12.1226 18.0697C14.0321 18.0697 14.5308 17.7353 15.4369 17.0724C16.337 16.4095 16.9999 15.4547 17.4134 14.2081H10.663V10.2916H22.2359V15.2358C21.8406 16.5616 21.1717 17.7961 20.2291 18.9394C19.2865 20.0827 18.0884 21.001 16.635 21.7064C15.1815 22.4119 13.5456 22.7646 11.7212 22.7646C9.89678 22.7646 7.64058 22.2902 5.94995 21.3476C4.25932 20.405 2.94574 19.0914 1.99704 17.413C1.04835 15.7345 0.580078 13.8128 0.580078 11.66C0.580078 9.50714 1.04835 7.57933 1.99704 5.8887C2.93966 4.19808 4.25324 2.88449 5.93171 1.9358C7.61017 0.993179 9.52582 0.518829 11.6847 0.518829C13.8436 0.518829 16.5012 1.15129 18.2952 2.41623C20.0892 3.68116 21.2751 5.4326 21.8589 7.67664H15.9782L15.9843 7.68272Z" fill="#727597"/>
<path d="M16.0328 7.71922C15.6376 6.99553 15.072 6.43604 14.3361 6.05291C13.6003 5.66979 12.7367 5.47518 11.7394 5.47518C10.0183 5.47518 8.63786 6.04075 7.60402 7.17189C6.57019 8.30303 6.04719 9.81122 6.04719 11.6965C6.04719 13.5817 6.58843 15.2784 7.677 16.4095C8.76557 17.5407 10.2616 18.1062 12.1712 18.1062C14.0807 18.1062 14.5794 17.7718 15.4855 17.1089C16.3856 16.446 17.0484 15.4912 17.462 14.2446H10.7116V10.3281H22.2845V15.2723C21.8892 16.5981 21.2203 17.8326 20.2777 18.9759C19.335 20.1192 18.137 21.0375 16.6836 21.7429C15.2301 22.4484 13.5942 22.8011 11.7698 22.8011C9.94536 22.8011 7.68916 22.3267 5.99854 21.3841C4.30791 20.4415 2.99433 19.1279 2.04563 17.4495C1.10301 15.771 0.628662 13.8493 0.628662 11.6965C0.628662 9.54364 1.09693 7.61583 2.04563 5.9252C2.98824 4.23458 4.30183 2.92099 5.98029 1.97229C7.65876 1.02968 9.5744 0.555328 11.7333 0.555328C13.8922 0.555328 16.5498 1.18779 18.3438 2.45272C20.1378 3.71766 21.3237 5.4691 21.9075 7.71313H16.0268L16.0328 7.71922Z" fill="#727597"/>
<path d="M16.0754 7.76176C15.6802 7.03807 15.1146 6.47858 14.3787 6.09545C13.6429 5.71233 12.7793 5.51772 11.782 5.51772C10.0609 5.51772 8.68047 6.08329 7.64663 7.21443C6.61279 8.34557 6.08979 9.85376 6.08979 11.739C6.08979 13.6242 6.63103 15.3209 7.71961 16.4521C8.80818 17.5832 10.3042 18.1488 12.2138 18.1488C14.1233 18.1488 14.622 17.8143 15.5281 17.1514C16.4282 16.4886 17.091 15.5338 17.5046 14.2871H10.7542V10.3707H22.3271V15.3149C21.9318 16.6406 21.2629 17.8751 20.3203 19.0184C19.3776 20.1617 18.1796 21.08 16.7262 21.7855C15.2727 22.4909 13.6368 22.8436 11.8124 22.8436C9.98797 22.8436 7.73177 22.3693 6.04114 21.4267C4.35051 20.484 3.03693 19.1705 2.08823 17.492C1.14561 15.8135 0.671265 13.8918 0.671265 11.739C0.671265 9.58618 1.13953 7.65837 2.08823 5.96775C3.03085 4.27712 4.34443 2.96353 6.02289 2.01484C7.70136 1.07222 9.617 0.59787 11.7759 0.59787C13.9348 0.59787 16.5924 1.23034 18.3864 2.49527C20.1804 3.7602 21.3663 5.51164 21.9501 7.75568H16.0694L16.0754 7.76176Z" fill="#727597"/>
<path d="M16.1241 7.80436C15.7289 7.08067 15.1633 6.52119 14.4274 6.13806C13.6916 5.75493 12.828 5.56032 11.8307 5.56032C10.1096 5.56032 8.72917 6.12589 7.69533 7.25703C6.6615 8.38818 6.1385 9.89636 6.1385 11.7816C6.1385 13.6668 6.67974 15.3635 7.76831 16.4947C8.85688 17.6258 10.3529 18.1914 12.2625 18.1914C14.172 18.1914 14.6707 17.8569 15.5768 17.194C16.4769 16.5312 17.1397 15.5764 17.5533 14.3297H10.8029V10.4133H22.3758V15.3575C21.9805 16.6832 21.3116 17.9177 20.369 19.061C19.4263 20.2043 18.2283 21.1226 16.7749 21.8281C15.3214 22.5335 13.6855 22.8862 11.8611 22.8862C10.0367 22.8862 7.78047 22.4119 6.08984 21.4693C4.39922 20.5266 3.08563 19.2131 2.13694 17.5346C1.18824 15.8561 0.719971 13.9344 0.719971 11.7816C0.719971 9.62878 1.18824 7.70098 2.13694 6.01035C3.07955 4.31972 4.39313 3.00614 6.0716 2.05744C7.75007 1.11482 9.66571 0.640472 11.8246 0.640472C13.9835 0.640472 16.6411 1.27294 18.4351 2.53787C20.2291 3.8028 21.415 5.55424 21.9988 7.79828H16.1181L16.1241 7.80436Z" fill="#727597"/>
<path d="M16.1666 7.8408C15.7713 7.11711 15.2058 6.55762 14.4699 6.1745C13.7341 5.79137 12.8705 5.59676 11.8732 5.59676C10.1521 5.59676 8.77165 6.16233 7.73782 7.29347C6.70398 8.42461 6.18098 9.9328 6.18098 11.818C6.18098 13.7033 6.72222 15.4 7.81079 16.5311C8.89936 17.6623 10.3954 18.2278 12.3049 18.2278C14.2145 18.2278 14.7132 17.8934 15.6193 17.2305C16.5194 16.5676 17.1822 15.6128 17.5958 14.3661H10.8454V10.4497H22.4183V15.3939C22.023 16.7196 21.3541 17.9542 20.4114 19.0975C19.4688 20.2408 18.2708 21.1591 16.8173 21.8645C15.3639 22.5699 13.728 22.9227 11.9036 22.9227C10.0792 22.9227 7.82295 22.4483 6.13233 21.5057C4.4417 20.5631 3.12811 19.2495 2.17942 17.571C1.23072 15.8926 0.762451 13.9708 0.762451 11.818C0.762451 9.66522 1.23072 7.73741 2.17942 6.04679C3.12203 4.35616 4.43562 3.04257 6.11408 2.09388C7.79255 1.15126 9.70819 0.67691 11.8671 0.67691C14.026 0.67691 16.6836 1.30938 18.4776 2.57431C20.2716 3.83924 21.4574 5.59068 22.0413 7.83472H16.1606L16.1666 7.8408Z" fill="#727597"/>
<path d="M16.2092 7.8834C15.8139 7.15971 15.2484 6.60023 14.5125 6.2171C13.7767 5.83397 12.9131 5.63936 11.9158 5.63936C10.1947 5.63936 8.81425 6.20494 7.78042 7.33608C6.74658 8.46722 6.22358 9.9754 6.22358 11.8606C6.22358 13.7459 6.76482 15.4426 7.85339 16.5737C8.94196 17.7049 10.438 18.2704 12.3475 18.2704C14.2571 18.2704 14.7558 17.936 15.6619 17.2731C16.562 16.6102 17.2248 15.6554 17.6384 14.4087H10.888V10.4923H22.4609V15.4365C22.0656 16.7622 21.3967 17.9968 20.4541 19.1401C19.5114 20.2834 18.3134 21.2017 16.8599 21.9071C15.4065 22.6125 13.7706 22.9653 11.9462 22.9653C10.1218 22.9653 7.86556 22.4909 6.17493 21.5483C4.4843 20.6057 3.17072 19.2921 2.22202 17.6136C1.2794 15.9352 0.805054 14.0135 0.805054 11.8606C0.805054 9.70782 1.27332 7.78002 2.22202 6.08939C3.16464 4.39876 4.47822 3.08518 6.15668 2.13648C7.83515 1.19386 9.75079 0.719513 11.9097 0.719513C14.0686 0.719513 16.7262 1.35198 18.5202 2.61691C20.3142 3.88184 21.5 5.63328 22.0839 7.87732H16.2032L16.2092 7.8834Z" fill="#727597"/>
<path d="M16.2579 7.92594C15.8627 7.20226 15.2971 6.64277 14.5612 6.25964C13.8254 5.87651 12.9618 5.68191 11.9645 5.68191C10.2434 5.68191 8.86296 6.24748 7.82912 7.37862C6.79529 8.50976 6.27229 10.0179 6.27229 11.9032C6.27229 13.7884 6.81353 15.4851 7.9021 16.6163C8.99067 17.7474 10.4867 18.313 12.3963 18.313C14.3058 18.313 14.8045 17.9785 15.7106 17.3156C16.6107 16.6528 17.2735 15.698 17.6871 14.4513H10.9367V10.5349H22.5096V15.479C22.1143 16.8048 21.4454 18.0393 20.5028 19.1826C19.5601 20.3259 18.3621 21.2442 16.9087 21.9496C15.4552 22.6551 13.8193 23.0078 11.9949 23.0078C10.1705 23.0078 7.91426 22.5335 6.22363 21.5908C4.53301 20.6482 3.21942 19.3347 2.27073 17.6562C1.32203 15.9777 0.85376 14.056 0.85376 11.9032C0.85376 9.75036 1.32203 7.82256 2.27073 6.13193C3.21334 4.4413 4.52692 3.12772 6.20539 2.17902C7.88386 1.2364 9.7995 0.762054 11.9584 0.762054C14.1173 0.762054 16.7749 1.39452 18.5689 2.65945C20.3629 3.92438 21.5488 5.67583 22.1326 7.91986H16.2519L16.2579 7.92594Z" fill="#727597"/>
<path d="M16.3005 7.96244C15.9053 7.23876 15.3397 6.67927 14.6038 6.29614C13.868 5.91301 13.0044 5.71841 12.0071 5.71841C10.286 5.71841 8.90556 6.28398 7.87173 7.41512C6.83789 8.54626 6.31489 10.0544 6.31489 11.9397C6.31489 13.8249 6.85613 15.5216 7.9447 16.6528C9.03327 17.7839 10.5293 18.3495 12.4389 18.3495C14.3484 18.3495 14.8471 18.015 15.7532 17.3521C16.6533 16.6892 17.3161 15.7345 17.7297 14.4878H10.9793V10.5714H22.5522V15.5155C22.1569 16.8413 21.488 18.0758 20.5454 19.2191C19.6027 20.3624 18.4047 21.2807 16.9513 21.9861C15.4978 22.6916 13.8619 23.0443 12.0375 23.0443C10.2131 23.0443 7.95686 22.57 6.26624 21.6273C4.57561 20.6847 3.26203 19.3711 2.31333 17.6927C1.36463 16.0142 0.896362 14.0925 0.896362 11.9397C0.896362 9.78686 1.36463 7.85906 2.31333 6.16843C3.25594 4.4778 4.56953 3.16422 6.24799 2.21552C7.92646 1.2729 9.8421 0.798553 12.001 0.798553C14.1599 0.798553 16.8175 1.43102 18.6115 2.69595C20.4055 3.96088 21.5914 5.71232 22.1752 7.95636H16.2945L16.3005 7.96244Z" fill="#727597"/>
<path d="M16.343 8.00504C15.9477 7.28136 15.3822 6.72187 14.6463 6.33874C13.9105 5.95561 13.0469 5.76101 12.0496 5.76101C10.3285 5.76101 8.94804 6.32658 7.91421 7.45772C6.88037 8.58886 6.35737 10.097 6.35737 11.9823C6.35737 13.8675 6.89861 15.5642 7.98718 16.6954C9.07575 17.8265 10.5718 18.3921 12.4813 18.3921C14.3909 18.3921 14.8896 18.0576 15.7957 17.3947C16.6957 16.7319 17.3586 15.7771 17.7722 14.5304H11.0218V10.614H22.5947V15.5581C22.1994 16.8839 21.5305 18.1184 20.5878 19.2617C19.6452 20.405 18.4472 21.3233 16.9937 22.0287C15.5403 22.7342 13.9044 23.0869 12.08 23.0869C10.2555 23.0869 7.99935 22.6126 6.30872 21.6699C4.61809 20.7273 3.30451 19.4137 2.35581 17.7353C1.40711 16.0568 0.938843 14.1351 0.938843 11.9823C0.938843 9.82946 1.40711 7.90166 2.35581 6.21103C3.29842 4.5204 4.61201 3.20682 6.29047 2.25812C7.96894 1.31551 9.88458 0.841156 12.0435 0.841156C14.2024 0.841156 16.8599 1.47362 18.654 2.73855C20.448 4.00348 21.6338 5.75493 22.2177 7.99896H16.3369L16.343 8.00504Z" fill="#727597"/>
<path d="M16.3917 8.04759C15.9964 7.3239 15.4309 6.76441 14.695 6.38128C13.9592 5.99815 13.0956 5.80355 12.0983 5.80355C10.3772 5.80355 8.99675 6.36912 7.96291 7.50026C6.92907 8.6314 6.40607 10.1396 6.40607 12.0248C6.40607 13.9101 6.94732 15.6068 8.03589 16.7379C9.12446 17.869 10.6205 18.4346 12.53 18.4346C14.4396 18.4346 14.9383 18.1001 15.8444 17.4373C16.7445 16.7744 17.4073 15.8196 17.8209 14.5729H11.0705V10.6565H22.6434V15.6007C22.2481 16.9264 21.5792 18.161 20.6365 19.3043C19.6939 20.4476 18.4959 21.3659 17.0424 22.0713C15.589 22.7767 13.9531 23.1295 12.1287 23.1295C10.3043 23.1295 8.04805 22.6551 6.35742 21.7125C4.66679 20.7699 3.35321 19.4563 2.40451 17.7778C1.45582 16.0994 0.987549 14.1776 0.987549 12.0248C0.987549 9.87201 1.45582 7.9442 2.40451 6.25357C3.34713 4.56294 4.66071 3.24936 6.33918 2.30066C8.01764 1.35805 9.93328 0.883698 12.0922 0.883698C14.2511 0.883698 16.9086 1.51616 18.7027 2.78109C20.4967 4.04603 21.6825 5.79747 22.2664 8.04151H16.3856L16.3917 8.04759Z" fill="#727597"/>
<path d="M16.4342 8.08412C16.0389 7.36043 15.4733 6.80094 14.7375 6.41781C14.0016 6.03468 13.1381 5.84008 12.1407 5.84008C10.4197 5.84008 9.03923 6.40565 8.00539 7.53679C6.97155 8.66793 6.44855 10.1761 6.44855 12.0613C6.44855 13.9466 6.9898 15.6433 8.07837 16.7744C9.16694 17.9056 10.663 18.4711 12.5725 18.4711C14.4821 18.4711 14.9808 18.1367 15.8869 17.4738C16.7869 16.8109 17.4498 15.8561 17.8633 14.6095H11.113V10.693H22.6859V15.6372C22.2906 16.963 21.6216 18.1975 20.679 19.3408C19.7364 20.4841 18.5384 21.4024 17.0849 22.1078C15.6315 22.8133 13.9956 23.166 12.1711 23.166C10.3467 23.166 8.09053 22.6916 6.3999 21.749C4.70928 20.8064 3.39569 19.4928 2.447 17.8144C1.4983 16.1359 1.03003 14.2142 1.03003 12.0613C1.03003 9.90853 1.4983 7.98073 2.447 6.2901C3.38961 4.59947 4.70319 3.28589 6.38166 2.33719C8.06012 1.39458 9.97576 0.920227 12.1347 0.920227C14.2936 0.920227 16.9511 1.55269 18.7451 2.81762C20.5392 4.08255 21.725 5.834 22.3088 8.07803H16.4281L16.4342 8.08412Z" fill="#727597"/>
<path d="M16.4829 8.12669C16.0876 7.403 15.5221 6.84351 14.7862 6.46038C14.0504 6.07726 13.1868 5.88265 12.1894 5.88265C10.4684 5.88265 9.08794 6.44822 8.0541 7.57936C7.02026 8.7105 6.49726 10.2187 6.49726 12.1039C6.49726 13.9892 7.03851 15.6859 8.12708 16.817C9.21564 17.9481 10.7117 18.5137 12.6212 18.5137C14.5308 18.5137 15.0295 18.1792 15.9356 17.5164C16.8356 16.8535 17.4985 15.8987 17.912 14.652H11.1617V10.7356H22.7346V15.6798C22.3393 17.0055 21.6703 18.2401 20.7277 19.3834C19.7851 20.5267 18.5871 21.445 17.1336 22.1504C15.6802 22.8558 14.0443 23.2086 12.2199 23.2086C10.3954 23.2086 8.13924 22.7342 6.44861 21.7916C4.75798 20.849 3.4444 19.5354 2.4957 17.8569C1.55308 16.1785 1.07874 14.2567 1.07874 12.1039C1.07874 9.95111 1.547 8.0233 2.4957 6.33267C3.43832 4.64205 4.7519 3.32846 6.43037 2.37977C8.10883 1.43715 10.0245 0.962799 12.1834 0.962799C14.3423 0.962799 16.9998 1.59526 18.7938 2.8602C20.5879 4.12513 21.7737 5.87657 22.3575 8.12061H16.4768L16.4829 8.12669Z" fill="#727597"/>
<path d="M16.5255 8.16923C16.1302 7.44554 15.5647 6.88605 14.8288 6.50293C14.093 6.1198 13.2294 5.92519 12.2321 5.92519C10.511 5.92519 9.13054 6.49076 8.0967 7.6219C7.06286 8.75304 6.53986 10.2612 6.53986 12.1465C6.53986 14.0317 7.08111 15.7284 8.16968 16.8596C9.25825 17.9907 10.7543 18.5563 12.6638 18.5563C14.5734 18.5563 15.0721 18.2218 15.9782 17.5589C16.8782 16.896 17.5411 15.9413 17.9546 14.6946H11.2043V10.7782H22.7772V15.7223C22.3819 17.0481 21.7129 18.2826 20.7703 19.4259C19.8277 20.5692 18.6297 21.4875 17.1762 22.1929C15.7228 22.8984 14.0869 23.2511 12.2625 23.2511C10.438 23.2511 8.18184 22.7768 6.49121 21.8341C4.80058 20.8915 3.487 19.5779 2.5383 17.8995C1.58961 16.221 1.12134 14.2993 1.12134 12.1465C1.12134 9.99365 1.58961 8.06585 2.5383 6.37522C3.48092 4.68459 4.7945 3.37101 6.47297 2.42231C8.15143 1.47969 10.0671 1.00534 12.226 1.00534C14.3849 1.00534 17.0424 1.63781 18.8364 2.90274C20.6305 4.16767 21.8163 5.91911 22.4001 8.16315H16.5194L16.5255 8.16923Z" fill="#727597"/>
<path d="M16.568 8.20573C16.1727 7.48204 15.6071 6.92255 14.8713 6.53942C14.1354 6.1563 13.2719 5.96169 12.2745 5.96169C10.5535 5.96169 9.17302 6.52726 8.13918 7.6584C7.10534 8.78954 6.58234 10.2977 6.58234 12.183C6.58234 14.0682 7.12359 15.7649 8.21216 16.896C9.30073 18.0272 10.7968 18.5928 12.7063 18.5928C14.6159 18.5928 15.1145 18.2583 16.0207 17.5954C16.9207 16.9325 17.5836 15.9778 17.9971 14.7311H11.2468V10.8146H22.8197V15.7588C22.4244 17.0846 21.7554 18.3191 20.8128 19.4624C19.8702 20.6057 18.6722 21.524 17.2187 22.2294C15.7653 22.9349 14.1294 23.2876 12.3049 23.2876C10.4805 23.2876 8.22432 22.8132 6.53369 21.8706C4.84306 20.928 3.52948 19.6144 2.58078 17.936C1.63209 16.2575 1.16382 14.3358 1.16382 12.183C1.16382 10.0301 1.63209 8.10234 2.58078 6.41172C3.5234 4.72109 4.83698 3.4075 6.51545 2.45881C8.19391 1.51619 10.1096 1.04184 12.2684 1.04184C14.4273 1.04184 17.0849 1.67431 18.8789 2.93924C20.6729 4.20417 21.8588 5.95561 22.4426 8.19965H16.5619L16.568 8.20573Z" fill="#727597"/>
<path d="M16.6167 8.24827C16.2214 7.52458 15.6558 6.96509 14.92 6.58197C14.1841 6.19884 13.3206 6.00423 12.3232 6.00423C10.6022 6.00423 9.22173 6.5698 8.18789 7.70094C7.15405 8.83208 6.63105 10.3403 6.63105 12.2255C6.63105 14.1107 7.17229 15.8074 8.26086 16.9386C9.34943 18.0697 10.8455 18.6353 12.755 18.6353C14.6646 18.6353 15.1632 18.3008 16.0694 17.6379C16.9694 16.9751 17.6323 16.0203 18.0458 14.7736H11.2955V10.8572H22.8684V15.8014C22.4731 17.1271 21.8041 18.3616 20.8615 19.5049C19.9189 20.6482 18.7209 21.5665 17.2674 22.272C15.814 22.9774 14.1781 23.3301 12.3536 23.3301C10.5292 23.3301 8.27303 22.8558 6.5824 21.9132C4.89177 20.9706 3.57819 19.657 2.62949 17.9785C1.68079 16.3 1.21252 14.3783 1.21252 12.2255C1.21252 10.0727 1.68079 8.14489 2.62949 6.45426C3.57211 4.76363 4.88569 3.45005 6.56415 2.50135C8.24262 1.55873 10.1583 1.08438 12.3172 1.08438C14.4761 1.08438 17.1336 1.71685 18.9276 2.98178C20.7216 4.24671 21.9075 5.99815 22.4913 8.24219H16.6106L16.6167 8.24827Z" fill="#727597"/>
<path d="M16.6593 8.29084C16.264 7.56716 15.6984 7.00767 14.9626 6.62454C14.2267 6.24141 13.3632 6.04681 12.3658 6.04681C10.6448 6.04681 9.26433 6.61238 8.23049 7.74352C7.19665 8.87466 6.67365 10.3828 6.67365 12.2681C6.67365 14.1533 7.2149 15.85 8.30347 16.9812C9.39204 18.1123 10.8881 18.6779 12.7976 18.6779C14.7072 18.6779 15.2059 18.3434 16.112 17.6805C17.012 17.0177 17.6749 16.0629 18.0884 14.8162H11.3381V10.8998H22.911V15.8439C22.5157 17.1697 21.8467 18.4042 20.9041 19.5475C19.9615 20.6908 18.7635 21.6091 17.31 22.3145C15.8566 23.02 14.2207 23.3727 12.3962 23.3727C10.5718 23.3727 8.31563 22.8984 6.625 21.9557C4.93437 21.0131 3.62079 19.6995 2.67209 18.0211C1.72339 16.3426 1.25513 14.4209 1.25513 12.2681C1.25513 10.1153 1.72339 8.18746 2.67209 6.49683C3.61471 4.8062 4.92829 3.49262 6.60676 2.54392C8.28522 1.6013 10.2009 1.12695 12.3598 1.12695C14.5187 1.12695 17.1762 1.75942 18.9702 3.02435C20.7643 4.28928 21.9501 6.04072 22.5339 8.28476H16.6532L16.6593 8.29084Z" fill="#727597"/>
<path d="M16.708 8.32731C16.3127 7.60362 15.7472 7.04413 15.0113 6.66101C14.2755 6.27788 13.4119 6.08327 12.4145 6.08327C10.6935 6.08327 9.31303 6.64884 8.2792 7.77998C7.24536 8.91112 6.72236 10.4193 6.72236 12.3045C6.72236 14.1898 7.2636 15.8865 8.35217 17.0176C9.44074 18.1488 10.9368 18.7143 12.8463 18.7143C14.7559 18.7143 15.2546 18.3799 16.1607 17.717C17.0607 17.0541 17.7236 16.0993 18.1371 14.8527H11.3868V10.9362H22.9597V15.8804C22.5644 17.2062 21.8954 18.4407 20.9528 19.584C20.0102 20.7273 18.8122 21.6456 17.3587 22.351C15.9053 23.0565 14.2694 23.4092 12.445 23.4092C10.6205 23.4092 8.36434 22.9348 6.67371 21.9922C4.98308 21.0496 3.6695 19.736 2.7208 18.0575C1.7721 16.3791 1.30383 14.4574 1.30383 12.3045C1.30383 10.1517 1.7721 8.22393 2.7208 6.5333C3.66342 4.84267 4.977 3.52909 6.65546 2.58039C8.33393 1.63777 10.2496 1.16342 12.4085 1.16342C14.5674 1.16342 17.2249 1.79589 19.0189 3.06082C20.813 4.32575 21.9988 6.07719 22.5826 8.32123H16.7019L16.708 8.32731Z" fill="#727597"/>
<path d="M16.7505 8.36994C16.3552 7.64626 15.7896 7.08677 15.0538 6.70364C14.3179 6.32051 13.4544 6.12591 12.457 6.12591C10.736 6.12591 9.35551 6.69148 8.32168 7.82262C7.28784 8.95376 6.76484 10.4619 6.76484 12.3472C6.76484 14.2324 7.30608 15.9291 8.39465 17.0603C9.48322 18.1914 10.9792 18.757 12.8888 18.757C14.7984 18.757 15.297 18.4225 16.2032 17.7596C17.1032 17.0967 17.7661 16.142 18.1796 14.8953H11.4293V10.9789H23.0022V15.923C22.6069 17.2488 21.9379 18.4833 20.9953 19.6266C20.0527 20.7699 18.8547 21.6882 17.4012 22.3936C15.9477 23.0991 14.3119 23.4518 12.4874 23.4518C10.663 23.4518 8.40682 22.9775 6.71619 22.0348C5.02556 21.0922 3.71198 19.7786 2.76328 18.1002C1.81458 16.4217 1.34631 14.5 1.34631 12.3472C1.34631 10.1944 1.81458 8.26656 2.76328 6.57593C3.7059 4.8853 5.01948 3.57172 6.69794 2.62302C8.37641 1.6804 10.292 1.20605 12.4509 1.20605C14.6098 1.20605 17.2674 1.83852 19.0614 3.10345C20.8554 4.36838 22.0413 6.11982 22.6251 8.36386H16.7444L16.7505 8.36994Z" fill="#727597"/>
<path d="M16.7931 8.41245C16.3978 7.68877 15.8322 7.12928 15.0964 6.74615C14.3605 6.36302 13.497 6.16842 12.4996 6.16842C10.7786 6.16842 9.39812 6.73399 8.36428 7.86513C7.33044 8.99627 6.80744 10.5045 6.80744 12.3897C6.80744 14.2749 7.34869 15.9716 8.43726 17.1028C9.52583 18.2339 11.0218 18.7995 12.9314 18.7995C14.841 18.7995 15.3396 18.465 16.2458 17.8021C17.1458 17.1393 17.8087 16.1845 18.2222 14.9378H11.4719V11.0214H23.0448V15.9656C22.6495 17.2913 21.9805 18.5258 21.0379 19.6691C20.0953 20.8124 18.8973 21.7307 17.4438 22.4362C15.9904 23.1416 14.3545 23.4943 12.53 23.4943C10.7056 23.4943 8.44942 23.02 6.75879 22.0774C5.06816 21.1347 3.75458 19.8212 2.80588 18.1427C1.86326 16.4642 1.38892 14.5425 1.38892 12.3897C1.38892 10.2369 1.85718 8.30907 2.80588 6.61844C3.7485 4.92781 5.06208 3.61423 6.74055 2.66553C8.41901 1.72291 10.3347 1.24857 12.4935 1.24857C14.6524 1.24857 17.31 1.88103 19.104 3.14596C20.898 4.41089 22.0839 6.16234 22.6677 8.40637H16.787L16.7931 8.41245Z" fill="#727597"/>
<path d="M16.8417 8.44898C16.4464 7.7253 15.8808 7.16581 15.145 6.78268C14.4091 6.39955 13.5456 6.20495 12.5482 6.20495C10.8272 6.20495 9.4467 6.77052 8.41286 7.90166C7.37902 9.0328 6.85603 10.541 6.85603 12.4262C6.85603 14.3115 7.39727 16.0082 8.48584 17.1393C9.57441 18.2704 11.0704 18.836 12.98 18.836C14.8896 18.836 15.3882 18.5015 16.2944 17.8387C17.1944 17.1758 17.8573 16.221 18.2708 14.9743H11.5205V11.0579H23.0934V16.0021C22.6981 17.3278 22.0291 18.5623 21.0865 19.7057C20.1439 20.849 18.9458 21.7672 17.4924 22.4727C16.0389 23.1781 14.403 23.5309 12.5786 23.5309C10.7542 23.5309 8.498 23.0565 6.80737 22.1139C5.11675 21.1713 3.80316 19.8577 2.85447 18.1792C1.90577 16.5008 1.4375 14.579 1.4375 12.4262C1.4375 10.2734 1.90577 8.3456 2.85447 6.65497C3.79708 4.96434 5.11066 3.65076 6.78913 2.70206C8.4676 1.75944 10.3832 1.2851 12.5421 1.2851C14.701 1.2851 17.3586 1.91756 19.1526 3.18249C20.9466 4.44742 22.1325 6.19887 22.7163 8.4429H16.8356L16.8417 8.44898Z" fill="#727597"/>
<path d="M16.8843 8.49159C16.489 7.7679 15.9234 7.20841 15.1876 6.82528C14.4517 6.44215 13.5882 6.24755 12.5908 6.24755C10.8698 6.24755 9.4893 6.81312 8.45547 7.94426C7.42163 9.0754 6.89863 10.5836 6.89863 12.4688C6.89863 14.3541 7.43987 16.0508 8.52844 17.1819C9.61701 18.313 11.113 18.8786 13.0226 18.8786C14.9322 18.8786 15.4308 18.5441 16.337 17.8813C17.237 17.2184 17.8999 16.2636 18.3134 15.0169H11.5631V11.1005H23.136V16.0447C22.7407 17.3704 22.0717 18.605 21.1291 19.7483C20.1865 20.8916 18.9884 21.8098 17.535 22.5153C16.0815 23.2207 14.4456 23.5735 12.6212 23.5735C10.7968 23.5735 8.54061 23.0991 6.84998 22.1565C5.15935 21.2139 3.84577 19.9003 2.89707 18.2218C1.94837 16.5434 1.4801 14.6216 1.4801 12.4688C1.4801 10.316 1.94837 8.3882 2.89707 6.69757C3.83968 5.00694 5.15327 3.69336 6.83173 2.74466C8.5102 1.80205 10.4258 1.3277 12.5847 1.3277C14.7436 1.3277 17.4012 1.96016 19.1952 3.22509C20.9892 4.49003 22.1751 6.24147 22.7589 8.4855H16.8782L16.8843 8.49159Z" fill="#727597"/>
<path d="M16.9269 8.5341C16.5316 7.81041 15.966 7.25092 15.2302 6.86779C14.4943 6.48467 13.6308 6.29006 12.6334 6.29006C10.9124 6.29006 9.53191 6.85563 8.49807 7.98677C7.46423 9.11791 6.94123 10.6261 6.94123 12.5113C6.94123 14.3966 7.48248 16.0933 8.57105 17.2244C9.65962 18.3556 11.1556 18.9211 13.0652 18.9211C14.9748 18.9211 15.4734 18.5867 16.3796 17.9238C17.2796 17.2609 17.9425 16.3061 18.356 15.0594H11.6057V11.143H23.1786V16.0872C22.7833 17.4129 22.1143 18.6475 21.1717 19.7908C20.2291 20.9341 19.031 21.8524 17.5776 22.5578C16.1241 23.2632 14.4882 23.616 12.6638 23.616C10.8394 23.616 8.58321 23.1416 6.89258 22.199C5.20195 21.2564 3.88837 19.9428 2.93967 18.2643C1.99097 16.5859 1.52271 14.6641 1.52271 12.5113C1.52271 10.3585 1.99097 8.43071 2.93967 6.74008C3.88229 5.04946 5.19587 3.73587 6.87434 2.78717C8.5528 1.84456 10.4684 1.37021 12.6273 1.37021C14.7862 1.37021 17.4438 2.00267 19.2378 3.26761C21.0318 4.53254 22.2177 6.28398 22.8015 8.52802H16.9208L16.9269 8.5341Z" fill="#727597"/>
<path d="M16.9755 8.57063C16.5802 7.84694 16.0146 7.28745 15.2788 6.90432C14.5429 6.52119 13.6794 6.32659 12.682 6.32659C10.961 6.32659 9.58049 6.89216 8.54665 8.0233C7.51281 9.15444 6.98981 10.6626 6.98981 12.5479C6.98981 14.4331 7.53106 16.1298 8.61963 17.2609C9.7082 18.3921 11.2042 18.9577 13.1138 18.9577C15.0233 18.9577 15.522 18.6232 16.4281 17.9603C17.3282 17.2974 17.9911 16.3427 18.4046 15.096H11.6542V11.1795H23.2271V16.1237C22.8319 17.4495 22.1629 18.684 21.2203 19.8273C20.2777 20.9706 19.0796 21.8889 17.6262 22.5943C16.1727 23.2998 14.5368 23.6525 12.7124 23.6525C10.888 23.6525 8.63179 23.1781 6.94116 22.2355C5.25053 21.2929 3.93695 19.9793 2.98825 18.3009C2.03956 16.6224 1.57129 14.7007 1.57129 12.5479C1.57129 10.395 2.03956 8.46724 2.98825 6.77661C3.93087 5.08598 5.24445 3.7724 6.92292 2.8237C8.60138 1.88109 10.517 1.40674 12.6759 1.40674C14.8348 1.40674 17.4924 2.0392 19.2864 3.30413C21.0804 4.56907 22.2663 6.32051 22.8501 8.56454H16.9694L16.9755 8.57063Z" fill="#727597"/>
<path d="M17.0181 8.61317C16.6228 7.88948 16.0572 7.32999 15.3214 6.94686C14.5855 6.56374 13.722 6.36913 12.7246 6.36913C11.0036 6.36913 9.62309 6.9347 8.58926 8.06584C7.55542 9.19698 7.03242 10.7052 7.03242 12.5904C7.03242 14.4756 7.57366 16.1723 8.66223 17.3035C9.7508 18.4346 11.2468 19.0002 13.1564 19.0002C15.0659 19.0002 15.5646 18.6657 16.4707 18.0028C17.3708 17.34 18.0337 16.3852 18.4472 15.1385H11.6968V11.2221H23.2697V16.1663C22.8745 17.492 22.2055 18.7265 21.2629 19.8698C20.3203 21.0131 19.1222 21.9314 17.6688 22.6369C16.2153 23.3423 14.5794 23.695 12.755 23.695C10.9306 23.695 8.6744 23.2207 6.98377 22.2781C5.29314 21.3355 3.97956 20.0219 3.03086 18.3434C2.08216 16.6649 1.61389 14.7432 1.61389 12.5904C1.61389 10.4376 2.08216 8.50978 3.03086 6.81916C3.97347 5.12853 5.28706 3.81494 6.96552 2.86625C8.64399 1.92363 10.5596 1.44928 12.7185 1.44928C14.8774 1.44928 17.535 2.08175 19.329 3.34668C21.123 4.61161 22.3089 6.36305 22.8927 8.60709H17.012L17.0181 8.61317Z" fill="#727597"/>
<path d="M17.0668 8.65577C16.6715 7.93208 16.1059 7.3726 15.3701 6.98947C14.6342 6.60634 13.7707 6.41173 12.7733 6.41173C11.0523 6.41173 9.6718 6.9773 8.63796 8.10844C7.60412 9.23959 7.08112 10.7478 7.08112 12.633C7.08112 14.5182 7.62237 16.215 8.71094 17.3461C9.79951 18.4772 11.2955 19.0428 13.2051 19.0428C15.1146 19.0428 15.6133 18.7083 16.5195 18.0455C17.4195 17.3826 18.0824 16.4278 18.4959 15.1811H11.7456V11.2647H23.3185V16.2089C22.9232 17.5346 22.2542 18.7691 21.3116 19.9124C20.369 21.0557 19.1709 21.974 17.7175 22.6795C16.264 23.3849 14.6281 23.7376 12.8037 23.7376C10.9793 23.7376 8.7231 23.2633 7.03247 22.3207C5.34184 21.3781 4.02826 20.0645 3.07956 18.386C2.13087 16.7075 1.6626 14.7858 1.6626 12.633C1.6626 10.4802 2.13087 8.55239 3.07956 6.86176C4.02218 5.17113 5.33576 3.85755 7.01423 2.90885C8.69269 1.96623 10.6083 1.49188 12.7672 1.49188C14.9261 1.49188 17.5837 2.12435 19.3777 3.38928C21.1717 4.65421 22.3576 6.40565 22.9414 8.64969H17.0607L17.0668 8.65577Z" fill="#727597"/>
<path d="M17.1093 8.69221C16.714 7.96852 16.1484 7.40903 15.4125 7.02591C14.6767 6.64278 13.8131 6.44817 12.8158 6.44817C11.0948 6.44817 9.71428 7.01374 8.68044 8.14488C7.6466 9.27602 7.1236 10.7842 7.1236 12.6694C7.1236 14.5547 7.66485 16.2514 8.75342 17.3825C9.84199 18.5137 11.338 19.0792 13.2476 19.0792C15.1571 19.0792 15.6558 18.7448 16.5619 18.0819C17.462 17.419 18.1249 16.4642 18.5384 15.2175H11.788V11.3011H23.3609V16.2453C22.9656 17.5711 22.2967 18.8056 21.3541 19.9489C20.4115 21.0922 19.2134 22.0105 17.76 22.7159C16.3065 23.4214 14.6706 23.7741 12.8462 23.7741C11.0218 23.7741 8.76558 23.2997 7.07495 22.3571C5.38432 21.4145 4.07074 20.1009 3.12204 18.4224C2.17335 16.744 1.70508 14.8223 1.70508 12.6694C1.70508 10.5166 2.17335 8.58882 3.12204 6.8982C4.06466 5.20757 5.37824 3.89398 7.05671 2.94529C8.73517 2.00267 10.6508 1.52832 12.8097 1.52832C14.9686 1.52832 17.6262 2.16079 19.4202 3.42572C21.2142 4.69065 22.4001 6.44209 22.9839 8.68613H17.1032L17.1093 8.69221Z" fill="#727597"/>
<path d="M17.1519 8.73481C16.7566 8.01112 16.191 7.45164 15.4552 7.06851C14.7193 6.68538 13.8557 6.49077 12.8584 6.49077C11.1374 6.49077 9.75688 7.05634 8.72304 8.18749C7.68921 9.31863 7.16621 10.8268 7.16621 12.712C7.16621 14.5973 7.70745 16.294 8.79602 17.4251C9.88459 18.5563 11.3806 19.1218 13.2902 19.1218C15.1997 19.1218 15.6984 18.7874 16.6045 18.1245C17.5046 17.4616 18.1675 16.5068 18.581 15.2602H11.8306V11.3437H23.4035V16.2879C23.0082 17.6137 22.3393 18.8482 21.3967 19.9915C20.4541 21.1348 19.256 22.0531 17.8026 22.7585C16.3491 23.464 14.7132 23.8167 12.8888 23.8167C11.0644 23.8167 8.80818 23.3423 7.11755 22.3997C5.42693 21.4571 4.11334 20.1435 3.16465 18.465C2.21595 16.7866 1.74768 14.8649 1.74768 12.712C1.74768 10.5592 2.21595 8.63143 3.16465 6.9408C4.10726 5.25017 5.42084 3.93659 7.09931 2.98789C8.77778 2.04527 10.6934 1.57092 12.8523 1.57092C15.0112 1.57092 17.6688 2.20339 19.4628 3.46832C21.2568 4.73325 22.4427 6.48469 23.0265 8.72873H17.1458L17.1519 8.73481Z" fill="#727597"/>
<path d="M17.2004 8.77735C16.8052 8.05367 16.2396 7.49418 15.5037 7.11105C14.7679 6.72792 13.9043 6.53332 12.907 6.53332C11.1859 6.53332 9.80547 7.09889 8.77163 8.23003C7.73779 9.36117 7.21479 10.8694 7.21479 12.7546C7.21479 14.6398 7.75604 16.3365 8.84461 17.4677C9.93318 18.5988 11.4292 19.1644 13.3388 19.1644C15.2483 19.1644 15.747 18.8299 16.6531 18.167C17.5532 17.5042 18.216 16.5494 18.6296 15.3027H11.8792V11.3863H23.4521V16.3305C23.0568 17.6562 22.3879 18.8907 21.4453 20.034C20.5026 21.1773 19.3046 22.0956 17.8512 22.8011C16.3977 23.5065 14.7618 23.8592 12.9374 23.8592C11.113 23.8592 8.85677 23.3849 7.16614 22.4423C5.47551 21.4996 4.16193 20.1861 3.21323 18.5076C2.26453 16.8291 1.79626 14.9074 1.79626 12.7546C1.79626 10.6018 2.26453 8.67397 3.21323 6.98334C4.15585 5.29271 5.46943 3.97913 7.14789 3.03043C8.82636 2.08781 10.742 1.61346 12.9009 1.61346C15.0598 1.61346 17.7174 2.24593 19.5114 3.51086C21.3054 4.77579 22.4913 6.52724 23.0751 8.77127H17.1944L17.2004 8.77735Z" fill="#727597"/>
<path d="M17.243 8.81385C16.8478 8.09017 16.2822 7.53068 15.5463 7.14755C14.8105 6.76442 13.9469 6.56982 12.9496 6.56982C11.2285 6.56982 9.84807 7.13539 8.81423 8.26653C7.78039 9.39767 7.25739 10.9059 7.25739 12.7911C7.25739 14.6763 7.79864 16.373 8.88721 17.5042C9.97578 18.6353 11.4718 19.2009 13.3814 19.2009C15.2909 19.2009 15.7896 18.8664 16.6957 18.2035C17.5958 17.5407 18.2586 16.5859 18.6722 15.3392H11.9218V11.4228H23.4947V16.3669C23.0994 17.6927 22.4305 18.9272 21.4879 20.0705C20.5452 21.2138 19.3472 22.1321 17.8938 22.8376C16.4403 23.543 14.8044 23.8957 12.98 23.8957C11.1556 23.8957 8.89937 23.4214 7.20874 22.4788C5.51811 21.5361 4.20453 20.2226 3.25583 18.5441C2.30713 16.8656 1.83887 14.9439 1.83887 12.7911C1.83887 10.6383 2.30713 8.71047 3.25583 7.01984C4.19845 5.32921 5.51203 4.01563 7.1905 3.06693C8.86896 2.12431 10.7846 1.64996 12.9435 1.64996C15.1024 1.64996 17.76 2.28243 19.554 3.54736C21.348 4.81229 22.5339 6.56373 23.1177 8.80777H17.237L17.243 8.81385Z" fill="#727597"/>
<path d="M17.2856 8.85645C16.8904 8.13277 16.3248 7.57328 15.5889 7.19015C14.8531 6.80702 13.9895 6.61242 12.9922 6.61242C11.2711 6.61242 9.89067 7.17799 8.85683 8.30913C7.823 9.44027 7.29999 10.9485 7.29999 12.8337C7.29999 14.7189 7.84124 16.4156 8.92981 17.5468C10.0184 18.6779 11.5144 19.2435 13.424 19.2435C15.3335 19.2435 15.8322 18.909 16.7383 18.2461C17.6384 17.5833 18.3012 16.6285 18.7148 15.3818H11.9644V11.4654H23.5373V16.4096C23.142 17.7353 22.4731 18.9698 21.5305 20.1131C20.5878 21.2564 19.3898 22.1747 17.9364 22.8802C16.4829 23.5856 14.847 23.9383 13.0226 23.9383C11.1982 23.9383 8.94197 23.464 7.25134 22.5214C5.56072 21.5787 4.24713 20.2652 3.29844 18.5867C2.34974 16.9082 1.88147 14.9865 1.88147 12.8337C1.88147 10.6809 2.34974 8.75307 3.29844 7.06244C4.24105 5.37181 5.55463 4.05823 7.2331 3.10953C8.91157 2.16691 10.8272 1.69257 12.9861 1.69257C15.145 1.69257 17.8026 2.32503 19.5966 3.58996C21.3906 4.85489 22.5765 6.60634 23.1603 8.85037H17.2796L17.2856 8.85645Z" fill="#727597"/>
<path d="M17.3344 8.899C16.9391 8.17531 16.3735 7.61582 15.6376 7.23269C14.9018 6.84956 14.0382 6.65496 13.0409 6.65496C11.3199 6.65496 9.93938 7.22053 8.90554 8.35167C7.8717 9.48281 7.3487 10.991 7.3487 12.8762C7.3487 14.7615 7.88995 16.4582 8.97852 17.5893C10.0671 18.7205 11.5631 19.286 13.4727 19.286C15.3822 19.286 15.8809 18.9516 16.787 18.2887C17.6871 17.6258 18.35 16.671 18.7635 15.4243H12.0131V11.5079H23.586V16.4521C23.1907 17.7778 22.5218 19.0124 21.5792 20.1557C20.6366 21.299 19.4385 22.2173 17.9851 22.9227C16.5316 23.6281 14.8957 23.9809 13.0713 23.9809C11.2469 23.9809 8.99068 23.5065 7.30005 22.5639C5.60942 21.6213 4.29584 20.3077 3.34714 18.6292C2.39844 16.9508 1.93018 15.029 1.93018 12.8762C1.93018 10.7234 2.39844 8.79561 3.34714 7.10498C4.28976 5.41435 5.60334 4.10077 7.28181 3.15207C8.96027 2.20946 10.8759 1.73511 13.0348 1.73511C15.1937 1.73511 17.8513 2.36757 19.6453 3.6325C21.4393 4.89744 22.6252 6.64888 23.209 8.89292H17.3283L17.3344 8.899Z" fill="#727597"/>
<path d="M15.5099 7.1962C15.1146 6.47251 14.5491 5.91302 13.8132 5.5299C13.0774 5.14677 12.2138 4.95216 11.2164 4.95216C9.49541 4.95216 8.11494 5.51773 7.0811 6.64887C6.04726 7.78001 5.52426 9.2882 5.52426 11.1734C5.52426 13.0587 6.06551 14.7554 7.15408 15.8865C8.24265 17.0177 9.73867 17.5832 11.6482 17.5832C13.5578 17.5832 14.0565 17.2488 14.9626 16.5859C15.8626 15.923 16.5255 14.9682 16.939 13.7215H10.1887V9.80512H21.7616V14.7493C21.3663 16.075 20.6973 17.3096 19.7547 18.4529C18.8121 19.5962 17.6141 20.5145 16.1606 21.2199C14.7072 21.9253 13.0713 22.2781 11.2469 22.2781C9.42244 22.2781 7.16624 21.8037 5.47561 20.8611C3.78498 19.9185 2.4714 18.6049 1.5227 16.9264C0.580084 15.248 0.111816 13.3323 0.111816 11.1734C0.111816 9.01454 0.580084 7.09281 1.52878 5.40219C2.4714 3.71156 3.78498 2.39797 5.46345 1.44928C7.14191 0.51274 9.05755 0.0383911 11.2164 0.0383911C13.3753 0.0383911 16.0329 0.670857 17.8269 1.93579C19.6209 3.20072 20.8068 4.95216 21.3906 7.1962H15.5099Z" fill="#FA8A5B"/>
</g>
<g clip-path="url(#clip1_5780_359)">
<path d="M30.8299 8.84733C31.5128 8.45569 32.2543 8.2403 33.0738 8.2403V12.3329H32.0201C31.064 12.3329 30.3421 12.5483 29.8542 12.9595C29.3664 13.3707 29.1323 14.0952 29.1323 15.133V20.9684H25.2883V8.37737H29.1323V10.4726C29.5811 9.78725 30.1469 9.23896 30.8103 8.82774L30.8299 8.84733Z" fill="white"/>
<path d="M38.7714 8.37741V20.9684H34.9275V8.37741H38.7714Z" fill="white"/>
<path d="M47.8642 11.5888H45.7959V20.9684H41.9519V11.5888H40.5665V8.37739H41.9519V8.02492C41.9519 6.47797 42.4007 5.30307 43.2788 4.50023C44.1568 3.69738 45.4642 3.28616 47.1617 3.28616C48.8593 3.28616 47.6495 3.28616 47.7861 3.30574V6.57588C47.0447 6.53672 46.5373 6.63462 46.2446 6.88919C45.952 7.14375 45.7959 7.59413 45.7959 8.2599V8.37739H47.8642V11.5888Z" fill="white"/>
<path d="M49.6203 11.2363C50.1081 10.2572 50.7715 9.51314 51.6105 8.98444C52.4496 8.45573 53.3862 8.20117 54.4203 8.20117C55.4545 8.20117 56.0789 8.37741 56.7423 8.74946C57.4057 9.10193 57.9131 9.59147 58.2838 10.1789V8.39699H62.1277V20.988H58.2838V19.2061C57.9131 19.7935 57.3862 20.2635 56.7228 20.6355C56.0594 20.988 55.2789 21.1838 54.4008 21.1838C53.5228 21.1838 52.4496 20.9097 51.6105 20.381C50.7715 19.8523 50.1081 19.0886 49.6203 18.1095C49.1325 17.1304 48.8983 15.9947 48.8983 14.6827C48.8983 13.3707 49.1325 12.2546 49.6203 11.2755V11.2363ZM57.4838 12.3916C56.957 11.8434 56.313 11.5496 55.5325 11.5496C54.752 11.5496 54.1276 11.8238 53.5813 12.3721C53.0545 12.9203 52.7813 13.684 52.7813 14.6435C52.7813 15.603 53.0545 16.3667 53.5813 16.9346C54.1081 17.5025 54.752 17.7766 55.5325 17.7766C56.313 17.7766 56.9374 17.5025 57.4838 16.9346C58.0106 16.3863 58.2838 15.6226 58.2838 14.6631C58.2838 13.7036 58.0106 12.9399 57.4838 12.3916Z" fill="white"/>
<path d="M76.0792 9.66976C76.9573 10.6293 77.3865 11.9412 77.3865 13.6057V20.9684H73.5621V14.1344C73.5621 13.2924 73.3475 12.6462 72.9182 12.1762C72.4889 11.7062 71.9035 11.4713 71.1621 11.4713C70.4206 11.4713 69.8352 11.7062 69.406 12.1762C68.9767 12.6462 68.762 13.2924 68.762 14.1344V20.9684H64.9181V8.37737H68.762V10.0418C69.1523 9.49352 69.6791 9.04314 70.3425 8.72984C71.006 8.39695 71.7474 8.2403 72.567 8.2403C74.0304 8.2403 75.2011 8.71025 76.0792 9.66976Z" fill="white"/>
<path d="M35.2201 6.47797C34.7908 6.08634 34.5762 5.57722 34.5762 5.00935C34.5762 4.44148 34.7908 3.91278 35.2201 3.50156C35.6494 3.10993 36.1957 2.89453 36.8786 2.89453C37.5616 2.89453 38.0884 3.09035 38.5177 3.50156C38.947 3.8932 39.1616 4.40232 39.1616 5.00935C39.1616 5.61638 38.947 6.08634 38.5177 6.47797C38.0884 6.86961 37.5421 7.085 36.8786 7.085C36.2152 7.085 35.6494 6.88919 35.2201 6.47797Z" fill="white"/>
<path d="M82.4597 20.3613C81.4841 19.8326 80.7036 19.0885 80.1377 18.1095C79.5719 17.1304 79.2987 15.9946 79.2987 14.6827C79.2987 13.3707 79.5914 12.2545 80.1573 11.2559C80.7231 10.2768 81.5036 9.51311 82.4987 8.98441C83.4939 8.4557 84.6061 8.20114 85.8354 8.20114C87.0647 8.20114 88.1769 8.4557 89.172 8.98441C90.1671 9.51311 90.9476 10.2572 91.5135 11.2559C92.0794 12.235 92.372 13.3707 92.372 14.6827C92.372 15.9946 92.0794 17.1108 91.5135 18.1095C90.9281 19.0885 90.1476 19.8522 89.1525 20.3809C88.1574 20.9096 87.0451 21.1642 85.8159 21.1642C84.5866 21.1642 83.4744 20.9096 82.4987 20.3809L82.4597 20.3613ZM87.65 16.9933C88.1574 16.445 88.4305 15.6813 88.4305 14.6631C88.4305 13.6448 88.1769 12.8812 87.6695 12.3329C87.1622 11.7846 86.5573 11.53 85.8159 11.53C85.0744 11.53 84.45 11.8042 83.9427 12.3329C83.4549 12.8616 83.2012 13.6448 83.2012 14.6631C83.2012 15.6813 83.4353 16.445 83.9232 16.9933C84.411 17.5416 85.0159 17.7961 85.7573 17.7961C86.4988 17.7961 87.1232 17.522 87.6305 16.9933H87.65Z" fill="white"/>
</g>
<defs>
<clipPath id="clip0_5780_359">
<rect width="23.535" height="23.9425" fill="white" transform="translate(0.0510254 0.0383911)"/>
</clipPath>
<clipPath id="clip1_5780_359">
<rect width="67.0437" height="18.1748" fill="white" transform="translate(25.3663 2.91263)"/>
</clipPath>
</defs>
</svg>
