<svg width="197" height="53" viewBox="0 0 197 53" fill="none" xmlns="http://www.w3.org/2000/svg">
<g clip-path="url(#clip0_5633_1537)">
<path d="M31.5963 17.4277C30.8842 16.124 29.8653 15.1161 28.5397 14.4259C27.2141 13.7358 25.6585 13.3852 23.8618 13.3852C20.7614 13.3852 18.2745 14.404 16.4121 16.4417C14.5497 18.4794 13.6075 21.1964 13.6075 24.5926C13.6075 27.9888 14.5825 31.0453 16.5435 33.083C18.5046 35.1207 21.1996 36.1396 24.6396 36.1396C28.0796 36.1396 28.9779 35.537 30.6103 34.3429C32.2317 33.1488 33.4258 31.4288 34.1708 29.1829H22.0103V22.1276H42.8585V31.0344C42.1464 33.4226 40.9413 35.6466 39.2432 37.7062C37.5451 39.7658 35.3869 41.4201 32.7685 42.6909C30.1502 43.9618 27.2032 44.5972 23.9165 44.5972C20.6299 44.5972 16.5655 43.7426 13.5199 42.0446C10.4742 40.3465 8.10788 37.9801 6.39883 34.9564C4.70074 31.9327 3.85718 28.4817 3.85718 24.5926C3.85718 20.7034 4.70074 17.2415 6.40979 14.1959C8.10788 11.1503 10.4742 8.78391 13.4979 7.07486C16.5216 5.38773 19.9726 4.5332 23.8618 4.5332C27.7509 4.5332 32.5385 5.67257 35.7703 7.95129C39.0021 10.23 41.1385 13.3852 42.1902 17.4277H31.5963Z" fill="#727597"/>
<path d="M31.6729 17.4939C30.9608 16.1902 29.942 15.1823 28.6164 14.4921C27.2908 13.8019 25.7351 13.4514 23.9384 13.4514C20.838 13.4514 18.3512 14.4702 16.4887 16.5079C14.6263 18.5456 13.6842 21.2626 13.6842 24.6588C13.6842 28.0549 14.6592 31.1115 16.6202 33.1492C18.5812 35.1869 21.2763 36.2058 24.7163 36.2058C28.1563 36.2058 29.0546 35.6032 30.687 34.4091C32.3084 33.2149 33.5025 31.4949 34.2475 29.2491H22.087V22.1938H42.9351V31.1005C42.223 33.4888 41.0179 35.7128 39.3198 37.7724C37.6217 39.832 35.4635 41.4863 32.8452 42.7571C30.2268 44.0279 27.2798 44.6633 23.9932 44.6633C20.7066 44.6633 16.6421 43.8088 13.5965 42.1107C10.5509 40.4126 8.18454 38.0463 6.47549 35.0226C4.78836 32.0098 3.93384 28.5479 3.93384 24.6697C3.93384 20.7915 4.7774 17.3186 6.48645 14.273C8.18454 11.2274 10.5509 8.86105 13.5746 7.15201C16.5983 5.45392 20.0602 4.61035 23.9384 4.61035C27.8166 4.61035 32.6151 5.74971 35.847 8.02844C39.0788 10.3072 41.2151 13.4623 42.2668 17.5049H31.6729V17.4939Z" fill="#727597"/>
<path d="M31.7606 17.5708C31.0485 16.2671 30.0296 15.2592 28.704 14.569C27.3784 13.8788 25.8228 13.5282 24.0261 13.5282C20.9257 13.5282 18.4388 14.5471 16.5764 16.5848C14.714 18.6225 13.7718 21.3395 13.7718 24.7356C13.7718 28.1318 14.7468 31.1884 16.7079 33.2261C18.6689 35.2638 21.3639 36.2826 24.8039 36.2826C28.2439 36.2826 29.1422 35.6801 30.7746 34.486C32.396 33.2918 33.5901 31.5718 34.3351 29.326H22.1746V22.2707H43.0228V31.1774C42.3107 33.5657 41.1056 35.7897 39.4075 37.8493C37.7094 39.9089 35.5512 41.5632 32.9328 42.834C30.3145 44.1048 27.3675 44.7402 24.0808 44.7402C20.7942 44.7402 16.7298 43.8857 13.6842 42.1876C10.6386 40.4895 8.27219 38.1232 6.56314 35.0995C4.86505 32.0867 4.02148 28.6248 4.02148 24.7356C4.02148 20.8465 4.86505 17.3846 6.5741 14.3389C8.27218 11.2933 10.6386 8.92697 13.6622 7.21793C16.6859 5.53079 20.1369 4.67627 24.0261 4.67627C27.9152 4.67627 32.7028 5.81563 35.9346 8.09436C39.1665 10.3731 41.3028 13.5282 42.3545 17.5708H31.7606Z" fill="#727597"/>
<path d="M31.8372 17.6465C31.1251 16.3428 30.1063 15.3349 28.7807 14.6447C27.4551 13.9545 25.8994 13.6039 24.1027 13.6039C21.0023 13.6039 18.5154 14.6228 16.653 16.6605C14.7906 18.6982 13.8484 21.4151 13.8484 24.8113C13.8484 28.2075 14.8235 31.2641 16.7845 33.3018C18.7455 35.3395 21.4405 36.3583 24.8805 36.3583C28.3205 36.3583 29.2189 35.7558 30.8512 34.5616C32.4726 33.3675 33.6668 31.6475 34.4117 29.4016H22.2512V22.3464H43.0994V31.2531C42.3873 33.6414 41.1822 35.8653 39.4841 37.925C37.786 39.9846 35.6278 41.6388 33.0095 42.9097C30.3911 44.1805 27.4441 44.8159 24.1575 44.8159C20.8709 44.8159 16.8064 43.9614 13.7608 42.2633C10.7152 40.5652 8.34881 38.1988 6.63977 35.1751C4.94168 32.1515 4.08716 28.6895 4.08716 24.8113C4.08716 20.9331 4.93073 17.4602 6.63977 14.4146C8.33786 11.369 10.7042 9.00266 13.7279 7.29361C16.7626 5.60648 20.2135 4.75195 24.1027 4.75195C27.9919 4.75195 32.7794 5.89132 36.0112 8.17004C39.2431 10.4488 41.3794 13.6039 42.4311 17.6465H31.8372Z" fill="#727597"/>
<path d="M31.914 17.7122C31.2019 16.4085 30.1831 15.4006 28.8574 14.7104C27.5318 14.0202 25.9762 13.6696 24.1795 13.6696C21.0791 13.6696 18.5922 14.6885 16.7298 16.7262C14.8674 18.7639 13.9252 21.4808 13.9252 24.877C13.9252 28.2732 14.9002 31.3298 16.8613 33.3675C18.8223 35.4052 21.5173 36.424 24.9573 36.424C28.3973 36.424 29.2957 35.8215 30.928 34.6273C32.5494 33.4332 33.7436 31.7132 34.4885 29.4673H22.328V22.4121H43.1762V31.3188C42.4641 33.7071 41.259 35.931 39.5609 37.9906C37.8628 40.0503 35.7046 41.7045 33.0862 42.9754C30.4679 44.2462 27.5209 44.8816 24.2343 44.8816C20.9476 44.8816 16.8832 44.0271 13.8376 42.329C10.792 40.6309 8.4256 38.2645 6.71655 35.2408C5.01846 32.2171 4.16394 28.7552 4.16394 24.877C4.16394 20.9988 5.00751 17.5259 6.71655 14.4803C8.41464 11.4347 10.781 9.06836 13.8047 7.35931C16.8394 5.67218 20.3013 4.82861 24.1904 4.82861C28.0796 4.82861 32.8671 5.96798 36.099 8.2467C39.3308 10.5254 41.4671 13.6806 42.5188 17.7231H31.925L31.914 17.7122Z" fill="#727597"/>
<path d="M32.0017 17.7895C31.2896 16.4859 30.2707 15.478 28.9451 14.7878C27.6195 14.0976 26.0638 13.747 24.2672 13.747C21.1668 13.747 18.6799 14.7659 16.8175 16.8036C14.9551 18.8413 14.0129 21.5582 14.0129 24.9544C14.0129 28.3506 14.9879 31.4071 16.9489 33.4448C18.91 35.4825 21.605 36.5014 25.045 36.5014C28.485 36.5014 29.3833 35.8989 31.0157 34.7047C32.6371 33.5106 33.8312 31.7906 34.5762 29.5447H22.4157V22.4894H43.2638V31.3962C42.5517 33.7845 41.3466 36.0084 39.6486 38.068C37.9505 40.1276 35.7923 41.7819 33.1739 43.0527C30.5556 44.3236 27.6086 44.959 24.3219 44.959C21.0353 44.959 16.9709 44.1045 13.9252 42.4064C10.8796 40.7083 8.51327 38.3419 6.80423 35.3182C5.09518 32.2945 4.26257 28.8436 4.26257 24.9544C4.26257 21.0652 5.10614 17.6033 6.81518 14.5577C8.51327 11.5121 10.8796 9.14572 13.9033 7.43668C16.927 5.74954 20.378 4.89502 24.2672 4.89502C28.1563 4.89502 32.9438 6.03438 36.1757 8.31311C39.4075 10.5918 41.5438 13.747 42.5956 17.7895H32.0017Z" fill="#727597"/>
<path d="M32.0784 17.8654C31.3663 16.5617 30.3475 15.5538 29.0219 14.8637C27.6963 14.1735 26.1406 13.8229 24.3439 13.8229C21.2435 13.8229 18.7566 14.8417 16.8942 16.8795C15.0318 18.9172 14.0896 21.6341 14.0896 25.0303C14.0896 28.4265 15.0647 31.483 17.0257 33.5207C18.9867 35.5584 21.6817 36.5773 25.1217 36.5773C28.5617 36.5773 29.4601 35.9747 31.0924 34.7806C32.7139 33.5865 33.908 31.8665 34.653 29.6206H22.4924V22.5653H43.3406V31.4721C42.6285 33.8603 41.4234 36.0843 39.7253 38.1439C38.0272 40.2035 35.869 41.8578 33.2507 43.1286C30.6323 44.3995 27.6853 45.0349 24.3987 45.0349C21.1121 45.0349 17.0476 44.1803 14.002 42.4823C10.9564 40.7842 8.59003 38.4178 6.88098 35.3941C5.18289 32.3704 4.32837 28.9085 4.32837 25.0303C4.32837 21.1521 5.17194 17.6792 6.88098 14.6336C8.57907 11.588 10.9454 9.22162 13.9691 7.51257C16.9928 5.81448 20.4438 4.95996 24.333 4.95996C28.2221 4.95996 33.0096 6.09932 36.2415 8.37805C39.4733 10.6568 41.6096 13.8119 42.6614 17.8545H32.0675L32.0784 17.8654Z" fill="#727597"/>
<path d="M32.1658 17.9309C31.4537 16.6272 30.4349 15.6193 29.1093 14.9291C27.7837 14.2389 26.228 13.8883 24.4313 13.8883C21.3309 13.8883 18.8441 14.9072 16.9816 16.9449C15.1192 18.9826 14.177 21.6995 14.177 25.0957C14.177 28.4919 15.1521 31.5485 17.1131 33.5862C19.0741 35.6239 21.7691 36.6427 25.2091 36.6427C28.6491 36.6427 29.5475 36.0402 31.1798 34.846C32.8013 33.6519 33.9954 31.9319 34.7404 29.686H22.5798V22.6307H43.428V31.5375C42.7159 33.9258 41.5108 36.1497 39.8127 38.2093C38.1146 40.269 35.9564 41.9232 33.3381 43.1941C30.7197 44.4649 27.7727 45.1003 24.4861 45.1003C21.1995 45.1003 17.135 44.2458 14.0894 42.5477C11.0438 40.8496 8.67743 38.4832 6.96838 35.4595C5.27029 32.4358 4.41577 28.9739 4.41577 25.0957C4.41577 21.2175 5.25934 17.7446 6.96838 14.699C8.66647 11.6534 11.0328 9.28705 14.0565 7.578C17.0802 5.87991 20.5312 5.02539 24.4204 5.02539C28.3095 5.02539 33.097 6.16475 36.3289 8.44348C39.5607 10.7222 41.697 13.8774 42.7488 17.9199H32.1549L32.1658 17.9309Z" fill="#727597"/>
<path d="M32.2427 18.0085C31.5305 16.7048 30.5117 15.6969 29.1861 15.0067C27.8605 14.3165 26.3048 13.966 24.5081 13.966C21.4077 13.966 18.9209 14.9848 17.0584 17.0225C15.196 19.0602 14.2539 21.7772 14.2539 25.1733C14.2539 28.5695 15.2289 31.6261 17.1899 33.6638C19.1509 35.7015 21.846 36.7204 25.286 36.7204C28.726 36.7204 29.6243 36.1178 31.2567 34.9237C32.8781 33.7295 34.0722 32.0095 34.8172 29.7637H22.6567V22.7084H43.5048V31.6151C42.7927 34.0034 41.5876 36.2274 39.8895 38.287C38.1914 40.3466 36.0332 42.0009 33.4149 43.2717C30.7965 44.5425 27.8495 45.1779 24.5629 45.1779C21.2763 45.1779 17.2118 44.3234 14.1662 42.6253C11.1206 40.9272 8.75424 38.5609 7.0452 35.5372C5.33615 32.5135 4.50354 29.0625 4.50354 25.1733C4.50354 21.2842 5.34711 17.8223 7.05615 14.7767C8.75424 11.7311 11.1206 9.36468 14.1443 7.65564C17.168 5.95755 20.619 5.10303 24.5081 5.10303C28.3973 5.10303 33.1848 6.24239 36.4167 8.52112C39.6485 10.7998 41.7848 13.955 42.8365 17.9976H32.2427V18.0085Z" fill="#727597"/>
<path d="M32.3193 18.0852C31.6072 16.7815 30.5883 15.7736 29.2627 15.0834C27.9371 14.3932 26.3814 14.0426 24.5848 14.0426C21.4844 14.0426 18.9975 15.0615 17.1351 17.0992C15.2727 19.1369 14.3305 21.8538 14.3305 25.25C14.3305 28.6462 15.3055 31.7027 17.2665 33.7405C19.2276 35.7782 21.9226 36.797 25.3626 36.797C28.8026 36.797 29.7009 36.1945 31.3333 35.0003C32.9547 33.8062 34.1488 32.0862 34.8938 29.8403H22.7333V22.785H43.5814V31.6918C42.8693 34.0801 41.6642 36.304 39.9662 38.3636C38.2681 40.4233 36.1099 42.0775 33.4915 43.3484C30.8732 44.6192 27.9262 45.2546 24.6395 45.2546C21.3529 45.2546 17.2885 44.4001 14.2428 42.702C11.1972 41.0039 8.83087 38.6375 7.12183 35.6138C5.42374 32.5901 4.56921 29.1282 4.56921 25.25C4.56921 21.3718 5.41278 17.8989 7.12183 14.8533C8.81991 11.8077 11.1863 9.44134 14.21 7.7323C17.2337 6.03421 20.6846 5.17969 24.5738 5.17969C28.463 5.17969 33.2505 6.31905 36.4823 8.59778C39.7142 10.8765 41.8505 14.0317 42.9022 18.0742H32.3083L32.3193 18.0852Z" fill="#727597"/>
<path d="M32.407 18.1506C31.6949 16.8469 30.6761 15.839 29.3505 15.1488C28.0249 14.4586 26.4692 14.108 24.6725 14.108C21.5721 14.108 19.0853 15.1269 17.2228 17.1646C15.3604 19.2023 14.4183 21.9193 14.4183 25.3154C14.4183 28.7116 15.3933 31.7682 17.3543 33.8059C19.3153 35.8436 22.0104 36.8624 25.4504 36.8624C28.8904 36.8624 29.7887 36.2599 31.4211 35.0658C33.0425 33.8716 34.2366 32.1516 34.9816 29.9058H22.8211V22.8505H43.6692V31.7572C42.9571 34.1455 41.752 36.3695 40.0539 38.4291C38.3558 40.4887 36.1976 42.143 33.5793 43.4138C30.9609 44.6846 28.0139 45.32 24.7273 45.32C21.4407 45.32 17.3762 44.4655 14.3306 42.7674C11.285 41.0693 8.91864 38.703 7.20959 35.6793C5.5115 32.6556 4.65698 29.1937 4.65698 25.3154C4.65698 21.4372 5.50055 17.9644 7.20959 14.9187C8.90768 11.8731 11.2741 9.50677 14.2977 7.79773C17.3214 6.09964 20.7724 5.24512 24.6616 5.24512C28.5507 5.24512 33.3383 6.38448 36.5701 8.66321C39.802 10.9419 41.9383 14.0971 42.99 18.1396H32.3961L32.407 18.1506Z" fill="#727597"/>
<path d="M32.4837 18.2277C31.7716 16.9241 30.7528 15.9162 29.4271 15.226C28.1015 14.5358 26.5459 14.1852 24.7492 14.1852C21.6488 14.1852 19.1619 15.2041 17.2995 17.2418C15.4371 19.2795 14.4949 21.9964 14.4949 25.3926C14.4949 28.7888 15.4699 31.8453 17.431 33.883C19.392 35.9207 22.087 36.9396 25.527 36.9396C28.967 36.9396 29.8654 36.337 31.4977 35.1429C33.1191 33.9488 34.3133 32.2288 35.0582 29.9829H22.8977V22.9276H43.7459V31.8344C43.0338 34.2227 41.8287 36.4466 40.1306 38.5062C38.4325 40.5658 36.2743 42.2201 33.6559 43.4909C31.0376 44.7618 28.0906 45.3972 24.804 45.3972C21.5173 45.3972 17.4529 44.5427 14.4073 42.8446C11.3617 41.1465 8.9953 38.7801 7.28625 35.7564C5.58816 32.7327 4.73364 29.2708 4.73364 25.3926C4.73364 21.5144 5.57721 18.0415 7.28625 14.9959C8.98434 11.9503 11.3507 9.58392 14.3744 7.87488C17.3981 6.17679 20.8491 5.32227 24.7382 5.32227C28.6274 5.32227 33.4149 6.46163 36.6468 8.74036C39.8786 11.0191 42.0149 14.1742 43.0666 18.2168H32.4728L32.4837 18.2277Z" fill="#727597"/>
<path d="M32.5604 18.3044C31.8483 17.0007 30.8294 15.9928 29.5038 15.3026C28.1782 14.6124 26.6225 14.2619 24.8258 14.2619C21.7255 14.2619 19.2386 15.2807 17.3762 17.3184C15.5137 19.3561 14.5716 22.0731 14.5716 25.4692C14.5716 28.8654 15.5466 31.922 17.5076 33.9597C19.4686 35.9974 22.1637 37.0163 25.6037 37.0163C29.0437 37.0163 29.942 36.4137 31.5744 35.2196C33.1958 34.0254 34.3899 32.3054 35.1349 30.0596H22.9744V23.0043H43.8225V31.911C43.1104 34.2993 41.9053 36.5233 40.2072 38.5829C38.5092 40.6425 36.3509 42.2968 33.7326 43.5676C31.1143 44.8384 28.1672 45.4738 24.8806 45.4738C21.594 45.4738 17.5295 44.6193 14.4839 42.9212C11.4383 41.2231 9.07196 38.8568 7.36291 35.8331C5.65387 32.8094 4.8103 29.3475 4.8103 25.4692C4.8103 21.591 5.65387 18.1182 7.36291 15.0726C9.061 12.027 11.4274 9.66058 14.4511 7.95154C17.4748 6.25345 20.9257 5.39893 24.8149 5.39893C28.7041 5.39893 33.4916 6.53829 36.7234 8.81702C39.9553 11.0957 42.0916 14.2509 43.1433 18.2934H32.5494L32.5604 18.3044Z" fill="#727597"/>
<path d="M32.648 18.3703C31.9359 17.0666 30.9171 16.0587 29.5915 15.3685C28.2658 14.6783 26.7102 14.3278 24.9135 14.3278C21.8131 14.3278 19.3262 15.3466 17.4638 17.3843C15.6014 19.422 14.6592 22.139 14.6592 25.5352C14.6592 28.9313 15.6343 31.9879 17.5953 34.0256C19.5563 36.0633 22.2513 37.0822 25.6913 37.0822C29.1313 37.0822 30.0297 36.4796 31.662 35.2855C33.2834 34.0913 34.4776 32.3713 35.2225 30.1255H23.062V23.0702H43.9102V31.977C43.1981 34.3652 41.993 36.5892 40.2949 38.6488C38.5968 40.7084 36.4386 42.3627 33.8202 43.6335C31.2019 44.9043 28.2549 45.5398 24.9683 45.5398C21.6816 45.5398 17.6172 44.6852 14.5716 42.9871C11.526 41.2891 9.15961 38.9227 7.45056 35.899C5.75247 32.8753 4.89795 29.4134 4.89795 25.5352C4.89795 21.6569 5.74152 18.1841 7.45056 15.1385C9.14865 12.0929 11.515 9.7265 14.5387 8.01746C17.5624 6.31937 21.0134 5.46484 24.9025 5.46484C28.7917 5.46484 33.5792 6.60421 36.8111 8.88293C40.0429 11.1617 42.1792 14.3168 43.2309 18.3594H32.6371L32.648 18.3703Z" fill="#727597"/>
<path d="M32.7247 18.446C32.0126 17.1423 30.9937 16.1344 29.6681 15.4442C28.3425 14.754 26.7868 14.4035 24.9902 14.4035C21.8898 14.4035 19.4029 15.4223 17.5405 17.46C15.6781 19.4977 14.7359 22.2147 14.7359 25.6108C14.7359 29.007 15.7109 32.0636 17.6719 34.1013C19.633 36.139 22.328 37.1579 25.768 37.1579C29.208 37.1579 30.1063 36.5553 31.7387 35.3612C33.3601 34.167 34.5542 32.447 35.2992 30.2012H23.1387V23.1459H43.9868V32.0526C43.2747 34.4409 42.0696 36.6649 40.3716 38.7245C38.6735 40.7841 36.5152 42.4384 33.8969 43.7092C31.2786 44.98 28.3316 45.6154 25.0449 45.6154C21.7583 45.6154 17.6938 44.7609 14.6482 43.0628C11.6026 41.3647 9.23627 38.9984 7.52722 35.9747C5.82913 32.951 4.97461 29.4891 4.97461 25.6108C4.97461 21.7326 5.81818 18.2598 7.52722 15.2142C9.22531 12.1686 11.5917 9.80218 14.6154 8.09314C17.6391 6.39505 21.09 5.54053 24.9792 5.54053C28.8684 5.54053 33.6559 6.67989 36.8877 8.95862C40.1196 11.2373 42.2559 14.3925 43.3076 18.4351H32.7137L32.7247 18.446Z" fill="#727597"/>
<path d="M32.8123 18.5232C32.1002 17.2195 31.0814 16.2116 29.7558 15.5214C28.4302 14.8312 26.8745 14.4806 25.0778 14.4806C21.9774 14.4806 19.4905 15.4995 17.6281 17.5372C15.7657 19.5749 14.8235 22.2918 14.8235 25.688C14.8235 29.0842 15.7986 32.1407 17.7596 34.1784C19.7206 36.2162 22.4156 37.235 25.8556 37.235C29.2956 37.235 30.194 36.6325 31.8263 35.4383C33.4477 34.2442 34.6419 32.5242 35.3868 30.2783H23.2263V23.223H44.0745V32.1298C43.3624 34.5181 42.1573 36.742 40.4592 38.8016C38.7611 40.8612 36.6029 42.5155 33.9846 43.7863C31.3662 45.0572 28.4192 45.6926 25.1326 45.6926C21.846 45.6926 17.7815 44.8381 14.7359 43.14C11.6903 41.4419 9.32391 39.0755 7.61487 36.0518C5.90582 33.0281 5.06226 29.5662 5.06226 25.688C5.06226 21.8098 5.90582 18.3369 7.61487 15.2913C9.31296 12.2457 11.6793 9.87933 14.703 8.17029C17.7267 6.4722 21.1777 5.61768 25.0668 5.61768C28.956 5.61768 33.7435 6.75704 36.9754 9.03577C40.2072 11.3145 42.3435 14.4697 43.3953 18.5122H32.8014L32.8123 18.5232Z" fill="#727597"/>
<path d="M32.8891 18.5886C32.177 17.2849 31.1581 16.277 29.8325 15.5868C28.5069 14.8966 26.9513 14.546 25.1546 14.546C22.0542 14.546 19.5673 15.5649 17.7049 17.6026C15.8425 19.6403 14.9003 22.3572 14.9003 25.7534C14.9003 29.1496 15.8753 32.2062 17.8364 34.2439C19.7974 36.2816 22.4924 37.3004 25.9324 37.3004C29.3724 37.3004 30.2708 36.6979 31.9031 35.5037C33.5245 34.3096 34.7187 32.5896 35.4636 30.3437H23.3031V23.2885H44.1513V32.1952C43.4392 34.5835 42.2341 36.8074 40.536 38.8671C38.8379 40.9267 36.6797 42.5809 34.0613 43.8518C31.443 45.1226 28.496 45.758 25.2094 45.758C21.9227 45.758 17.8583 44.9035 14.8127 43.2054C11.7671 41.5073 9.40069 39.1409 7.69165 36.1173C5.9826 33.0936 5.13904 29.6316 5.13904 25.7534C5.13904 21.8752 5.9826 18.4023 7.69165 15.3567C9.38974 12.3111 11.7561 9.94476 14.7798 8.23572C17.8035 6.53763 21.2545 5.68311 25.1436 5.68311C29.0328 5.68311 33.8203 6.82247 37.0522 9.1012C40.284 11.3799 42.4203 14.5351 43.472 18.5776H32.8781L32.8891 18.5886Z" fill="#727597"/>
<path d="M32.9658 18.6652C32.2537 17.3616 31.2348 16.3537 29.9092 15.6635C28.5836 14.9733 27.0279 14.6227 25.2312 14.6227C22.1309 14.6227 19.644 15.6416 17.7816 17.6793C15.9191 19.717 14.977 22.4339 14.977 25.8301C14.977 29.2263 15.952 32.2828 17.913 34.3205C19.874 36.3582 22.5691 37.3771 26.0091 37.3771C29.4491 37.3771 30.3474 36.7745 31.9798 35.5804C33.6012 34.3863 34.7953 32.6663 35.5403 30.4204H23.3798V23.3651H44.2279V32.2719C43.5158 34.6602 42.3107 36.8841 40.6126 38.9437C38.9146 41.0033 36.7563 42.6576 34.138 43.9284C31.5196 45.1993 28.5726 45.8347 25.286 45.8347C21.9994 45.8347 17.9349 44.9802 14.8893 43.2821C11.8437 41.584 9.47736 39.2176 7.76831 36.1939C6.07022 33.1702 5.2157 29.7083 5.2157 25.8301C5.2157 21.9519 6.05927 18.479 7.76831 15.4334C9.4664 12.3878 11.8328 10.0214 14.8565 8.31238C17.8802 6.61429 21.3311 5.75977 25.2203 5.75977C29.1095 5.75977 33.897 6.89913 37.1288 9.17786C40.3607 11.4566 42.497 14.6117 43.5487 18.6543H32.9548L32.9658 18.6652Z" fill="#727597"/>
<path d="M33.0533 18.7424C32.3412 17.4387 31.3223 16.4308 29.9967 15.7406C28.6711 15.0504 27.1155 14.6998 25.3188 14.6998C22.2184 14.6998 19.7315 15.7187 17.8691 17.7564C16.0067 19.7941 15.0645 22.5111 15.0645 25.9072C15.0645 29.3034 16.0395 32.36 18.0005 34.3977C19.9616 36.4354 22.6566 37.4542 26.0966 37.4542C29.5366 37.4542 30.4349 36.8517 32.0673 35.6576C33.6887 34.4634 34.8828 32.7434 35.6278 30.4976H23.4673V23.4423H44.3155V32.349C43.6034 34.7373 42.3983 36.9613 40.7002 39.0209C39.0021 41.0805 36.8439 42.7348 34.2255 44.0056C31.6072 45.2764 28.6602 45.9118 25.3735 45.9118C22.0869 45.9118 18.0225 45.0573 14.9769 43.3592C11.9312 41.6611 9.56488 39.2948 7.85583 36.2711C6.14679 33.2474 5.30322 29.7855 5.30322 25.9072C5.30322 22.029 6.14679 18.5562 7.85583 15.5105C9.55392 12.4649 11.9203 10.0986 14.944 8.38953C17.9677 6.69144 21.4186 5.83691 25.3078 5.83691C29.197 5.83691 33.9845 6.97628 37.2163 9.255C40.4482 11.5337 42.5845 14.6889 43.6362 18.7314H33.0423L33.0533 18.7424Z" fill="#727597"/>
<path d="M33.1301 18.8083C32.418 17.5046 31.3991 16.4967 30.0735 15.8065C28.7479 15.1163 27.1922 14.7658 25.3955 14.7658C22.2952 14.7658 19.8083 15.7846 17.9459 17.8223C16.0834 19.86 15.1413 22.577 15.1413 25.9732C15.1413 29.3693 16.1163 32.4259 18.0773 34.4636C20.0384 36.5013 22.7334 37.5202 26.1734 37.5202C29.6134 37.5202 30.5117 36.9176 32.1441 35.7235C33.7655 34.5293 34.9596 32.8093 35.7046 30.5635H23.5441V23.5082H44.3922V32.4149C43.6801 34.8032 42.475 37.0272 40.777 39.0868C39.0789 41.1464 36.9206 42.8007 34.3023 44.0715C31.684 45.3423 28.7369 45.9777 25.4503 45.9777C22.1637 45.9777 18.0992 45.1232 15.0536 43.4251C12.008 41.727 9.64166 39.3607 7.93262 36.337C6.22357 33.3133 5.38 29.8514 5.38 25.9732C5.38 22.0949 6.22357 18.6221 7.93262 15.5765C9.63071 12.5309 11.9971 10.1645 15.0208 8.45544C18.0445 6.75735 21.4954 5.90283 25.3846 5.90283C29.2738 5.90283 34.0613 7.0422 37.2931 9.32092C40.525 11.5996 42.6613 14.7548 43.713 18.7974H33.1191L33.1301 18.8083Z" fill="#727597"/>
<path d="M33.2067 18.8855C32.4946 17.5818 31.4758 16.5739 30.1502 15.8837C28.8246 15.1935 27.2689 14.8429 25.4722 14.8429C22.3718 14.8429 19.8849 15.8618 18.0225 17.8995C16.1601 19.9372 15.2179 22.6541 15.2179 26.0503C15.2179 29.4465 16.193 32.503 18.154 34.5407C20.115 36.5785 22.81 37.5973 26.25 37.5973C29.69 37.5973 30.5884 36.9948 32.2207 35.8006C33.8421 34.6065 35.0363 32.8865 35.7813 30.6406H23.6207V23.5853H44.4689V32.4921C43.7568 34.8804 42.5517 37.1043 40.8536 39.1639C39.1555 41.2236 36.9973 42.8778 34.379 44.1487C31.7606 45.4195 28.8136 46.0549 25.527 46.0549C22.2404 46.0549 18.1759 45.2004 15.1303 43.5023C12.0847 41.8042 9.71832 39.4378 8.00928 36.4141C6.30023 33.3904 5.45667 29.9285 5.45667 26.0503C5.45667 22.1721 6.30023 18.6992 8.00928 15.6536C9.70737 12.608 12.0737 10.2416 15.0974 8.53259C18.1211 6.8345 21.5721 5.97998 25.4613 5.97998C29.3504 5.97998 34.1379 7.11934 37.3698 9.39807C40.6016 11.6768 42.7379 14.832 43.7897 18.8745H33.1958L33.2067 18.8855Z" fill="#727597"/>
<path d="M33.2944 18.9621C32.5823 17.6584 31.5634 16.6505 30.2378 15.9603C28.9122 15.2701 27.3565 14.9196 25.5599 14.9196C22.4595 14.9196 19.9726 15.9384 18.1102 17.9761C16.2478 20.0138 15.3056 22.7308 15.3056 26.127C15.3056 29.5231 16.2806 32.5797 18.2416 34.6174C20.2027 36.6551 22.8977 37.674 26.3377 37.674C29.7777 37.674 30.676 37.0714 32.3084 35.8773C33.9298 34.6831 35.1239 32.9631 35.8689 30.7173H23.7084V23.662H44.5565V32.5687C43.8444 34.957 42.6393 37.181 40.9413 39.2406C39.2432 41.3002 37.085 42.9545 34.4666 44.2253C31.8483 45.4961 28.9013 46.1316 25.6146 46.1316C22.328 46.1316 18.2635 45.277 15.2179 43.5789C12.1723 41.8809 9.80597 39.5145 8.09692 36.4908C6.38788 33.4671 5.54431 30.0052 5.54431 26.127C5.54431 22.2487 6.38788 18.7759 8.09692 15.7303C9.79501 12.6847 12.1614 10.3183 15.1851 8.60925C18.2088 6.91116 21.6597 6.05664 25.5489 6.05664C29.4381 6.05664 34.2256 7.196 37.4574 9.47473C40.6893 11.7535 42.8256 14.9086 43.8773 18.9512H33.2834L33.2944 18.9621Z" fill="#727597"/>
<path d="M33.371 19.0261C32.6589 17.7224 31.6401 16.7145 30.3145 16.0243C28.9889 15.3341 27.4332 14.9835 25.6365 14.9835C22.5361 14.9835 20.0493 16.0024 18.1868 18.0401C16.3244 20.0778 15.3822 22.7947 15.3822 26.1909C15.3822 29.5871 16.3573 32.6437 18.3183 34.6814C20.2793 36.7191 22.9743 37.7379 26.4143 37.7379C29.8543 37.7379 30.7527 37.1354 32.385 35.9412C34.0065 34.7471 35.2006 33.0271 35.9456 30.7812H23.785V23.726H44.6332V32.6327C43.9211 35.021 42.716 37.2449 41.0179 39.3046C39.3198 41.3642 37.1616 43.0184 34.5433 44.2893C31.9249 45.5601 28.9779 46.1955 25.6913 46.1955C22.4047 46.1955 18.3402 45.341 15.2946 43.6429C12.249 41.9448 9.88263 39.5784 8.17358 36.5548C6.46454 33.5311 5.62097 30.0691 5.62097 26.1909C5.62097 22.3127 6.46454 18.8398 8.17358 15.7942C9.87167 12.7486 12.238 10.3823 15.2617 8.67322C18.2854 6.97513 21.7364 6.12061 25.6256 6.12061C29.5147 6.12061 34.3022 7.25997 37.5341 9.5387C40.7659 11.8174 42.9022 14.9726 43.954 19.0151H33.3601L33.371 19.0261Z" fill="#727597"/>
<path d="M33.4587 19.1032C32.7466 17.7995 31.7277 16.7916 30.4021 16.1015C29.0765 15.4113 27.5209 15.0607 25.7242 15.0607C22.6238 15.0607 20.1369 16.0795 18.2745 18.1172C16.4121 20.155 15.4699 22.8719 15.4699 26.2681C15.4699 29.6643 16.4449 32.7208 18.4059 34.7585C20.367 36.7962 23.062 37.8151 26.502 37.8151C29.942 37.8151 30.8403 37.2125 32.4727 36.0184C34.0941 34.8243 35.2882 33.1043 36.0332 30.8584H23.8727V23.8031H44.7209V32.7099C44.0088 35.0981 42.8037 37.3221 41.1056 39.3817C39.4075 41.4413 37.2493 43.0956 34.6309 44.3664C32.0126 45.6373 29.0656 46.2727 25.7789 46.2727C22.4923 46.2727 18.4279 45.4181 15.3822 43.7201C12.3366 42.022 9.97027 39.6556 8.26123 36.6319C6.56314 33.6082 5.70862 30.1463 5.70862 26.2681C5.70862 22.3899 6.55219 18.917 8.26123 15.8714C9.95932 12.8258 12.3257 10.4594 15.3494 8.75037C18.3731 7.05228 21.824 6.19775 25.7132 6.19775C29.6024 6.19775 34.3899 7.33712 37.6217 9.61584C40.8536 11.8946 42.9899 15.0497 44.0416 19.0923H33.4477L33.4587 19.1032Z" fill="#727597"/>
<path d="M33.5353 19.1809C32.8232 17.8772 31.8044 16.8693 30.4788 16.1791C29.1532 15.4889 27.5975 15.1383 25.8008 15.1383C22.7004 15.1383 20.2136 16.1572 18.3511 18.1949C16.4887 20.2326 15.5466 22.9495 15.5466 26.3457C15.5466 29.7419 16.5216 32.7985 18.4826 34.8362C20.4436 36.8739 23.1387 37.8927 26.5787 37.8927C30.0187 37.8927 30.917 37.2902 32.5494 36.096C34.1708 34.9019 35.3649 33.1819 36.1099 30.936H23.9494V23.8807H44.7975V32.7875C44.0854 35.1758 42.8803 37.3997 41.1822 39.4593C39.4841 41.519 37.3259 43.1732 34.7076 44.4441C32.0892 45.7149 29.1422 46.3503 25.8556 46.3503C22.569 46.3503 18.5045 45.4958 15.4589 43.7977C12.4133 42.0996 10.0469 39.7332 8.33789 36.7095C6.62885 33.6858 5.78528 30.2239 5.78528 26.3457C5.78528 22.4675 6.62885 18.9946 8.33789 15.949C10.036 12.9034 12.4023 10.537 15.426 8.828C18.4497 7.12991 21.9007 6.27539 25.7899 6.27539C29.679 6.27539 34.4666 7.41475 37.6984 9.69348C40.9302 11.9722 43.0666 15.1274 44.1183 19.1699H33.5244L33.5353 19.1809Z" fill="#727597"/>
<path d="M33.6121 19.2463C32.9 17.9426 31.8812 16.9347 30.5556 16.2445C29.23 15.5543 27.6743 15.2038 25.8776 15.2038C22.7772 15.2038 20.2903 16.2226 18.4279 18.2603C16.5655 20.298 15.6233 23.015 15.6233 26.4111C15.6233 29.8073 16.5984 32.8639 18.5594 34.9016C20.5204 36.9393 23.2154 37.9582 26.6554 37.9582C30.0954 37.9582 30.9938 37.3556 32.6261 36.1615C34.2475 34.9673 35.4417 33.2473 36.1867 31.0015H24.0261V23.9462H44.8743V32.8529C44.1622 35.2412 42.9571 37.4652 41.259 39.5248C39.5609 41.5844 37.4027 43.2387 34.7844 44.5095C32.166 45.7803 29.219 46.4157 25.9324 46.4157C22.6458 46.4157 18.5813 45.5612 15.5357 43.8631C12.4901 42.165 10.1237 39.7987 8.41467 36.775C6.70563 33.7513 5.86206 30.2894 5.86206 26.4111C5.86206 22.5329 6.70563 19.0601 8.41467 16.0145C10.1128 12.9688 12.4791 10.6025 15.5028 8.89343C18.5265 7.19534 21.9775 6.34082 25.8666 6.34082C29.7558 6.34082 34.5433 7.48018 37.7752 9.75891C41.007 12.0376 43.1433 15.1928 44.1951 19.2353H33.6012L33.6121 19.2463Z" fill="#727597"/>
<path d="M33.6998 19.3225C32.9877 18.0188 31.9688 17.0109 30.6432 16.3207C29.3176 15.6305 27.7619 15.2799 25.9653 15.2799C22.8649 15.2799 20.378 16.2988 18.5156 18.3365C16.6531 20.3742 15.711 23.0911 15.711 26.4873C15.711 29.8835 16.686 32.9401 18.647 34.9778C20.6081 37.0155 23.3031 38.0343 26.7431 38.0343C30.1831 38.0343 31.0814 37.4318 32.7138 36.2376C34.3352 35.0435 35.5293 33.3235 36.2743 31.0776H24.1138V24.0223H44.9619V32.9291C44.2498 35.3174 43.0447 37.5413 41.3467 39.6009C39.6486 41.6606 37.4903 43.3148 34.872 44.5857C32.2537 45.8565 29.3067 46.4919 26.02 46.4919C22.7334 46.4919 18.6689 45.6374 15.6233 43.9393C12.5777 42.2412 10.2114 39.8748 8.50232 36.8511C6.79327 33.8274 5.94971 30.3655 5.94971 26.4873C5.94971 22.6091 6.79327 19.1362 8.50232 16.0906C10.2004 13.045 12.5668 10.6786 15.5905 8.9696C18.6142 7.27151 22.0651 6.41699 25.9543 6.41699C29.8435 6.41699 34.631 7.55636 37.8628 9.83508C41.0947 12.1138 43.231 15.269 44.2827 19.3115H33.6888L33.6998 19.3225Z" fill="#727597"/>
<path d="M33.7764 19.4001C33.0643 18.0964 32.0455 17.0885 30.7199 16.3983C29.3943 15.7081 27.8386 15.3576 26.0419 15.3576C22.9415 15.3576 20.4546 16.3764 18.5922 18.4141C16.7298 20.4518 15.7876 23.1688 15.7876 26.565C15.7876 29.9611 16.7627 33.0177 18.7237 35.0554C20.6847 37.0931 23.3797 38.112 26.8197 38.112C30.2597 38.112 31.1581 37.5094 32.7904 36.3153C34.4118 35.1211 35.606 33.4011 36.351 31.1553H24.1904V24.1H45.0386V33.0067C44.3265 35.395 43.1214 37.619 41.4233 39.6786C39.7252 41.7382 37.567 43.3925 34.9487 44.6633C32.3303 45.9341 29.3833 46.5695 26.0967 46.5695C22.8101 46.5695 18.7456 45.715 15.7 44.0169C12.6544 42.3188 10.288 39.9525 8.57898 36.9288C6.86993 33.9051 6.02637 30.4432 6.02637 26.565C6.02637 22.6867 6.86993 19.2139 8.57898 16.1683C10.2771 13.1227 12.6434 10.7563 15.6671 9.04724C18.6908 7.34915 22.1418 6.49463 26.031 6.49463C29.9201 6.49463 34.7076 7.63399 37.9395 9.91272C41.1713 12.1914 43.3076 15.3466 44.3594 19.3892H33.7655L33.7764 19.4001Z" fill="#727597"/>
<path d="M33.864 19.4651C33.1519 18.1614 32.133 17.1535 30.8074 16.4633C29.4818 15.7731 27.9261 15.4225 26.1294 15.4225C23.0291 15.4225 20.5422 16.4414 18.6798 18.4791C16.8173 20.5168 15.8752 23.2337 15.8752 26.6299C15.8752 30.0261 16.8502 33.0826 18.8112 35.1203C20.7722 37.1581 23.4673 38.1769 26.9073 38.1769C30.3473 38.1769 31.2456 37.5744 32.878 36.3802C34.4994 35.1861 35.6935 33.4661 36.4385 31.2202H24.278V24.1649H45.1261V33.0717C44.414 35.46 43.2089 37.6839 41.5108 39.7435C39.8127 41.8031 37.6545 43.4574 35.0362 44.7282C32.4178 45.9991 29.4708 46.6345 26.1842 46.6345C22.8976 46.6345 18.8331 45.78 15.7875 44.0819C12.7419 42.3838 10.3755 40.0174 8.6665 36.9937C6.95746 33.97 6.11389 30.5081 6.11389 26.6299C6.11389 22.7517 6.95746 19.2788 8.6665 16.2332C10.3646 13.1876 12.731 10.8212 15.7547 9.11218C18.7784 7.41409 22.2293 6.55957 26.1185 6.55957C30.0077 6.55957 34.7952 7.69893 38.027 9.97766C41.2589 12.2564 43.3952 15.4115 44.4469 19.4541H33.853L33.864 19.4651Z" fill="#727597"/>
<path d="M33.9407 19.5427C33.2286 18.239 32.2098 17.2311 30.8842 16.5409C29.5586 15.8507 28.0029 15.5001 26.2062 15.5001C23.1058 15.5001 20.619 16.519 18.7565 18.5567C16.8941 20.5944 15.9519 23.3113 15.9519 26.7075C15.9519 30.1037 16.927 33.1603 18.888 35.198C20.849 37.2357 23.5441 38.2545 26.9841 38.2545C30.4241 38.2545 31.3224 37.652 32.9548 36.4578C34.5762 35.2637 35.7703 33.5437 36.5153 31.2978H24.3548V24.2426H45.2029V33.1493C44.4908 35.5376 43.2857 37.7615 41.5876 39.8212C39.8895 41.8808 37.7313 43.535 35.113 44.8059C32.4946 46.0767 29.5476 46.7121 26.261 46.7121C22.9744 46.7121 18.9099 45.8576 15.8643 44.1595C12.8187 42.4614 10.4523 40.095 8.74329 37.0714C7.03424 34.0477 6.19067 30.5857 6.19067 26.7075C6.19067 22.8293 7.03424 19.3564 8.74329 16.3108C10.4414 13.2652 12.8077 10.8989 15.8314 9.18982C18.8551 7.49173 22.3061 6.63721 26.1953 6.63721C30.0844 6.63721 34.872 7.77657 38.1038 10.0553C41.3356 12.334 43.472 15.4892 44.5237 19.5317H33.9298L33.9407 19.5427Z" fill="#727597"/>
<path d="M34.0174 19.6189C33.3053 18.3152 32.2864 17.3073 30.9608 16.6171C29.6352 15.9269 28.0796 15.5763 26.2829 15.5763C23.1825 15.5763 20.6956 16.5952 18.8332 18.6329C16.9708 20.6706 16.0286 23.3875 16.0286 26.7837C16.0286 30.1799 17.0036 33.2364 18.9647 35.2741C20.9257 37.3119 23.6207 38.3307 27.0607 38.3307C30.5007 38.3307 31.3991 37.7282 33.0314 36.534C34.6528 35.3399 35.847 33.6199 36.5919 31.374H24.4314V24.3187H45.2796V33.2255C44.5675 35.6138 43.3624 37.8377 41.6643 39.8973C39.9662 41.957 37.808 43.6112 35.1896 44.882C32.5713 46.1529 29.6243 46.7883 26.3377 46.7883C23.051 46.7883 18.9866 45.9338 15.941 44.2357C12.8954 42.5376 10.529 40.1712 8.81995 37.1475C7.12186 34.1238 6.26733 30.6619 6.26733 26.7837C6.26733 22.9055 7.1109 19.4326 8.81995 16.387C10.518 13.3414 12.8844 10.975 15.9081 9.26599C18.9318 7.5679 22.3827 6.71338 26.2719 6.71338C30.1611 6.71338 34.9486 7.85274 38.1805 10.1315C41.4123 12.4102 43.5486 15.5654 44.6003 19.6079H34.0064L34.0174 19.6189Z" fill="#727597"/>
<path d="M34.105 19.6853C33.3929 18.3816 32.3741 17.3737 31.0485 16.6835C29.7229 15.9933 28.1672 15.6427 26.3705 15.6427C23.2701 15.6427 20.7833 16.6616 18.9208 18.6993C17.0584 20.737 16.1163 23.4539 16.1163 26.8501C16.1163 30.2463 17.0913 33.3028 19.0523 35.3406C21.0133 37.3783 23.7084 38.3971 27.1484 38.3971C30.5884 38.3971 31.4867 37.7946 33.1191 36.6004C34.7405 35.4063 35.9346 33.6863 36.6796 31.4404H24.5191V24.3851H45.3672V33.2919C44.6551 35.6802 43.45 37.9041 41.7519 39.9637C40.0538 42.0234 37.8956 43.6776 35.2773 44.9485C32.6589 46.2193 29.7119 46.8547 26.4253 46.8547C23.1387 46.8547 19.0742 46.0002 16.0286 44.3021C12.983 42.604 10.6166 40.2376 8.90759 37.2139C7.19855 34.1902 6.35498 30.7283 6.35498 26.8501C6.35498 22.9719 7.19855 19.499 8.90759 16.4534C10.6057 13.4078 12.9721 11.0414 15.9957 9.3324C19.0194 7.63431 22.4704 6.77979 26.3596 6.77979C30.2487 6.77979 35.0363 7.91915 38.2681 10.1979C41.5 12.4766 43.6363 15.6318 44.688 19.6743H34.0941L34.105 19.6853Z" fill="#727597"/>
<path d="M34.1817 19.761C33.4696 18.4573 32.4508 17.4494 31.1251 16.7592C29.7995 16.069 28.2439 15.7184 26.4472 15.7184C23.3468 15.7184 20.8599 16.7373 18.9975 18.775C17.1351 20.8127 16.1929 23.5296 16.1929 26.9258C16.1929 30.322 17.1679 33.3785 19.129 35.4162C21.09 37.4539 23.785 38.4728 27.225 38.4728C30.665 38.4728 31.5634 37.8703 33.1957 36.6761C34.8171 35.482 36.0113 33.762 36.7562 31.5161H24.5957V24.4608H45.4439V33.3676C44.7318 35.7559 43.5267 37.9798 41.8286 40.0394C40.1305 42.099 37.9723 43.7533 35.3539 45.0241C32.7356 46.295 29.7886 46.9304 26.502 46.9304C23.2153 46.9304 19.1509 46.0759 16.1053 44.3778C13.0597 42.6797 10.6933 40.3133 8.98425 37.2896C7.27521 34.2659 6.43164 30.804 6.43164 26.9258C6.43164 23.0476 7.27521 19.5747 8.98425 16.5291C10.6823 13.4835 13.0487 11.1171 16.0724 9.40808C19.0961 7.70999 22.5471 6.85547 26.4362 6.85547C30.3254 6.85547 35.1129 7.99483 38.3448 10.2736C41.5766 12.5523 43.7129 15.7074 44.7646 19.75H34.1708L34.1817 19.761Z" fill="#727597"/>
<path d="M34.2585 19.8376C33.5464 18.5339 32.5275 17.526 31.2019 16.8358C29.8763 16.1456 28.3207 15.7951 26.524 15.7951C23.4236 15.7951 20.9367 16.8139 19.0743 18.8516C17.2119 20.8893 16.2697 23.6063 16.2697 27.0025C16.2697 30.3986 17.2447 33.4552 19.2057 35.4929C21.1668 37.5306 23.8618 38.5495 27.3018 38.5495C30.7418 38.5495 31.6401 37.9469 33.2725 36.7528C34.8939 35.5586 36.088 33.8386 36.833 31.5928H24.6725V24.5375H45.5207V33.4442C44.8086 35.8325 43.6035 38.0565 41.9054 40.1161C40.2073 42.1757 38.0491 43.83 35.4307 45.1008C32.8124 46.3716 29.8654 47.007 26.5787 47.007C23.2921 47.007 19.2277 46.1525 16.1821 44.4544C13.1364 42.7563 10.7701 40.39 9.06103 37.3663C7.35199 34.3426 6.50842 30.8807 6.50842 27.0025C6.50842 23.1242 7.35199 19.6514 9.06103 16.6058C10.7591 13.5602 13.1255 11.1938 16.1492 9.48474C19.1729 7.78665 22.6238 6.93213 26.513 6.93213C30.4022 6.93213 35.1897 8.07149 38.4215 10.3502C41.6534 12.6289 43.7897 15.7841 44.8414 19.8267H34.2475L34.2585 19.8376Z" fill="#727597"/>
<path d="M34.3461 19.9035C33.634 18.5998 32.6152 17.5919 31.2896 16.9017C29.964 16.2116 28.4083 15.861 26.6116 15.861C23.5112 15.861 21.0244 16.8798 19.1619 18.9175C17.2995 20.9552 16.3573 23.6722 16.3573 27.0684C16.3573 30.4645 17.3324 33.5211 19.2934 35.5588C21.2544 37.5965 23.9494 38.6154 27.3894 38.6154C30.8294 38.6154 31.7278 38.0128 33.3601 36.8187C34.9815 35.6246 36.1757 33.9046 36.9207 31.6587H24.7601V24.6034H45.6083V33.5102C44.8962 35.8984 43.6911 38.1224 41.993 40.182C40.2949 42.2416 38.1367 43.8959 35.5184 45.1667C32.9 46.4375 29.953 47.073 26.6664 47.073C23.3798 47.073 19.3153 46.2184 16.2697 44.5203C13.2241 42.8223 10.8577 40.4559 9.14868 37.4322C7.43964 34.4085 6.59607 30.9466 6.59607 27.0684C6.59607 23.1902 7.43964 19.7173 9.14868 16.6717C10.8468 13.6261 13.2131 11.2597 16.2368 9.55066C19.2605 7.85257 22.7115 6.99805 26.6007 6.99805C30.4898 6.99805 35.2773 8.13741 38.5092 10.4161C41.741 12.6949 43.8773 15.85 44.9291 19.8926H34.3352L34.3461 19.9035Z" fill="#727597"/>
<path d="M34.4228 19.9802C33.7107 18.6765 32.6918 17.6686 31.3662 16.9784C30.0406 16.2882 28.485 15.9376 26.6883 15.9376C23.5879 15.9376 21.101 16.9565 19.2386 18.9942C17.3762 21.0319 16.434 23.7488 16.434 27.145C16.434 30.5412 17.409 33.5978 19.3701 35.6355C21.3311 37.6732 24.0261 38.692 27.4661 38.692C30.9061 38.692 31.8045 38.0895 33.4368 36.8953C35.0582 35.7012 36.2523 33.9812 36.9973 31.7353H24.8368V24.6801H45.685V33.5868C44.9729 35.9751 43.7678 38.199 42.0697 40.2587C40.3716 42.3183 38.2134 43.9725 35.595 45.2434C32.9767 46.5142 30.0297 47.1496 26.743 47.1496C23.4564 47.1496 19.392 46.2951 16.3464 44.597C13.3008 42.8989 10.9344 40.5325 9.22534 37.5089C7.5163 34.4852 6.67273 31.0232 6.67273 27.145C6.67273 23.2668 7.5163 19.7939 9.22534 16.7483C10.9234 13.7027 13.2898 11.3364 16.3135 9.62732C19.3372 7.92923 22.7881 7.07471 26.6773 7.07471C30.5665 7.07471 35.354 8.21407 38.5859 10.4928C41.8177 12.7715 43.954 15.9267 45.0057 19.9692H34.4118L34.4228 19.9802Z" fill="#727597"/>
<path d="M34.5104 20.0568C33.7983 18.7532 32.7795 17.7453 31.4539 17.0551C30.1283 16.3649 28.5726 16.0143 26.7759 16.0143C23.6755 16.0143 21.1887 17.0332 19.3262 19.0709C17.4638 21.1086 16.5217 23.8255 16.5217 27.2217C16.5217 30.6179 17.4967 33.6744 19.4577 35.7121C21.4187 37.7498 24.1138 38.7687 27.5538 38.7687C30.9938 38.7687 31.8921 38.1662 33.5245 36.972C35.1459 35.7779 36.34 34.0579 37.085 31.812H24.9245V24.7567H45.7726V33.6635C45.0605 36.0518 43.8554 38.2757 42.1573 40.3353C40.4592 42.3949 38.301 44.0492 35.6827 45.32C33.0643 46.5909 30.1173 47.2263 26.8307 47.2263C23.5441 47.2263 19.4796 46.3718 16.434 44.6737C13.3884 42.9756 11.022 40.6092 9.31299 37.5855C7.60394 34.5618 6.76038 31.0999 6.76038 27.2217C6.76038 23.3435 7.60394 19.8706 9.31299 16.825C11.0111 13.7794 13.3774 11.413 16.4011 9.70398C19.4248 8.00589 22.8758 7.15137 26.765 7.15137C30.6541 7.15137 35.4417 8.29073 38.6735 10.5695C41.9053 12.8482 44.0417 16.0033 45.0934 20.0459H34.4995L34.5104 20.0568Z" fill="#727597"/>
<path d="M34.5871 20.1228C33.875 18.8191 32.8561 17.8112 31.5305 17.121C30.2049 16.4308 28.6493 16.0802 26.8526 16.0802C23.7522 16.0802 21.2653 17.0991 19.4029 19.1368C17.5405 21.1745 16.5983 23.8914 16.5983 27.2876C16.5983 30.6838 17.5733 33.7403 19.5344 35.7781C21.4954 37.8158 24.1904 38.8346 27.6304 38.8346C31.0704 38.8346 31.9688 38.2321 33.6011 37.0379C35.2225 35.8438 36.4167 34.1238 37.1616 31.8779H25.0011V24.8226H45.8493V33.7294C45.1372 36.1177 43.9321 38.3416 42.234 40.4012C40.5359 42.4609 38.3777 44.1151 35.7593 45.386C33.141 46.6568 30.194 47.2922 26.9074 47.2922C23.6207 47.2922 19.5563 46.4377 16.5107 44.7396C13.4651 43.0415 11.0987 40.6751 9.38965 37.6514C7.6806 34.6277 6.83704 31.1658 6.83704 27.2876C6.83704 23.4094 7.6806 19.9365 9.38965 16.8909C11.0877 13.8453 13.4541 11.4789 16.4778 9.7699C19.5015 8.07181 22.9525 7.21729 26.8416 7.21729C30.7308 7.21729 35.5183 8.35665 38.7502 10.6354C41.982 12.9141 44.1183 16.0693 45.17 20.1118H34.5761L34.5871 20.1228Z" fill="#727597"/>
<path d="M34.6638 20.1994C33.9517 18.8957 32.9328 17.8878 31.6072 17.1976C30.2816 16.5075 28.7259 16.1569 26.9292 16.1569C23.8289 16.1569 21.342 17.1757 19.4796 19.2134C17.6171 21.2511 16.675 23.9681 16.675 27.3643C16.675 30.7604 17.65 33.817 19.611 35.8547C21.572 37.8924 24.2671 38.9113 27.7071 38.9113C31.1471 38.9113 32.0454 38.3087 33.6778 37.1146C35.2992 35.9204 36.4933 34.2004 37.2383 31.9546H25.0778V24.8993H45.9259V33.8061C45.2138 36.1943 44.0087 38.4183 42.3106 40.4779C40.6126 42.5375 38.4543 44.1918 35.836 45.4626C33.2176 46.7334 30.2706 47.3689 26.984 47.3689C23.6974 47.3689 19.6329 46.5143 16.5873 44.8162C13.5417 43.1182 11.1754 40.7518 9.46631 37.7281C7.75726 34.7044 6.9137 31.2425 6.9137 27.3643C6.9137 23.486 7.75726 20.0132 9.46631 16.9676C11.1644 13.922 13.5308 11.5556 16.5545 9.84656C19.5782 8.14847 23.0291 7.29395 26.9183 7.29395C30.8075 7.29395 35.595 8.43331 38.8268 10.712C42.0587 12.9908 44.195 16.1459 45.2467 20.1885H34.6528L34.6638 20.1994Z" fill="#727597"/>
<path d="M34.7515 20.2761C34.0394 18.9724 33.0206 17.9645 31.695 17.2743C30.3694 16.5841 28.8137 16.2335 27.017 16.2335C23.9166 16.2335 21.4297 17.2524 19.5673 19.2901C17.7049 21.3278 16.7627 24.0448 16.7627 27.4409C16.7627 30.8371 17.7378 33.8937 19.6988 35.9314C21.6598 37.9691 24.3548 38.9879 27.7948 38.9879C31.2348 38.9879 32.1332 38.3854 33.7655 37.1912C35.3869 35.9971 36.5811 34.2771 37.3261 32.0312H25.1655V24.976H46.0137V33.8827C45.3016 36.271 44.0965 38.4949 42.3984 40.5546C40.7003 42.6142 38.5421 44.2684 35.9238 45.5393C33.3054 46.8101 30.3584 47.4455 27.0718 47.4455C23.7852 47.4455 19.7207 46.591 16.6751 44.8929C13.6295 43.1948 11.2631 40.8284 9.55408 37.8048C7.84503 34.7811 7.00146 31.3191 7.00146 27.4409C7.00146 23.5627 7.84503 20.0898 9.55408 17.0442C11.2522 13.9986 13.6185 11.6323 16.6422 9.92322C19.6659 8.22513 23.1169 7.37061 27.0061 7.37061C30.8952 7.37061 35.6827 8.50997 38.9146 10.7887C42.1464 13.0674 44.2827 16.2226 45.3345 20.2651H34.7406L34.7515 20.2761Z" fill="#727597"/>
<path d="M34.8281 20.342C34.116 19.0383 33.0971 18.0304 31.7715 17.3402C30.4459 16.65 28.8902 16.2995 27.0935 16.2995C23.9932 16.2995 21.5063 17.3183 19.6439 19.356C17.7814 21.3937 16.8393 24.1107 16.8393 27.5068C16.8393 30.903 17.8143 33.9596 19.7753 35.9973C21.7363 38.035 24.4314 39.0539 27.8714 39.0539C31.3114 39.0539 32.2097 38.4513 33.8421 37.2572C35.4635 36.063 36.6576 34.343 37.4026 32.0972H25.2421V25.0419H46.0902V33.9486C45.3781 36.3369 44.173 38.5609 42.4749 40.6205C40.7769 42.6801 38.6186 44.3344 36.0003 45.6052C33.382 46.876 30.4349 47.5114 27.1483 47.5114C23.8617 47.5114 19.7972 46.6569 16.7516 44.9588C13.706 43.2607 11.3397 40.8944 9.63061 37.8707C7.92157 34.847 7.078 31.3851 7.078 27.5068C7.078 23.6286 7.92157 20.1558 9.63061 17.1102C11.3287 14.0646 13.6951 11.6982 16.7188 9.98914C19.7425 8.29105 23.1934 7.43652 27.0826 7.43652C30.9718 7.43652 35.7593 8.57589 38.9911 10.8546C42.223 13.1333 44.3593 16.2885 45.411 20.331H34.8171L34.8281 20.342Z" fill="#727597"/>
<path d="M34.9047 20.4187C34.1926 19.115 33.1738 18.1071 31.8482 17.4169C30.5226 16.7267 28.9669 16.3761 27.1702 16.3761C24.0698 16.3761 21.5829 17.395 19.7205 19.4327C17.8581 21.4704 16.9159 24.1873 16.9159 27.5835C16.9159 30.9797 17.891 34.0362 19.852 36.074C21.813 38.1117 24.508 39.1305 27.948 39.1305C31.388 39.1305 32.2864 38.528 33.9187 37.3338C35.5401 36.1397 36.7343 34.4197 37.4792 32.1738H25.3187V25.1185H46.1669V34.0253C45.4548 36.4136 44.2497 38.6375 42.5516 40.6971C40.8535 42.7568 38.6953 44.411 36.077 45.6819C33.4586 46.9527 30.5116 47.5881 27.225 47.5881C23.9384 47.5881 19.8739 46.7336 16.8283 45.0355C13.7827 43.3374 11.4163 40.971 9.70727 37.9473C7.99823 34.9236 7.15466 31.4617 7.15466 27.5835C7.15466 23.7053 7.99823 20.2324 9.70727 17.1868C11.4054 14.1412 13.7717 11.7748 16.7954 10.0658C19.8191 8.36771 23.2701 7.51318 27.1593 7.51318C31.0484 7.51318 35.8359 8.65255 39.0678 10.9313C42.2996 13.21 44.4359 16.3652 45.4877 20.4077H34.8938L34.9047 20.4187Z" fill="#727597"/>
<path d="M34.9925 20.4953C34.2804 19.1916 33.2615 18.1837 31.9359 17.4935C30.6103 16.8033 29.0547 16.4528 27.258 16.4528C24.1576 16.4528 21.6707 17.4716 19.8083 19.5093C17.9459 21.547 17.0037 24.264 17.0037 27.6602C17.0037 31.0563 17.9787 34.1129 19.9398 36.1506C21.9008 38.1883 24.5958 39.2072 28.0358 39.2072C31.4758 39.2072 32.3742 38.6046 34.0065 37.4105C35.6279 36.2163 36.8221 34.4963 37.567 32.2505H25.4065V25.1952H46.2547V34.1019C45.5426 36.4902 44.3375 38.7142 42.6394 40.7738C40.9413 42.8334 38.7831 44.4877 36.1647 45.7585C33.5464 47.0293 30.5994 47.6648 27.3128 47.6648C24.0261 47.6648 19.9617 46.8102 16.9161 45.1121C13.8705 43.4141 11.5041 41.0477 9.79504 38.024C8.086 35.0003 7.24243 31.5384 7.24243 27.6602C7.24243 23.7819 8.086 20.3091 9.79504 17.2635C11.4931 14.2179 13.8595 11.8515 16.8832 10.1425C19.9069 8.44437 23.3578 7.58984 27.247 7.58984C31.1362 7.58984 35.9237 8.72921 39.1556 11.0079C42.3874 13.2867 44.5237 16.4418 45.5754 20.4844H34.9815L34.9925 20.4953Z" fill="#727597"/>
<path d="M31.7058 17.4277C30.9937 16.124 29.9748 15.1161 28.6492 14.4259C27.3236 13.7358 25.768 13.3852 23.9713 13.3852C20.8709 13.3852 18.384 14.404 16.5216 16.4417C14.6592 18.4794 13.717 21.1964 13.717 24.5926C13.717 27.9888 14.692 31.0453 16.653 33.083C18.6141 35.1207 21.3091 36.1396 24.7491 36.1396C28.1891 36.1396 29.0874 35.537 30.7198 34.3429C32.3412 33.1488 33.5353 31.4288 34.2803 29.1829H22.1198V22.1276H42.9679V31.0344C42.2558 33.4226 41.0508 35.6466 39.3527 37.7062C37.6546 39.7658 35.4964 41.4201 32.878 42.6909C30.2597 43.9618 27.3127 44.5972 24.026 44.5972C20.7394 44.5972 16.675 43.7426 13.6293 42.0446C10.5837 40.3465 8.21738 37.9801 6.50833 34.9564C4.81024 31.9327 3.96667 28.4817 3.96667 24.5926C3.96667 20.7034 4.81024 17.2415 6.51929 14.1959C8.21738 11.1503 10.5837 8.78391 13.6074 7.07486C16.6311 5.38773 20.0821 4.5332 23.9713 4.5332C27.8604 4.5332 32.6479 5.67257 35.8798 7.95129C39.1116 10.23 41.2479 13.3852 42.2997 17.4277H31.7058Z" fill="#FA8A5B"/>
</g>
<g clip-path="url(#clip1_5633_1537)">
<path d="M63.0638 19.2078C64.5418 18.3593 66.1466 17.8926 67.9202 17.8926V26.7598H65.6398C63.5705 26.7598 62.008 27.2265 60.9523 28.1175C59.8965 29.0084 59.3898 30.5782 59.3898 32.8268V45.4701H51.0704V18.1896H59.3898V22.7292C60.3611 21.2443 61.5857 20.0563 63.0216 19.1654L63.0638 19.2078Z" fill="#727597"/>
<path d="M80.2515 18.1899V45.4704H71.9321V18.1899H80.2515Z" fill="#727597"/>
<path d="M99.9307 25.1482H95.4543V45.4707H87.1349V25.1482H84.1366V18.1902H87.1349V17.4265C87.1349 14.0748 88.1062 11.5292 90.0066 9.78965C91.9069 8.05014 94.7364 7.15918 98.4104 7.15918C102.084 7.15918 99.4661 7.15918 99.7617 7.20161V14.2869C98.157 14.202 97.059 14.4142 96.4256 14.9657C95.7921 15.5173 95.4543 16.4931 95.4543 17.9356V18.1902H99.9307V25.1482Z" fill="#727597"/>
<path d="M103.731 24.3843C104.787 22.2629 106.223 20.6507 108.039 19.5052C109.855 18.3597 111.882 17.8081 114.12 17.8081C116.358 17.8081 117.709 18.1899 119.145 18.9961C120.581 19.7597 121.679 20.8204 122.482 22.0932V18.2324H130.801V45.5129H122.482V41.652C121.679 42.9248 120.539 43.9431 119.103 44.7492C117.667 45.5129 115.978 45.9371 114.078 45.9371C112.177 45.9371 109.855 45.3432 108.039 44.1976C106.223 43.0521 104.787 41.3975 103.731 39.2761C102.676 37.1548 102.169 34.694 102.169 31.8514C102.169 29.0088 102.676 26.5905 103.731 24.4691V24.3843ZM120.75 26.8875C119.61 25.6995 118.216 25.0631 116.527 25.0631C114.838 25.0631 113.486 25.6571 112.304 26.845C111.164 28.033 110.573 29.6876 110.573 31.7666C110.573 33.8455 111.164 35.5001 112.304 36.7305C113.444 37.9609 114.838 38.5549 116.527 38.5549C118.216 38.5549 119.568 37.9609 120.75 36.7305C121.89 35.5425 122.482 33.8879 122.482 31.809C122.482 29.7301 121.89 28.0754 120.75 26.8875Z" fill="#727597"/>
<path d="M160.995 20.9897C162.896 23.0687 163.825 25.9113 163.825 29.5175V45.4701H155.548V30.6631C155.548 28.8387 155.083 27.4386 154.154 26.4204C153.225 25.4021 151.958 24.893 150.353 24.893C148.749 24.893 147.482 25.4021 146.553 26.4204C145.624 27.4386 145.159 28.8387 145.159 30.6631V45.4701H136.84V18.1896H145.159V21.7959C146.004 20.6079 147.144 19.6321 148.58 18.9533C150.016 18.232 151.62 17.8926 153.394 17.8926C156.561 17.8926 159.095 18.9108 160.995 20.9897Z" fill="#727597"/>
<path d="M72.5656 14.0747C71.6365 13.2261 71.172 12.123 71.172 10.8927C71.172 9.66227 71.6365 8.51675 72.5656 7.62578C73.4947 6.77724 74.6771 6.31055 76.1551 6.31055C77.6332 6.31055 78.7734 6.73482 79.7025 7.62578C80.6315 8.47432 81.0961 9.57742 81.0961 10.8927C81.0961 12.2079 80.6315 13.2261 79.7025 14.0747C78.7734 14.9232 77.591 15.3899 76.1551 15.3899C74.7193 15.3899 73.4947 14.9656 72.5656 14.0747Z" fill="#727597"/>
<path d="M174.805 44.1547C172.693 43.0092 171.004 41.397 169.779 39.2756C168.554 37.1543 167.963 34.6935 167.963 31.8509C167.963 29.0083 168.597 26.59 169.821 24.4262C171.046 22.3049 172.735 20.6502 174.889 19.5047C177.043 18.3592 179.45 17.8076 182.11 17.8076C184.771 17.8076 187.178 18.3592 189.332 19.5047C191.485 20.6502 193.175 22.2624 194.399 24.4262C195.624 26.5476 196.257 29.0083 196.257 31.8509C196.257 34.6935 195.624 37.1119 194.399 39.2756C193.132 41.397 191.443 43.0516 189.289 44.1972C187.136 45.3427 184.729 45.8942 182.068 45.8942C179.408 45.8942 177 45.3427 174.889 44.1972L174.805 44.1547ZM186.038 36.8573C187.136 35.6693 187.727 34.0147 187.727 31.8085C187.727 29.6023 187.178 27.9476 186.08 26.7597C184.982 25.5717 183.673 25.0202 182.068 25.0202C180.463 25.0202 179.112 25.6142 178.014 26.7597C176.958 27.9052 176.409 29.6023 176.409 31.8085C176.409 34.0147 176.916 35.6693 177.972 36.8573C179.028 38.0452 180.337 38.5968 181.941 38.5968C183.546 38.5968 184.898 38.0028 185.996 36.8573H186.038Z" fill="#727597"/>
</g>
<defs>
<clipPath id="clip0_5633_1537">
<rect width="42.3975" height="43.1315" fill="white" transform="translate(3.85718 4.5332)"/>
</clipPath>
<clipPath id="clip1_5633_1537">
<rect width="145.1" height="39.3786" fill="white" transform="translate(51.2394 6.34961)"/>
</clipPath>
</defs>
</svg>
